<svg version="1.1" xmlns="http://www.w3.org/2000/svg" xmlns:xlink="http://www.w3.org/1999/xlink" width="669" height="1075"><defs/><g><g transform="translate(-14,-1326) scale(1,1)"><rect fill="#C0C0C0" stroke="none" x="423" y="1503" width="177.7080078125" height="117" opacity="0.2"/></g><g transform="translate(-14,-1326) scale(1,1)"><rect fill="#ffffff" stroke="none" x="416" y="1496" width="177.7080078125" height="117"/></g><g transform="translate(-14,-1326) scale(1,1)"><path fill="none" stroke="#000000" d="M 416 1496 L 593.7080078125 1496 L 593.7080078125 1613 L 416 1613 L 416 1496 Z Z" stroke-miterlimit="10"/></g><g transform="translate(-14,-1326) scale(1,1)"><path fill="none" stroke="#000000" d="M 416 1521 L 593.7080078125 1521" stroke-miterlimit="10"/></g><g transform="translate(-14,-1326) scale(1,1)"><path fill="none" stroke="#000000" d="M 416 1604 L 593.7080078125 1604" stroke-miterlimit="10"/></g><g transform="translate(-14,-1326) scale(1,1)"><g><path fill="none" stroke="none"/><text fill="#000000" stroke="none" font-family="Arial" font-size="13px" font-style="normal" font-weight="bold" text-decoration="none" x="471.989013671875" y="1515.5">COMPANY</text></g></g><g transform="translate(-14,-1326) scale(1,1)"><g><path fill="none" stroke="none"/><text fill="#000000" stroke="none" font-family="Arial" font-size="13px" font-style="normal" font-weight="normal" text-decoration="none" x="421" y="1538.5">Id: int (PK)</text></g></g><g transform="translate(-14,-1326) scale(1,1)"><g><path fill="none" stroke="none"/><text fill="#000000" stroke="none" font-family="Arial" font-size="13px" font-style="normal" font-weight="normal" text-decoration="none" x="421" y="1553.5">addressDetails: varchar(80)</text></g></g><g transform="translate(-14,-1326) scale(1,1)"><g><path fill="none" stroke="none"/><text fill="#000000" stroke="none" font-family="Arial" font-size="13px" font-style="normal" font-weight="normal" text-decoration="none" x="421" y="1568.5">city: varchar(30)</text></g></g><g transform="translate(-14,-1326) scale(1,1)"><g><path fill="none" stroke="none"/><text fill="#000000" stroke="none" font-family="Arial" font-size="13px" font-style="normal" font-weight="normal" text-decoration="none" x="421" y="1583.5">postalCode: varchar(10)</text></g></g><g transform="translate(-14,-1326) scale(1,1)"><g><path fill="none" stroke="none"/><text fill="#000000" stroke="none" font-family="Arial" font-size="13px" font-style="normal" font-weight="normal" text-decoration="none" x="421" y="1598.5">companyName: varchar(50)</text></g></g><g transform="translate(-14,-1326) scale(1,1)"><rect fill="#C0C0C0" stroke="none" x="383" y="1343" width="247" height="147" opacity="0.2"/></g><g transform="translate(-14,-1326) scale(1,1)"><rect fill="#ffffff" stroke="none" x="376" y="1336" width="247" height="147"/></g><g transform="translate(-14,-1326) scale(1,1)"><path fill="none" stroke="#000000" d="M 376 1336 L 623 1336 L 623 1483 L 376 1483 L 376 1336 Z Z" stroke-miterlimit="10"/></g><g transform="translate(-14,-1326) scale(1,1)"><path fill="none" stroke="#000000" d="M 376 1361 L 623 1361" stroke-miterlimit="10"/></g><g transform="translate(-14,-1326) scale(1,1)"><path fill="none" stroke="#000000" d="M 376 1474 L 623 1474" stroke-miterlimit="10"/></g><g transform="translate(-14,-1326) scale(1,1)"><g><path fill="none" stroke="none"/><text fill="#000000" stroke="none" font-family="Arial" font-size="13px" font-style="normal" font-weight="bold" text-decoration="none" x="444.9609375" y="1355.5">USER_COMPANY</text></g></g><g transform="translate(-14,-1326) scale(1,1)"><g><path fill="none" stroke="none"/><text fill="#000000" stroke="none" font-family="Arial" font-size="13px" font-style="normal" font-weight="normal" text-decoration="none" x="381" y="1378.5">+Id: int(PK)</text></g></g><g transform="translate(-14,-1326) scale(1,1)"><g><path fill="none" stroke="none"/><text fill="#000000" stroke="none" font-family="Arial" font-size="13px" font-style="normal" font-weight="normal" text-decoration="none" x="381" y="1393.5">+companyId: int( FK)</text></g></g><g transform="translate(-14,-1326) scale(1,1)"><g><path fill="none" stroke="none"/><text fill="#000000" stroke="none" font-family="Arial" font-size="13px" font-style="normal" font-weight="normal" text-decoration="none" x="381" y="1408.5">+eMail: varchar(50)</text></g></g><g transform="translate(-14,-1326) scale(1,1)"><g><path fill="none" stroke="none"/><text fill="#000000" stroke="none" font-family="Arial" font-size="13px" font-style="normal" font-weight="normal" text-decoration="none" x="381" y="1423.5">+password: varchar(255)</text></g></g><g transform="translate(-14,-1326) scale(1,1)"><g><path fill="none" stroke="none"/><text fill="#000000" stroke="none" font-family="Arial" font-size="13px" font-style="normal" font-weight="normal" text-decoration="none" x="381" y="1438.5">+isActivated: bit(1)</text></g></g><g transform="translate(-14,-1326) scale(1,1)"><g><path fill="none" stroke="none"/><text fill="#000000" stroke="none" font-family="Arial" font-size="13px" font-style="normal" font-weight="normal" text-decoration="none" x="381" y="1453.5">+userName: varchar(50)</text></g></g><g transform="translate(-14,-1326) scale(1,1)"><g><path fill="none" stroke="none"/><text fill="#000000" stroke="none" font-family="Arial" font-size="13px" font-style="normal" font-weight="normal" text-decoration="none" x="381" y="1468.5">+isEnabled: boolean</text></g></g><g transform="translate(-14,-1326) scale(1,1)"><path fill="none" stroke="#000000" d="M 376 1392 L 328 1392 L 328 1528 L 416 1528" stroke-miterlimit="10"/></g><g transform="translate(-14,-1326) scale(1,1)"><path fill="none" stroke="#000000" d="M 405.83732514237585 1532.2095177560159 L 416 1528 L 405.83732514237585 1523.7904822439841" stroke-miterlimit="10"/></g><g transform="translate(-14,-1326) scale(1,1)"><g><path fill="none" stroke="none"/><text fill="#000000" stroke="none" font-family="Arial" font-size="13px" font-style="normal" font-weight="normal" text-decoration="none" x="350.5" y="1385.5">1</text></g></g><g transform="translate(-14,-1326) scale(1,1)"><g><path fill="none" stroke="none"/><text fill="#000000" stroke="none" font-family="Arial" font-size="13px" font-style="normal" font-weight="normal" text-decoration="none" x="390.5" y="1546.5">1</text></g></g><g transform="translate(-14,-1326) scale(1,1)"><rect fill="#C0C0C0" stroke="none" x="415" y="1655" width="193.234375" height="117" opacity="0.2"/></g><g transform="translate(-14,-1326) scale(1,1)"><rect fill="#ffffff" stroke="none" x="408" y="1648" width="193.234375" height="117"/></g><g transform="translate(-14,-1326) scale(1,1)"><path fill="none" stroke="#000000" d="M 408 1648 L 601.234375 1648 L 601.234375 1765 L 408 1765 L 408 1648 Z Z" stroke-miterlimit="10"/></g><g transform="translate(-14,-1326) scale(1,1)"><path fill="none" stroke="#000000" d="M 408 1673 L 601.234375 1673" stroke-miterlimit="10"/></g><g transform="translate(-14,-1326) scale(1,1)"><path fill="none" stroke="#000000" d="M 408 1756 L 601.234375 1756" stroke-miterlimit="10"/></g><g transform="translate(-14,-1326) scale(1,1)"><g><path fill="none" stroke="none"/><text fill="#000000" stroke="none" font-family="Arial" font-size="13px" font-style="normal" font-weight="bold" text-decoration="none" x="477.88720703125" y="1667.5">SURVEY</text></g></g><g transform="translate(-14,-1326) scale(1,1)"><g><path fill="none" stroke="none"/><text fill="#000000" stroke="none" font-family="Arial" font-size="13px" font-style="normal" font-weight="normal" text-decoration="none" x="413" y="1690.5">Id: int(PK)</text></g></g><g transform="translate(-14,-1326) scale(1,1)"><g><path fill="none" stroke="none"/><text fill="#000000" stroke="none" font-family="Arial" font-size="13px" font-style="normal" font-weight="normal" text-decoration="none" x="413" y="1705.5">companyId: int (FK)</text></g></g><g transform="translate(-14,-1326) scale(1,1)"><g><path fill="none" stroke="none"/><text fill="#000000" stroke="none" font-family="Arial" font-size="13px" font-style="normal" font-weight="normal" text-decoration="none" x="413" y="1720.5">surveyName: varchar(50)</text></g></g><g transform="translate(-14,-1326) scale(1,1)"><g><path fill="none" stroke="none"/><text fill="#000000" stroke="none" font-family="Arial" font-size="13px" font-style="normal" font-weight="normal" text-decoration="none" x="413" y="1735.5">surveyDescription: varchar(255)</text></g></g><g transform="translate(-14,-1326) scale(1,1)"><g><path fill="none" stroke="none"/><text fill="#000000" stroke="none" font-family="Arial" font-size="13px" font-style="normal" font-weight="normal" text-decoration="none" x="413" y="1750.5">creationDate: datetime(6)</text></g></g><g transform="translate(-14,-1326) scale(1,1)"><rect fill="#C0C0C0" stroke="none" x="399" y="1807" width="239" height="162" opacity="0.2"/></g><g transform="translate(-14,-1326) scale(1,1)"><rect fill="#ffffff" stroke="none" x="392" y="1800" width="239" height="162"/></g><g transform="translate(-14,-1326) scale(1,1)"><path fill="none" stroke="#000000" d="M 392 1800 L 631 1800 L 631 1962 L 392 1962 L 392 1800 Z Z" stroke-miterlimit="10"/></g><g transform="translate(-14,-1326) scale(1,1)"><path fill="none" stroke="#000000" d="M 392 1825 L 631 1825" stroke-miterlimit="10"/></g><g transform="translate(-14,-1326) scale(1,1)"><path fill="none" stroke="#000000" d="M 392 1953 L 631 1953" stroke-miterlimit="10"/></g><g transform="translate(-14,-1326) scale(1,1)"><g><path fill="none" stroke="none"/><text fill="#000000" stroke="none" font-family="Arial" font-size="13px" font-style="normal" font-weight="bold" text-decoration="none" x="443.595947265625" y="1819.5">ANSWERED_SURVEY</text></g></g><g transform="translate(-14,-1326) scale(1,1)"><g><path fill="none" stroke="none"/><text fill="#000000" stroke="none" font-family="Arial" font-size="13px" font-style="normal" font-weight="normal" text-decoration="none" x="397" y="1842.5">Id: int(PK)</text></g></g><g transform="translate(-14,-1326) scale(1,1)"><g><path fill="none" stroke="none"/><text fill="#000000" stroke="none" font-family="Arial" font-size="13px" font-style="normal" font-weight="normal" text-decoration="none" x="397" y="1857.5">surveyId: int(FK)</text></g></g><g transform="translate(-14,-1326) scale(1,1)"><g><path fill="none" stroke="none"/><text fill="#000000" stroke="none" font-family="Arial" font-size="13px" font-style="normal" font-weight="normal" text-decoration="none" x="397" y="1872.5">date: datetime</text></g></g><g transform="translate(-14,-1326) scale(1,1)"><g><path fill="none" stroke="none"/><text fill="#000000" stroke="none" font-family="Arial" font-size="13px" font-style="normal" font-weight="normal" text-decoration="none" x="397" y="1887.5">eMail: varchar(50)</text></g></g><g transform="translate(-14,-1326) scale(1,1)"><g><path fill="none" stroke="none"/><text fill="#000000" stroke="none" font-family="Arial" font-size="13px" font-style="normal" font-weight="normal" text-decoration="none" x="397" y="1902.5">firstName: varchar(50)</text></g></g><g transform="translate(-14,-1326) scale(1,1)"><g><path fill="none" stroke="none"/><text fill="#000000" stroke="none" font-family="Arial" font-size="13px" font-style="normal" font-weight="normal" text-decoration="none" x="397" y="1917.5">lastName: varchar(50)</text></g></g><g transform="translate(-14,-1326) scale(1,1)"><g><path fill="none" stroke="none"/><text fill="#000000" stroke="none" font-family="Arial" font-size="13px" font-style="normal" font-weight="normal" text-decoration="none" x="397" y="1932.5">age: int</text></g></g><g transform="translate(-14,-1326) scale(1,1)"><g><path fill="none" stroke="none"/><text fill="#000000" stroke="none" font-family="Arial" font-size="13px" font-style="normal" font-weight="normal" text-decoration="none" x="397" y="1947.5">country: varchar(30)</text></g></g><g transform="translate(-14,-1326) scale(1,1)"><rect fill="#C0C0C0" stroke="none" x="415" y="2007" width="215" height="102" opacity="0.2"/></g><g transform="translate(-14,-1326) scale(1,1)"><rect fill="#ffffff" stroke="none" x="408" y="2000" width="215" height="102"/></g><g transform="translate(-14,-1326) scale(1,1)"><path fill="none" stroke="#000000" d="M 408 2000 L 623 2000 L 623 2102 L 408 2102 L 408 2000 Z Z" stroke-miterlimit="10"/></g><g transform="translate(-14,-1326) scale(1,1)"><path fill="none" stroke="#000000" d="M 408 2025 L 623 2025" stroke-miterlimit="10"/></g><g transform="translate(-14,-1326) scale(1,1)"><path fill="none" stroke="#000000" d="M 408 2093 L 623 2093" stroke-miterlimit="10"/></g><g transform="translate(-14,-1326) scale(1,1)"><g><path fill="none" stroke="none"/><text fill="#000000" stroke="none" font-family="Arial" font-size="13px" font-style="normal" font-weight="bold" text-decoration="none" x="486.970458984375" y="2019.5">ANSWER</text></g></g><g transform="translate(-14,-1326) scale(1,1)"><g><path fill="none" stroke="none"/><text fill="#000000" stroke="none" font-family="Arial" font-size="13px" font-style="normal" font-weight="normal" text-decoration="none" x="413" y="2042.5">+Id: int (PK)</text></g></g><g transform="translate(-14,-1326) scale(1,1)"><g><path fill="none" stroke="none"/><text fill="#000000" stroke="none" font-family="Arial" font-size="13px" font-style="normal" font-weight="normal" text-decoration="none" x="413" y="2057.5">+answeredSurveyId: int(FK)</text></g></g><g transform="translate(-14,-1326) scale(1,1)"><g><path fill="none" stroke="none"/><text fill="#000000" stroke="none" font-family="Arial" font-size="13px" font-style="normal" font-weight="normal" text-decoration="none" x="413" y="2072.5">+questionId: int(FK)</text></g></g><g transform="translate(-14,-1326) scale(1,1)"><g><path fill="none" stroke="none"/><text fill="#000000" stroke="none" font-family="Arial" font-size="13px" font-style="normal" font-weight="normal" text-decoration="none" x="413" y="2087.5">+answerBody: varchar(255)</text></g></g><g transform="translate(-14,-1326) scale(1,1)"><rect fill="#C0C0C0" stroke="none" x="111" y="1687" width="207" height="102" opacity="0.2"/></g><g transform="translate(-14,-1326) scale(1,1)"><rect fill="#ffffff" stroke="none" x="104" y="1680" width="207" height="102"/></g><g transform="translate(-14,-1326) scale(1,1)"><path fill="none" stroke="#000000" d="M 104 1680 L 311 1680 L 311 1782 L 104 1782 L 104 1680 Z Z" stroke-miterlimit="10"/></g><g transform="translate(-14,-1326) scale(1,1)"><path fill="none" stroke="#000000" d="M 104 1705 L 311 1705" stroke-miterlimit="10"/></g><g transform="translate(-14,-1326) scale(1,1)"><path fill="none" stroke="#000000" d="M 104 1773 L 311 1773" stroke-miterlimit="10"/></g><g transform="translate(-14,-1326) scale(1,1)"><g><path fill="none" stroke="none"/><text fill="#000000" stroke="none" font-family="Arial" font-size="13px" font-style="normal" font-weight="bold" text-decoration="none" x="169.21728515625" y="1699.5">QESUTIONS</text></g></g><g transform="translate(-14,-1326) scale(1,1)"><g><path fill="none" stroke="none"/><text fill="#000000" stroke="none" font-family="Arial" font-size="13px" font-style="normal" font-weight="normal" text-decoration="none" x="109" y="1722.5">Id: int(PK)</text></g></g><g transform="translate(-14,-1326) scale(1,1)"><g><path fill="none" stroke="none"/><text fill="#000000" stroke="none" font-family="Arial" font-size="13px" font-style="normal" font-weight="normal" text-decoration="none" x="109" y="1737.5">surveyId: int (FK)</text></g></g><g transform="translate(-14,-1326) scale(1,1)"><g><path fill="none" stroke="none"/><text fill="#000000" stroke="none" font-family="Arial" font-size="13px" font-style="normal" font-weight="normal" text-decoration="none" x="109" y="1752.5">qestionBody: varchar(255)</text></g></g><g transform="translate(-14,-1326) scale(1,1)"><g><path fill="none" stroke="none"/><text fill="#000000" stroke="none" font-family="Arial" font-size="13px" font-style="normal" font-weight="normal" text-decoration="none" x="109" y="1767.5">questionType: int</text></g></g><g transform="translate(-14,-1326) scale(1,1)"><rect fill="#C0C0C0" stroke="none" x="111" y="1839" width="207" height="132" opacity="0.2"/></g><g transform="translate(-14,-1326) scale(1,1)"><rect fill="#ffffff" stroke="none" x="104" y="1832" width="207" height="132"/></g><g transform="translate(-14,-1326) scale(1,1)"><path fill="none" stroke="#000000" d="M 104 1832 L 311 1832 L 311 1964 L 104 1964 L 104 1832 Z Z" stroke-miterlimit="10"/></g><g transform="translate(-14,-1326) scale(1,1)"><path fill="none" stroke="#000000" d="M 104 1857 L 311 1857" stroke-miterlimit="10"/></g><g transform="translate(-14,-1326) scale(1,1)"><path fill="none" stroke="#000000" d="M 104 1955 L 311 1955" stroke-miterlimit="10"/></g><g transform="translate(-14,-1326) scale(1,1)"><g><path fill="none" stroke="none"/><text fill="#000000" stroke="none" font-family="Arial" font-size="13px" font-style="normal" font-weight="bold" text-decoration="none" x="138.865966796875" y="1851.5">POSSIBLE_ANSWERS</text></g></g><g transform="translate(-14,-1326) scale(1,1)"><g><path fill="none" stroke="none"/><text fill="#000000" stroke="none" font-family="Arial" font-size="13px" font-style="normal" font-weight="normal" text-decoration="none" x="109" y="1874.5">Id: int(PK)</text></g></g><g transform="translate(-14,-1326) scale(1,1)"><g><path fill="none" stroke="none"/><text fill="#000000" stroke="none" font-family="Arial" font-size="13px" font-style="normal" font-weight="normal" text-decoration="none" x="109" y="1889.5">questionId: int(FK)</text></g></g><g transform="translate(-14,-1326) scale(1,1)"><g><path fill="none" stroke="none"/><text fill="#000000" stroke="none" font-family="Arial" font-size="13px" font-style="normal" font-weight="normal" text-decoration="none" x="109" y="1904.5">possibleAnswerA: varchar(255)</text></g></g><g transform="translate(-14,-1326) scale(1,1)"><g><path fill="none" stroke="none"/><text fill="#000000" stroke="none" font-family="Arial" font-size="13px" font-style="normal" font-weight="normal" text-decoration="none" x="109" y="1919.5">possibleAnswerB: varchar(255)</text></g></g><g transform="translate(-14,-1326) scale(1,1)"><g><path fill="none" stroke="none"/><text fill="#000000" stroke="none" font-family="Arial" font-size="13px" font-style="normal" font-weight="normal" text-decoration="none" x="109" y="1934.5">possibleAnswerC: varchar(255)</text></g></g><g transform="translate(-14,-1326) scale(1,1)"><g><path fill="none" stroke="none"/><text fill="#000000" stroke="none" font-family="Arial" font-size="13px" font-style="normal" font-weight="normal" text-decoration="none" x="109" y="1949.5">possibleAnswerD: varchar(255)</text></g></g><g transform="translate(-14,-1326) scale(1,1)"><path fill="none" stroke="#000000" d="M 104 1728 L 24 1728 L 24 1648 L 368 1648 L 368 1664 L 408 1664" stroke-miterlimit="10"/></g><g transform="translate(-14,-1326) scale(1,1)"><path fill="none" stroke="#000000" d="M 397.83732514237585 1668.2095177560159 L 408 1664 L 397.83732514237585 1659.7904822439841" stroke-miterlimit="10"/></g><g transform="translate(-14,-1326) scale(1,1)"><g><path fill="none" stroke="none"/><text fill="#000000" stroke="none" font-family="Arial" font-size="13px" font-style="normal" font-weight="normal" text-decoration="none" x="79.5" y="1748.5">0...*</text></g></g><g transform="translate(-14,-1326) scale(1,1)"><g><path fill="none" stroke="none"/><text fill="#000000" stroke="none" font-family="Arial" font-size="13px" font-style="normal" font-weight="normal" text-decoration="none" x="383.5" y="1659.5">1</text></g></g><g transform="translate(-14,-1326) scale(1,1)"><path fill="none" stroke="#000000" d="M 104 1864 L 40 1864 L 40 1712 L 104 1712" stroke-miterlimit="10"/></g><g transform="translate(-14,-1326) scale(1,1)"><path fill="none" stroke="#000000" d="M 93.83732514237585 1716.2095177560159 L 104 1712 L 93.83732514237585 1707.7904822439841" stroke-miterlimit="10"/></g><g transform="translate(-14,-1326) scale(1,1)"><g><path fill="none" stroke="none"/><text fill="#000000" stroke="none" font-family="Arial" font-size="13px" font-style="normal" font-weight="normal" text-decoration="none" x="86.9208984375" y="1856.5">1</text></g></g><g transform="translate(-14,-1326) scale(1,1)"><g><path fill="none" stroke="none"/><text fill="#000000" stroke="none" font-family="Arial" font-size="13px" font-style="normal" font-weight="normal" text-decoration="none" x="71.5" y="1707.5">0,1</text></g></g><g transform="translate(-14,-1326) scale(1,1)"><path fill="none" stroke="#000000" d="M 601 1680 L 632 1680 L 632 1536 L 594 1536" stroke-miterlimit="10"/></g><g transform="translate(-14,-1326) scale(1,1)"><path fill="none" stroke="#000000" d="M 604.1626748576241 1531.7904822439841 L 594 1536 L 604.1626748576241 1540.2095177560159" stroke-miterlimit="10"/></g><g transform="translate(-14,-1326) scale(1,1)"><g><path fill="none" stroke="none"/><text fill="#000000" stroke="none" font-family="Arial" font-size="13px" font-style="normal" font-weight="normal" text-decoration="none" x="610.5" y="1676.5">0...*</text></g></g><g transform="translate(-14,-1326) scale(1,1)"><g><path fill="none" stroke="none"/><text fill="#000000" stroke="none" font-family="Arial" font-size="13px" font-style="normal" font-weight="normal" text-decoration="none" x="611.5" y="1529.5">1</text></g></g><g transform="translate(-14,-1326) scale(1,1)"><path fill="none" stroke="#000000" d="M 601 1800 L 601 1765" stroke-miterlimit="10"/></g><g transform="translate(-14,-1326) scale(1,1)"><path fill="none" stroke="#000000" d="M 605.209517756016 1775.162674857624 L 601 1765 L 596.790482243984 1775.162674857624" stroke-miterlimit="10"/></g><g transform="translate(-14,-1326) scale(1,1)"><g><path fill="none" stroke="none"/><text fill="#000000" stroke="none" font-family="Arial" font-size="13px" font-style="normal" font-weight="normal" text-decoration="none" x="601.5" y="1784.5">0...*</text></g></g><g transform="translate(-14,-1326) scale(1,1)"><g><path fill="none" stroke="none"/><text fill="#000000" stroke="none" font-family="Arial" font-size="13px" font-style="normal" font-weight="normal" text-decoration="none" x="583.447265625" y="1792.5">1</text></g></g><g transform="translate(-14,-1326) scale(1,1)"><path fill="none" stroke="#000000" d="M 623 2051 L 672 2051 L 672 1912 L 631 1912" stroke-miterlimit="10"/></g><g transform="translate(-14,-1326) scale(1,1)"><path fill="none" stroke="#000000" d="M 641.1626748576241 1907.7904822439841 L 631 1912 L 641.1626748576241 1916.2095177560159" stroke-miterlimit="10"/></g><g transform="translate(-14,-1326) scale(1,1)"><g><path fill="none" stroke="none"/><text fill="#000000" stroke="none" font-family="Arial" font-size="13px" font-style="normal" font-weight="normal" text-decoration="none" x="631.5" y="2067.5">0...*</text></g></g><g transform="translate(-14,-1326) scale(1,1)"><g><path fill="none" stroke="none"/><text fill="#000000" stroke="none" font-family="Arial" font-size="13px" font-style="normal" font-weight="normal" text-decoration="none" x="648.5" y="1905.5">1</text></g></g><g transform="translate(-14,-1326) scale(1,1)"><path fill="none" stroke="#000000" d="M 311 1712 L 384 1712 L 384 2051 L 408 2051" stroke-miterlimit="10"/></g><g transform="translate(-14,-1326) scale(1,1)"><path fill="none" stroke="#000000" d="M 321.16267485762415 1707.7904822439841 L 311 1712 L 321.16267485762415 1716.2095177560159" stroke-miterlimit="10"/></g><g transform="translate(-14,-1326) scale(1,1)"><g><path fill="none" stroke="none"/><text fill="#000000" stroke="none" font-family="Arial" font-size="13px" font-style="normal" font-weight="normal" text-decoration="none" x="328.5" y="1730.5">1</text></g></g><g transform="translate(-14,-1326) scale(1,1)"><g><path fill="none" stroke="none"/><text fill="#000000" stroke="none" font-family="Arial" font-size="13px" font-style="normal" font-weight="normal" text-decoration="none" x="374.5" y="2069.5">0...*</text></g></g><g transform="translate(-14,-1326) scale(1,1)"><rect fill="#C0C0C0" stroke="none" x="79" y="1999" width="239" height="147" opacity="0.2"/></g><g transform="translate(-14,-1326) scale(1,1)"><rect fill="#ffffff" stroke="none" x="72" y="1992" width="239" height="147"/></g><g transform="translate(-14,-1326) scale(1,1)"><path fill="none" stroke="#000000" d="M 72 1992 L 311 1992 L 311 2139 L 72 2139 L 72 1992 Z Z" stroke-miterlimit="10"/></g><g transform="translate(-14,-1326) scale(1,1)"><path fill="none" stroke="#000000" d="M 72 2017 L 311 2017" stroke-miterlimit="10"/></g><g transform="translate(-14,-1326) scale(1,1)"><path fill="none" stroke="#000000" d="M 72 2130 L 311 2130" stroke-miterlimit="10"/></g><g transform="translate(-14,-1326) scale(1,1)"><g><path fill="none" stroke="none"/><text fill="#000000" stroke="none" font-family="Arial" font-size="13px" font-style="normal" font-weight="bold" text-decoration="none" x="158.996826171875" y="2011.5">VOUCHER</text></g></g><g transform="translate(-14,-1326) scale(1,1)"><g><path fill="none" stroke="none"/><text fill="#000000" stroke="none" font-family="Arial" font-size="13px" font-style="normal" font-weight="normal" text-decoration="none" x="77" y="2034.5">Id: int(PK)</text></g></g><g transform="translate(-14,-1326) scale(1,1)"><g><path fill="none" stroke="none"/><text fill="#000000" stroke="none" font-family="Arial" font-size="13px" font-style="normal" font-weight="normal" text-decoration="none" x="77" y="2049.5">surveyId: int(FK)</text></g></g><g transform="translate(-14,-1326) scale(1,1)"><g><path fill="none" stroke="none"/><text fill="#000000" stroke="none" font-family="Arial" font-size="13px" font-style="normal" font-weight="normal" text-decoration="none" x="77" y="2064.5">discountType: int</text></g></g><g transform="translate(-14,-1326) scale(1,1)"><g><path fill="none" stroke="none"/><text fill="#000000" stroke="none" font-family="Arial" font-size="13px" font-style="normal" font-weight="normal" text-decoration="none" x="77" y="2079.5">discountAmount: int</text></g></g><g transform="translate(-14,-1326) scale(1,1)"><g><path fill="none" stroke="none"/><text fill="#000000" stroke="none" font-family="Arial" font-size="13px" font-style="normal" font-weight="normal" text-decoration="none" x="77" y="2094.5">startDate: datetime</text></g></g><g transform="translate(-14,-1326) scale(1,1)"><g><path fill="none" stroke="none"/><text fill="#000000" stroke="none" font-family="Arial" font-size="13px" font-style="normal" font-weight="normal" text-decoration="none" x="77" y="2109.5">endDate: datetime</text></g></g><g transform="translate(-14,-1326) scale(1,1)"><g><path fill="none" stroke="none"/><text fill="#000000" stroke="none" font-family="Arial" font-size="13px" font-style="normal" font-weight="normal" text-decoration="none" x="77" y="2124.5">details: varchar(255)</text></g></g><g transform="translate(-14,-1326) scale(1,1)"><rect fill="#C0C0C0" stroke="none" x="415" y="2159" width="223" height="117" opacity="0.2"/></g><g transform="translate(-14,-1326) scale(1,1)"><rect fill="#ffffff" stroke="none" x="408" y="2152" width="223" height="117"/></g><g transform="translate(-14,-1326) scale(1,1)"><path fill="none" stroke="#000000" d="M 408 2152 L 631 2152 L 631 2269 L 408 2269 L 408 2152 Z Z" stroke-miterlimit="10"/></g><g transform="translate(-14,-1326) scale(1,1)"><path fill="none" stroke="#000000" d="M 408 2177 L 631 2177" stroke-miterlimit="10"/></g><g transform="translate(-14,-1326) scale(1,1)"><path fill="none" stroke="#000000" d="M 408 2260 L 631 2260" stroke-miterlimit="10"/></g><g transform="translate(-14,-1326) scale(1,1)"><g><path fill="none" stroke="none"/><text fill="#000000" stroke="none" font-family="Arial" font-size="13px" font-style="normal" font-weight="bold" text-decoration="none" x="464.602294921875" y="2171.5">VOUCHER_CODE</text></g></g><g transform="translate(-14,-1326) scale(1,1)"><g><path fill="none" stroke="none"/><text fill="#000000" stroke="none" font-family="Arial" font-size="13px" font-style="normal" font-weight="normal" text-decoration="none" x="413" y="2194.5">Id: int(PK)</text><path fill="none" stroke="#000000" d="M 413 2194.5 L 470.79541015625 2194.5" stroke-miterlimit="10"/></g></g><g transform="translate(-14,-1326) scale(1,1)"><g><path fill="none" stroke="none"/><text fill="#000000" stroke="none" font-family="Arial" font-size="13px" font-style="normal" font-weight="normal" text-decoration="none" x="413" y="2209.5">voucherId: int(FK)</text></g></g><g transform="translate(-14,-1326) scale(1,1)"><g><path fill="none" stroke="none"/><text fill="#000000" stroke="none" font-family="Arial" font-size="13px" font-style="normal" font-weight="normal" text-decoration="none" x="413" y="2224.5">voucherCode: varchar(255)</text></g></g><g transform="translate(-14,-1326) scale(1,1)"><g><path fill="none" stroke="none"/><text fill="#000000" stroke="none" font-family="Arial" font-size="13px" font-style="normal" font-weight="normal" text-decoration="none" x="413" y="2239.5">ammountOfUses: int</text></g></g><g transform="translate(-14,-1326) scale(1,1)"><g><path fill="none" stroke="none"/><text fill="#000000" stroke="none" font-family="Arial" font-size="13px" font-style="normal" font-weight="normal" text-decoration="none" x="413" y="2254.5">ammountofBlocked: int</text></g></g><g transform="translate(-14,-1326) scale(1,1)"><rect fill="#C0C0C0" stroke="none" x="439" y="2311" width="154.18359375" height="87" opacity="0.2"/></g><g transform="translate(-14,-1326) scale(1,1)"><rect fill="#ffffff" stroke="none" x="432" y="2304" width="154.18359375" height="87"/></g><g transform="translate(-14,-1326) scale(1,1)"><path fill="none" stroke="#000000" d="M 432 2304 L 586.18359375 2304 L 586.18359375 2391 L 432 2391 L 432 2304 Z Z" stroke-miterlimit="10"/></g><g transform="translate(-14,-1326) scale(1,1)"><path fill="none" stroke="#000000" d="M 432 2329 L 586.18359375 2329" stroke-miterlimit="10"/></g><g transform="translate(-14,-1326) scale(1,1)"><path fill="none" stroke="#000000" d="M 432 2382 L 586.18359375 2382" stroke-miterlimit="10"/></g><g transform="translate(-14,-1326) scale(1,1)"><g><path fill="none" stroke="none"/><text fill="#000000" stroke="none" font-family="Arial" font-size="13px" font-style="normal" font-weight="bold" text-decoration="none" x="436.858642578125" y="2323.5">VOUCHERCODE_DATE</text></g></g><g transform="translate(-14,-1326) scale(1,1)"><g><path fill="none" stroke="none"/><text fill="#000000" stroke="none" font-family="Arial" font-size="13px" font-style="normal" font-weight="normal" text-decoration="none" x="437" y="2346.5">Id: int(PK)</text></g></g><g transform="translate(-14,-1326) scale(1,1)"><g><path fill="none" stroke="none"/><text fill="#000000" stroke="none" font-family="Arial" font-size="13px" font-style="normal" font-weight="normal" text-decoration="none" x="437" y="2361.5">codeId: int(FK)</text></g></g><g transform="translate(-14,-1326) scale(1,1)"><g><path fill="none" stroke="none"/><text fill="#000000" stroke="none" font-family="Arial" font-size="13px" font-style="normal" font-weight="normal" text-decoration="none" x="437" y="2376.5">useDate: datetime</text></g></g><g transform="translate(-14,-1326) scale(1,1)"><path fill="none" stroke="#000000" d="M 408 2226 L 360 2226 L 360 2097 L 311 2097" stroke-miterlimit="10"/></g><g transform="translate(-14,-1326) scale(1,1)"><path fill="none" stroke="#000000" d="M 321.16267485762415 2092.790482243984 L 311 2097 L 321.16267485762415 2101.209517756016" stroke-miterlimit="10"/></g><g transform="translate(-14,-1326) scale(1,1)"><g><path fill="none" stroke="none"/><text fill="#000000" stroke="none" font-family="Arial" font-size="13px" font-style="normal" font-weight="normal" text-decoration="none" x="374.5" y="2219.5">1...*</text></g></g><g transform="translate(-14,-1326) scale(1,1)"><g><path fill="none" stroke="none"/><text fill="#000000" stroke="none" font-family="Arial" font-size="13px" font-style="normal" font-weight="normal" text-decoration="none" x="328.5" y="2090.5">1</text></g></g><g transform="translate(-14,-1326) scale(1,1)"><path fill="none" stroke="#000000" d="M 586 2363 L 656 2363 L 656 2226 L 631 2226" stroke-miterlimit="10"/></g><g transform="translate(-14,-1326) scale(1,1)"><path fill="none" stroke="#000000" d="M 641.1626748576241 2221.790482243984 L 631 2226 L 641.1626748576241 2230.209517756016" stroke-miterlimit="10"/></g><g transform="translate(-14,-1326) scale(1,1)"><g><path fill="none" stroke="none"/><text fill="#000000" stroke="none" font-family="Arial" font-size="13px" font-style="normal" font-weight="normal" text-decoration="none" x="595.5" y="2381.5">0...*</text></g></g><g transform="translate(-14,-1326) scale(1,1)"><g><path fill="none" stroke="none"/><text fill="#000000" stroke="none" font-family="Arial" font-size="13px" font-style="normal" font-weight="normal" text-decoration="none" x="648.5" y="2219.5">1</text></g></g><g transform="translate(-14,-1326) scale(1,1)"><path fill="none" stroke="#000000" d="M 311 2032 L 360 2032 L 360 1672 L 408 1672" stroke-miterlimit="10"/></g><g transform="translate(-14,-1326) scale(1,1)"><path fill="none" stroke="#000000" d="M 397.83732514237585 1676.2095177560159 L 408 1672 L 397.83732514237585 1667.7904822439841" stroke-miterlimit="10"/></g><g transform="translate(-14,-1326) scale(1,1)"><g><path fill="none" stroke="none"/><text fill="#000000" stroke="none" font-family="Arial" font-size="13px" font-style="normal" font-weight="normal" text-decoration="none" x="319.5" y="2051.5">1</text></g></g><g transform="translate(-14,-1326) scale(1,1)"><g><path fill="none" stroke="none"/><text fill="#000000" stroke="none" font-family="Arial" font-size="13px" font-style="normal" font-weight="normal" text-decoration="none" x="391.5" y="1690.5">1</text></g></g></g></svg>