<svg version="1.1" xmlns="http://www.w3.org/2000/svg" xmlns:xlink="http://www.w3.org/1999/xlink" width="285" height="763"><defs/><g><g transform="translate(-574,2) scale(1,1)"><path fill="#C0C0C0" stroke="none" d="M 679 79 C 679 65.7451648 689.7451648 55 703 55 C 716.2548352 55 727 65.7451648 727 79 C 727 92.2548352 716.2548352 103 703 103 C 689.7451648 103 679 92.2548352 679 79 Z" opacity="0.2"/></g><g transform="translate(-574,2) scale(1,1)"><path fill="#000000" stroke="none" d="M 672 72 C 672 58.7451648 682.7451648 48 696 48 C 709.2548352 48 720 58.7451648 720 72 C 720 85.2548352 709.2548352 96 696 96 C 682.7451648 96 672 85.2548352 672 72 Z"/></g><g transform="translate(-574,2) scale(1,1)"><g><path fill="none" stroke="none"/><text fill="#000000" stroke="none" font-family="Arial" font-size="13px" font-style="normal" font-weight="normal" text-decoration="none" x="653" y="26">Singed In</text></g></g><g transform="translate(-574,2) scale(1,1)"><g><path fill="none" stroke="none"/><text fill="#000000" stroke="none" font-family="Arial" font-size="13px" font-style="normal" font-weight="normal" text-decoration="none" x="653" y="41">on Dashboard</text></g></g><g transform="translate(-574,2) scale(1,1)"><path fill="#C0C0C0" stroke="none" d="M 601 143 L 780.736328125 143 Q 790.736328125 143 790.736328125 153 L 790.736328125 173 Q 790.736328125 183 780.736328125 183 L 601 183 Q 591 183 591 173 L 591 153 Q 591 143 601 143 Z" opacity="0.2"/></g><g transform="translate(-574,2) scale(1,1)"><path fill="#ffffff" stroke="none" d="M 594 136 L 773.736328125 136 Q 783.736328125 136 783.736328125 146 L 783.736328125 166 Q 783.736328125 176 773.736328125 176 L 594 176 Q 584 176 584 166 L 584 146 Q 584 136 594 136 Z"/></g><g transform="translate(-574,2) scale(1,1)"><path fill="none" stroke="#000000" d="M 594 136 L 773.736328125 136 Q 783.736328125 136 783.736328125 146 L 783.736328125 166 Q 783.736328125 176 773.736328125 176 L 594 176 Q 584 176 584 166 L 584 146 Q 584 136 594 136 Z" stroke-miterlimit="10"/></g><g transform="translate(-574,2) scale(1,1)"><g><path fill="none" stroke="none"/><text fill="#000000" stroke="none" font-family="Arial" font-size="13px" font-style="normal" font-weight="bold" text-decoration="none" x="614.5009765625" y="155.5">Click Add Survey button</text></g></g><g transform="translate(-574,2) scale(1,1)"><path fill="#C0C0C0" stroke="none" d="M 601 223 L 788 223 Q 798 223 798 233 L 798 253 Q 798 263 788 263 L 601 263 Q 591 263 591 253 L 591 233 Q 591 223 601 223 Z" opacity="0.2"/></g><g transform="translate(-574,2) scale(1,1)"><path fill="#ffffff" stroke="none" d="M 594 216 L 781 216 Q 791 216 791 226 L 791 246 Q 791 256 781 256 L 594 256 Q 584 256 584 246 L 584 226 Q 584 216 594 216 Z"/></g><g transform="translate(-574,2) scale(1,1)"><path fill="none" stroke="#000000" d="M 594 216 L 781 216 Q 791 216 791 226 L 791 246 Q 791 256 781 256 L 594 256 Q 584 256 584 246 L 584 226 Q 584 216 594 216 Z" stroke-miterlimit="10"/></g><g transform="translate(-574,2) scale(1,1)"><g><path fill="none" stroke="none"/><text fill="#000000" stroke="none" font-family="Arial" font-size="13px" font-style="normal" font-weight="bold" text-decoration="none" x="618.332763671875" y="235.5">Fill in question's content</text></g></g><g transform="translate(-574,2) scale(1,1)"><path fill="#C0C0C0" stroke="none" d="M 601 303 L 796 303 Q 806 303 806 313 L 806 333 Q 806 343 796 343 L 601 343 Q 591 343 591 333 L 591 313 Q 591 303 601 303 Z" opacity="0.2"/></g><g transform="translate(-574,2) scale(1,1)"><path fill="#ffffff" stroke="none" d="M 594 296 L 789 296 Q 799 296 799 306 L 799 326 Q 799 336 789 336 L 594 336 Q 584 336 584 326 L 584 306 Q 584 296 594 296 Z"/></g><g transform="translate(-574,2) scale(1,1)"><path fill="none" stroke="#000000" d="M 594 296 L 789 296 Q 799 296 799 306 L 799 326 Q 799 336 789 336 L 594 336 Q 584 336 584 326 L 584 306 Q 584 296 594 296 Z" stroke-miterlimit="10"/></g><g transform="translate(-574,2) scale(1,1)"><g><path fill="none" stroke="none"/><text fill="#000000" stroke="none" font-family="Arial" font-size="13px" font-style="normal" font-weight="bold" text-decoration="none" x="616.346923828125" y="315.5">Click Add Question button</text></g></g><g transform="translate(-574,2) scale(1,1)"><path fill="#C0C0C0" stroke="none" d="M 617 503 L 805 503 Q 815 503 815 513 L 815 533 Q 815 543 805 543 L 617 543 Q 607 543 607 533 L 607 513 Q 607 503 617 503 Z" opacity="0.2"/></g><g transform="translate(-574,2) scale(1,1)"><path fill="#ffffff" stroke="none" d="M 610 496 L 798 496 Q 808 496 808 506 L 808 526 Q 808 536 798 536 L 610 536 Q 600 536 600 526 L 600 506 Q 600 496 610 496 Z"/></g><g transform="translate(-574,2) scale(1,1)"><path fill="none" stroke="#000000" d="M 610 496 L 798 496 Q 808 496 808 506 L 808 526 Q 808 536 798 536 L 610 536 Q 600 536 600 526 L 600 506 Q 600 496 610 496 Z" stroke-miterlimit="10"/></g><g transform="translate(-574,2) scale(1,1)"><g><path fill="none" stroke="none"/><text fill="#000000" stroke="none" font-family="Arial" font-size="13px" font-style="normal" font-weight="bold" text-decoration="none" x="625.247802734375" y="515.5">Click Submit Survey Button</text></g></g><g transform="translate(-574,2) scale(1,1)"><path fill="none" stroke="#000000" d="M 695 176 L 695 216" stroke-miterlimit="10"/></g><g transform="translate(-574,2) scale(1,1)"><path fill="none" stroke="#000000" d="M 690.790482243984 205.83732514237585 L 695 216 L 699.209517756016 205.83732514237585" stroke-miterlimit="10"/></g><g transform="translate(-574,2) scale(1,1)"><path fill="none" stroke="#000000" d="M 696 256 L 696 296" stroke-miterlimit="10"/></g><g transform="translate(-574,2) scale(1,1)"><path fill="none" stroke="#000000" d="M 691.790482243984 285.83732514237585 L 696 296 L 700.209517756016 285.83732514237585" stroke-miterlimit="10"/></g><g transform="translate(-574,2) scale(1,1)"><path fill="none" stroke="#000000" d="M 728 419 L 848 419 L 848 232 L 791 232" stroke-miterlimit="10"/></g><g transform="translate(-574,2) scale(1,1)"><path fill="none" stroke="#000000" d="M 801.1626748576241 227.790482243984 L 791 232 L 801.1626748576241 236.209517756016" stroke-miterlimit="10"/></g><g transform="translate(-574,2) scale(1,1)"><g><path fill="none" stroke="none"/><text fill="#000000" stroke="none" font-family="Arial" font-size="13px" font-style="normal" font-weight="normal" text-decoration="none" x="733" y="410">yes</text></g></g><g transform="translate(-574,2) scale(1,1)"><path fill="#C0C0C0" stroke="none" d="M 679 667 C 679 651.5360256 691.5360256 639 707 639 C 722.4639744 639 735 651.5360256 735 667 C 735 682.4639744 722.4639744 695 707 695 C 691.5360256 695 679 682.4639744 679 667 Z" opacity="0.2"/></g><g transform="translate(-574,2) scale(1,1)"><path fill="none" stroke="#000000" d="M 672 660 C 672 644.5360256 684.5360256 632 700 632 C 715.4639744 632 728 644.5360256 728 660 C 728 675.4639744 715.4639744 688 700 688 C 684.5360256 688 672 675.4639744 672 660 Z" stroke-miterlimit="10"/></g><g transform="translate(-574,2) scale(1,1)"><path fill="#000000" stroke="none" d="M 677 660 C 677 647.2974496 687.2974496 637 700 637 C 712.7025504 637 723 647.2974496 723 660 C 723 672.7025504 712.7025504 683 700 683 C 687.2974496 683 677 672.7025504 677 660 Z"/></g><g transform="translate(-574,2) scale(1,1)"><g><path fill="none" stroke="none"/><text fill="#000000" stroke="none" font-family="Arial" font-size="13px" font-style="normal" font-weight="normal" text-decoration="none" x="653" y="714">Survey created</text></g></g><g transform="translate(-574,2) scale(1,1)"><path fill="#C0C0C0" stroke="none" d="M 617 575 L 805 575 Q 815 575 815 585 L 815 605 Q 815 615 805 615 L 617 615 Q 607 615 607 605 L 607 585 Q 607 575 617 575 Z" opacity="0.2"/></g><g transform="translate(-574,2) scale(1,1)"><path fill="#ffffff" stroke="none" d="M 610 568 L 798 568 Q 808 568 808 578 L 808 598 Q 808 608 798 608 L 610 608 Q 600 608 600 598 L 600 578 Q 600 568 610 568 Z"/></g><g transform="translate(-574,2) scale(1,1)"><path fill="none" stroke="#000000" d="M 610 568 L 798 568 Q 808 568 808 578 L 808 598 Q 808 608 798 608 L 610 608 Q 600 608 600 598 L 600 578 Q 600 568 610 568 Z" stroke-miterlimit="10"/></g><g transform="translate(-574,2) scale(1,1)"><g><path fill="none" stroke="none"/><text fill="#000000" stroke="none" font-family="Arial" font-size="13px" font-style="normal" font-weight="bold" text-decoration="none" x="613.31103515625" y="587.5">Server add Survey to Database</text></g></g><g transform="translate(-574,2) scale(1,1)"><path fill="none" stroke="#000000" d="M 696 536 L 696 568" stroke-miterlimit="10"/></g><g transform="translate(-574,2) scale(1,1)"><path fill="none" stroke="#000000" d="M 691.790482243984 557.8373251423759 L 696 568 L 700.209517756016 557.8373251423759" stroke-miterlimit="10"/></g><g transform="translate(-574,2) scale(1,1)"><path fill="none" stroke="#000000" d="M 696 608 L 696 632" stroke-miterlimit="10"/></g><g transform="translate(-574,2) scale(1,1)"><path fill="none" stroke="#000000" d="M 691.790482243984 621.8373251423759 L 696 632 L 700.209517756016 621.8373251423759" stroke-miterlimit="10"/></g><g transform="translate(-574,2) scale(1,1)"><path fill="#C0C0C0" stroke="none" d="M 671 427 L 703.5 399 L 735 427 L 703.5 454 L 671 427" opacity="0.2"/></g><g transform="translate(-574,2) scale(1,1)"><path fill="#ffffff" stroke="none" d="M 664 419.5 L 696 392 L 728 419.5 L 696 447 L 664 419.5"/></g><g transform="translate(-574,2) scale(1,1)"><path fill="none" stroke="#000000" d="M 664 419.5 L 696 392 L 728 419.5 L 696 447 L 664 419.5 L 664 419.5" stroke-miterlimit="10"/></g><g transform="translate(-574,2) scale(1,1)"><path fill="none" stroke="#000000" d="M 696 336 L 696 392" stroke-miterlimit="10"/></g><g transform="translate(-574,2) scale(1,1)"><path fill="none" stroke="#000000" d="M 691.790482243984 381.83732514237585 L 696 392 L 700.209517756016 381.83732514237585" stroke-miterlimit="10"/></g><g transform="translate(-574,2) scale(1,1)"><path fill="none" stroke="#000000" d="M 696 447 L 696 496" stroke-miterlimit="10"/></g><g transform="translate(-574,2) scale(1,1)"><path fill="none" stroke="#000000" d="M 691.790482243984 485.83732514237585 L 696 496 L 700.209517756016 485.83732514237585" stroke-miterlimit="10"/></g><g transform="translate(-574,2) scale(1,1)"><g><path fill="none" stroke="none"/><text fill="#000000" stroke="none" font-family="Arial" font-size="13px" font-style="normal" font-weight="normal" text-decoration="none" x="589" y="418">Add another</text><text fill="#000000" stroke="none" font-family="Arial" font-size="13px" font-style="normal" font-weight="normal" text-decoration="none" x="589" y="431">question?</text></g></g><g transform="translate(-574,2) scale(1,1)"><g><path fill="none" stroke="none"/><text fill="#000000" stroke="none" font-family="Arial" font-size="13px" font-style="normal" font-weight="normal" text-decoration="none" x="701" y="458">no</text></g></g><g transform="translate(-574,2) scale(1,1)"><path fill="none" stroke="#000000" d="M 692 96 L 692 136" stroke-miterlimit="10"/></g><g transform="translate(-574,2) scale(1,1)"><path fill="none" stroke="#000000" d="M 687.790482243984 125.83732514237585 L 692 136 L 696.209517756016 125.83732514237585" stroke-miterlimit="10"/></g></g></svg>