<svg version="1.1" xmlns="http://www.w3.org/2000/svg" xmlns:xlink="http://www.w3.org/1999/xlink" width="1175" height="707"><defs/><g><g transform="translate(2,-6) scale(1,1)"><path fill="#C0C0C0" stroke="none" d="M 679 79 C 679 65.7451648 689.7451648 55 703 55 C 716.2548352 55 727 65.7451648 727 79 C 727 92.2548352 716.2548352 103 703 103 C 689.7451648 103 679 92.2548352 679 79 Z" opacity="0.2"/></g><g transform="translate(2,-6) scale(1,1)"><path fill="#000000" stroke="none" d="M 672 72 C 672 58.7451648 682.7451648 48 696 48 C 709.2548352 48 720 58.7451648 720 72 C 720 85.2548352 709.2548352 96 696 96 C 682.7451648 96 672 85.2548352 672 72 Z"/></g><g transform="translate(2,-6) scale(1,1)"><g><path fill="none" stroke="none"/><text fill="#000000" stroke="none" font-family="Arial" font-size="13px" font-style="normal" font-weight="normal" text-decoration="none" x="669" y="34">HomePage</text></g></g><g transform="translate(2,-6) scale(1,1)"><path fill="#C0C0C0" stroke="none" d="M 671 195.5 L 702.5 167 L 733 195.5 L 702.5 223 L 671 195.5" opacity="0.2"/></g><g transform="translate(2,-6) scale(1,1)"><path fill="#ffffff" stroke="none" d="M 664 188 L 695 160 L 726 188 L 695 216 L 664 188"/></g><g transform="translate(2,-6) scale(1,1)"><path fill="none" stroke="#000000" d="M 664 188 L 695 160 L 726 188 L 695 216 L 664 188 L 664 188" stroke-miterlimit="10"/></g><g transform="translate(2,-6) scale(1,1)"><path fill="#C0C0C0" stroke="none" d="M 457 175 L 581.88818359375 175 Q 591.88818359375 175 591.88818359375 185 L 591.88818359375 205 Q 591.88818359375 215 581.88818359375 215 L 457 215 Q 447 215 447 205 L 447 185 Q 447 175 457 175 Z" opacity="0.2"/></g><g transform="translate(2,-6) scale(1,1)"><path fill="#ffffff" stroke="none" d="M 450 168 L 574.88818359375 168 Q 584.88818359375 168 584.88818359375 178 L 584.88818359375 198 Q 584.88818359375 208 574.88818359375 208 L 450 208 Q 440 208 440 198 L 440 178 Q 440 168 450 168 Z"/></g><g transform="translate(2,-6) scale(1,1)"><path fill="none" stroke="#000000" d="M 450 168 L 574.88818359375 168 Q 584.88818359375 168 584.88818359375 178 L 584.88818359375 198 Q 584.88818359375 208 574.88818359375 208 L 450 208 Q 440 208 440 198 L 440 178 Q 440 168 450 168 Z" stroke-miterlimit="10"/></g><g transform="translate(2,-6) scale(1,1)"><g><path fill="none" stroke="none"/><text fill="#000000" stroke="none" font-family="Arial" font-size="13px" font-style="normal" font-weight="bold" text-decoration="none" x="456.44189453125" y="187.5">Click Sign In button</text></g></g><g transform="translate(2,-6) scale(1,1)"><path fill="#C0C0C0" stroke="none" d="M 889 175 L 1021 175 Q 1031 175 1031 185 L 1031 205 Q 1031 215 1021 215 L 889 215 Q 879 215 879 205 L 879 185 Q 879 175 889 175 Z" opacity="0.2"/></g><g transform="translate(2,-6) scale(1,1)"><path fill="#ffffff" stroke="none" d="M 882 168 L 1014 168 Q 1024 168 1024 178 L 1024 198 Q 1024 208 1014 208 L 882 208 Q 872 208 872 198 L 872 178 Q 872 168 882 168 Z"/></g><g transform="translate(2,-6) scale(1,1)"><path fill="none" stroke="#000000" d="M 882 168 L 1014 168 Q 1024 168 1024 178 L 1024 198 Q 1024 208 1014 208 L 882 208 Q 872 208 872 198 L 872 178 Q 872 168 882 168 Z" stroke-miterlimit="10"/></g><g transform="translate(2,-6) scale(1,1)"><g><path fill="none" stroke="none"/><text fill="#000000" stroke="none" font-family="Arial" font-size="13px" font-style="normal" font-weight="bold" text-decoration="none" x="889.109619140625" y="187.5">Click Sign Up button</text></g></g><g transform="translate(2,-6) scale(1,1)"><path fill="#C0C0C0" stroke="none" d="M 495 627 C 495 611.5360256 507.5360256 599 523 599 C 538.4639744 599 551 611.5360256 551 627 C 551 642.4639744 538.4639744 655 523 655 C 507.5360256 655 495 642.4639744 495 627 Z" opacity="0.2"/></g><g transform="translate(2,-6) scale(1,1)"><path fill="none" stroke="#000000" d="M 488 620 C 488 604.5360256 500.5360256 592 516 592 C 531.4639744 592 544 604.5360256 544 620 C 544 635.4639744 531.4639744 648 516 648 C 500.5360256 648 488 635.4639744 488 620 Z" stroke-miterlimit="10"/></g><g transform="translate(2,-6) scale(1,1)"><path fill="#000000" stroke="none" d="M 493 620 C 493 607.2974496 503.2974496 597 516 597 C 528.7025504 597 539 607.2974496 539 620 C 539 632.7025504 528.7025504 643 516 643 C 503.2974496 643 493 632.7025504 493 620 Z"/></g><g transform="translate(2,-6) scale(1,1)"><g><path fill="none" stroke="none"/><text fill="#000000" stroke="none" font-family="Arial" font-size="13px" font-style="normal" font-weight="normal" text-decoration="none" x="485" y="674">Signed In</text></g></g><g transform="translate(2,-6) scale(1,1)"><path fill="#C0C0C0" stroke="none" d="M 409 415 L 596 415 Q 606 415 606 425 L 606 445 Q 606 455 596 455 L 409 455 Q 399 455 399 445 L 399 425 Q 399 415 409 415 Z" opacity="0.2"/></g><g transform="translate(2,-6) scale(1,1)"><path fill="#ffffff" stroke="none" d="M 402 408 L 589 408 Q 599 408 599 418 L 599 438 Q 599 448 589 448 L 402 448 Q 392 448 392 438 L 392 418 Q 392 408 402 408 Z"/></g><g transform="translate(2,-6) scale(1,1)"><path fill="none" stroke="#000000" d="M 402 408 L 589 408 Q 599 408 599 418 L 599 438 Q 599 448 589 448 L 402 448 Q 392 448 392 438 L 392 418 Q 392 408 402 408 Z" stroke-miterlimit="10"/></g><g transform="translate(2,-6) scale(1,1)"><g><path fill="none" stroke="none"/><text fill="#000000" stroke="none" font-family="Arial" font-size="13px" font-style="normal" font-weight="bold" text-decoration="none" x="422.149658203125" y="427.5">Enter login and password</text></g></g><g transform="translate(2,-6) scale(1,1)"><path fill="#C0C0C0" stroke="none" d="M 385 511 L 629 511 Q 639 511 639 521 L 639 541 Q 639 551 629 551 L 385 551 Q 375 551 375 541 L 375 521 Q 375 511 385 511 Z" opacity="0.2"/></g><g transform="translate(2,-6) scale(1,1)"><path fill="#ffffff" stroke="none" d="M 378 504 L 622 504 Q 632 504 632 514 L 632 534 Q 632 544 622 544 L 378 544 Q 368 544 368 534 L 368 514 Q 368 504 378 504 Z"/></g><g transform="translate(2,-6) scale(1,1)"><path fill="none" stroke="#000000" d="M 378 504 L 622 504 Q 632 504 632 514 L 632 534 Q 632 544 622 544 L 378 544 Q 368 544 368 534 L 368 514 Q 368 504 378 504 Z" stroke-miterlimit="10"/></g><g transform="translate(2,-6) scale(1,1)"><g><path fill="none" stroke="none"/><text fill="#000000" stroke="none" font-family="Arial" font-size="13px" font-style="normal" font-weight="bold" text-decoration="none" x="395.5810546875" y="523.5">Server validates login and password</text></g></g><g transform="translate(2,-6) scale(1,1)"><path fill="none" stroke="#000000" d="M 512 544 L 512 592" stroke-miterlimit="10"/></g><g transform="translate(2,-6) scale(1,1)"><path fill="none" stroke="#000000" d="M 507.790482243984 581.8373251423759 L 512 592 L 516.209517756016 581.8373251423759" stroke-miterlimit="10"/></g><g transform="translate(2,-6) scale(1,1)"><g><path fill="none" stroke="none"/><text fill="#000000" stroke="none" font-family="Arial" font-size="13px" font-style="normal" font-weight="normal" text-decoration="none" x="525" y="578">correct dara</text></g></g><g transform="translate(2,-6) scale(1,1)"><path fill="none" stroke="#000000" d="M 632 517 L 680 517 L 680 426 L 599 426" stroke-miterlimit="10"/></g><g transform="translate(2,-6) scale(1,1)"><path fill="none" stroke="#000000" d="M 609.1626748576241 421.790482243984 L 599 426 L 609.1626748576241 430.209517756016" stroke-miterlimit="10"/></g><g transform="translate(2,-6) scale(1,1)"><g><path fill="none" stroke="none"/><text fill="#000000" stroke="none" font-family="Arial" font-size="13px" font-style="normal" font-weight="normal" text-decoration="none" x="685" y="474">invalidate data</text></g></g><g transform="translate(2,-6) scale(1,1)"><path fill="none" stroke="#000000" d="M 663 188 L 586 188" stroke-miterlimit="10"/></g><g transform="translate(2,-6) scale(1,1)"><path fill="none" stroke="#000000" d="M 596.1626748576241 183.790482243984 L 586 188 L 596.1626748576241 192.209517756016" stroke-miterlimit="10"/></g><g transform="translate(2,-6) scale(1,1)"><path fill="none" stroke="#000000" d="M 727 188 L 871 188" stroke-miterlimit="10"/></g><g transform="translate(2,-6) scale(1,1)"><path fill="none" stroke="#000000" d="M 860.8373251423759 192.209517756016 L 871 188 L 860.8373251423758 183.790482243984" stroke-miterlimit="10"/></g><g transform="translate(2,-6) scale(1,1)"><path fill="none" stroke="#000000" d="M 696 97 L 695 159" stroke-miterlimit="10"/></g><g transform="translate(2,-6) scale(1,1)"><path fill="none" stroke="#000000" d="M 690.954922475101 148.7707601544613 L 695 159 L 699.3728631128827 148.90653339055456" stroke-miterlimit="10"/></g><g transform="translate(2,-6) scale(1,1)"><path fill="none" stroke="#000000" d="M 512 448 L 512 504" stroke-miterlimit="10"/></g><g transform="translate(2,-6) scale(1,1)"><path fill="none" stroke="#000000" d="M 507.790482243984 493.83732514237585 L 512 504 L 516.209517756016 493.83732514237585" stroke-miterlimit="10"/></g><g transform="translate(2,-6) scale(1,1)"><path fill="#C0C0C0" stroke="none" d="M 487 311.5 L 518 287 L 548 311.5 L 518 335 L 487 311.5" opacity="0.2"/></g><g transform="translate(2,-6) scale(1,1)"><path fill="#ffffff" stroke="none" d="M 480 304 L 510.5 280 L 541 304 L 510.5 328 L 480 304"/></g><g transform="translate(2,-6) scale(1,1)"><path fill="none" stroke="#000000" d="M 480 304 L 510.5 280 L 541 304 L 510.5 328 L 480 304 L 480 304" stroke-miterlimit="10"/></g><g transform="translate(2,-6) scale(1,1)"><path fill="#C0C0C0" stroke="none" d="M 81 295 L 277 295 Q 287 295 287 305 L 287 325 Q 287 335 277 335 L 81 335 Q 71 335 71 325 L 71 305 Q 71 295 81 295 Z" opacity="0.2"/></g><g transform="translate(2,-6) scale(1,1)"><path fill="#ffffff" stroke="none" d="M 74 288 L 270 288 Q 280 288 280 298 L 280 318 Q 280 328 270 328 L 74 328 Q 64 328 64 318 L 64 298 Q 64 288 74 288 Z"/></g><g transform="translate(2,-6) scale(1,1)"><path fill="none" stroke="#000000" d="M 74 288 L 270 288 Q 280 288 280 298 L 280 318 Q 280 328 270 328 L 74 328 Q 64 328 64 318 L 64 298 Q 64 288 74 288 Z" stroke-miterlimit="10"/></g><g transform="translate(2,-6) scale(1,1)"><g><path fill="none" stroke="none"/><text fill="#000000" stroke="none" font-family="Arial" font-size="13px" font-style="normal" font-weight="bold" text-decoration="none" x="86.3828125" y="307.5">Click Forgot Password Button</text></g></g><g transform="translate(2,-6) scale(1,1)"><path fill="none" stroke="#000000" d="M 480 307 L 280 307" stroke-miterlimit="10"/></g><g transform="translate(2,-6) scale(1,1)"><path fill="none" stroke="#000000" d="M 290.16267485762415 302.790482243984 L 280 307 L 290.16267485762415 311.209517756016" stroke-miterlimit="10"/></g><g transform="translate(2,-6) scale(1,1)"><path fill="none" stroke="#000000" d="M 512 328 L 512 408" stroke-miterlimit="10"/></g><g transform="translate(2,-6) scale(1,1)"><path fill="none" stroke="#000000" d="M 507.790482243984 397.83732514237585 L 512 408 L 516.209517756016 397.83732514237585" stroke-miterlimit="10"/></g><g transform="translate(2,-6) scale(1,1)"><path fill="#C0C0C0" stroke="none" d="M 89 383 L 229 383 Q 239 383 239 393 L 239 413 Q 239 423 229 423 L 89 423 Q 79 423 79 413 L 79 393 Q 79 383 89 383 Z" opacity="0.2"/></g><g transform="translate(2,-6) scale(1,1)"><path fill="#ffffff" stroke="none" d="M 82 376 L 222 376 Q 232 376 232 386 L 232 406 Q 232 416 222 416 L 82 416 Q 72 416 72 406 L 72 386 Q 72 376 82 376 Z"/></g><g transform="translate(2,-6) scale(1,1)"><path fill="none" stroke="#000000" d="M 82 376 L 222 376 Q 232 376 232 386 L 232 406 Q 232 416 222 416 L 82 416 Q 72 416 72 406 L 72 386 Q 72 376 82 376 Z" stroke-miterlimit="10"/></g><g transform="translate(2,-6) scale(1,1)"><g><path fill="none" stroke="none"/><text fill="#000000" stroke="none" font-family="Arial" font-size="13px" font-style="normal" font-weight="bold" text-decoration="none" x="94.195068359375" y="395.5">Enter email address</text></g></g><g transform="translate(2,-6) scale(1,1)"><path fill="#C0C0C0" stroke="none" d="M 65 471 L 261 471 Q 271 471 271 481 L 271 508 Q 271 518 261 518 L 65 518 Q 55 518 55 508 L 55 481 Q 55 471 65 471 Z" opacity="0.2"/></g><g transform="translate(2,-6) scale(1,1)"><path fill="#ffffff" stroke="none" d="M 58 464 L 254 464 Q 264 464 264 474 L 264 501 Q 264 511 254 511 L 58 511 Q 48 511 48 501 L 48 474 Q 48 464 58 464 Z"/></g><g transform="translate(2,-6) scale(1,1)"><path fill="none" stroke="#000000" d="M 58 464 L 254 464 Q 264 464 264 474 L 264 501 Q 264 511 254 511 L 58 511 Q 48 511 48 501 L 48 474 Q 48 464 58 464 Z" stroke-miterlimit="10"/></g><g transform="translate(2,-6) scale(1,1)"><g><path fill="none" stroke="none"/><text fill="#000000" stroke="none" font-family="Arial" font-size="13px" font-style="normal" font-weight="bold" text-decoration="none" x="67.12646484375" y="483.5">Server validates email address</text></g></g><g transform="translate(2,-6) scale(1,1)"><path fill="#C0C0C0" stroke="none" d="M 25 567 L 349 567 Q 359 567 359 577 L 359 597 Q 359 607 349 607 L 25 607 Q 15 607 15 597 L 15 577 Q 15 567 25 567 Z" opacity="0.2"/></g><g transform="translate(2,-6) scale(1,1)"><path fill="#ffffff" stroke="none" d="M 18 560 L 342 560 Q 352 560 352 570 L 352 590 Q 352 600 342 600 L 18 600 Q 8 600 8 590 L 8 570 Q 8 560 18 560 Z"/></g><g transform="translate(2,-6) scale(1,1)"><path fill="none" stroke="#000000" d="M 18 560 L 342 560 Q 352 560 352 570 L 352 590 Q 352 600 342 600 L 18 600 Q 8 600 8 590 L 8 570 Q 8 560 18 560 Z" stroke-miterlimit="10"/></g><g transform="translate(2,-6) scale(1,1)"><g><path fill="none" stroke="none"/><text fill="#000000" stroke="none" font-family="Arial" font-size="13px" font-style="normal" font-weight="bold" text-decoration="none" x="38.374267578125" y="579.5">Server sends instructions on given email address</text></g></g><g transform="translate(2,-6) scale(1,1)"><path fill="#C0C0C0" stroke="none" d="M 25 647 L 349 647 Q 359 647 359 657 L 359 677 Q 359 687 349 687 L 25 687 Q 15 687 15 677 L 15 657 Q 15 647 25 647 Z" opacity="0.2"/></g><g transform="translate(2,-6) scale(1,1)"><path fill="#ffffff" stroke="none" d="M 18 640 L 342 640 Q 352 640 352 650 L 352 670 Q 352 680 342 680 L 18 680 Q 8 680 8 670 L 8 650 Q 8 640 18 640 Z"/></g><g transform="translate(2,-6) scale(1,1)"><path fill="none" stroke="#000000" d="M 18 640 L 342 640 Q 352 640 352 650 L 352 670 Q 352 680 342 680 L 18 680 Q 8 680 8 670 L 8 650 Q 8 640 18 640 Z" stroke-miterlimit="10"/></g><g transform="translate(2,-6) scale(1,1)"><g><path fill="none" stroke="none"/><text fill="#000000" stroke="none" font-family="Arial" font-size="13px" font-style="normal" font-weight="bold" text-decoration="none" x="42.357421875" y="659.5">Reset password by following instructions in mail</text></g></g><g transform="translate(2,-6) scale(1,1)"><path fill="none" stroke="#000000" d="M 160 328 L 160 376" stroke-miterlimit="10"/></g><g transform="translate(2,-6) scale(1,1)"><path fill="none" stroke="#000000" d="M 155.790482243984 365.83732514237585 L 160 376 L 164.209517756016 365.83732514237585" stroke-miterlimit="10"/></g><g transform="translate(2,-6) scale(1,1)"><path fill="none" stroke="#000000" d="M 160 416 L 160 464" stroke-miterlimit="10"/></g><g transform="translate(2,-6) scale(1,1)"><path fill="none" stroke="#000000" d="M 155.790482243984 453.83732514237585 L 160 464 L 164.209517756016 453.83732514237585" stroke-miterlimit="10"/></g><g transform="translate(2,-6) scale(1,1)"><path fill="none" stroke="#000000" d="M 161 511 L 161 560" stroke-miterlimit="10"/></g><g transform="translate(2,-6) scale(1,1)"><path fill="none" stroke="#000000" d="M 156.790482243984 549.8373251423759 L 161 560 L 165.209517756016 549.8373251423759" stroke-miterlimit="10"/></g><g transform="translate(2,-6) scale(1,1)"><path fill="none" stroke="#000000" d="M 160 600 L 160 640" stroke-miterlimit="10"/></g><g transform="translate(2,-6) scale(1,1)"><path fill="none" stroke="#000000" d="M 155.790482243984 629.8373251423759 L 160 640 L 164.209517756016 629.8373251423759" stroke-miterlimit="10"/></g><g transform="translate(2,-6) scale(1,1)"><path fill="none" stroke="#000000" d="M 264 487 L 288 487 L 288 408 L 232 408" stroke-miterlimit="10"/></g><g transform="translate(2,-6) scale(1,1)"><path fill="none" stroke="#000000" d="M 242.16267485762415 403.790482243984 L 232 408 L 242.16267485762415 412.209517756016" stroke-miterlimit="10"/></g><g transform="translate(2,-6) scale(1,1)"><g><path fill="none" stroke="none"/><text fill="#000000" stroke="none" font-family="Arial" font-size="13px" font-style="normal" font-weight="normal" text-decoration="none" x="165" y="538">correct email</text><text fill="#000000" stroke="none" font-family="Arial" font-size="13px" font-style="normal" font-weight="normal" text-decoration="none" x="165" y="551">address</text></g></g><g transform="translate(2,-6) scale(1,1)"><g><path fill="none" stroke="none"/><text fill="#000000" stroke="none" font-family="Arial" font-size="13px" font-style="normal" font-weight="normal" text-decoration="none" x="293" y="442">invalid</text><text fill="#000000" stroke="none" font-family="Arial" font-size="13px" font-style="normal" font-weight="normal" text-decoration="none" x="293" y="455">email</text><text fill="#000000" stroke="none" font-family="Arial" font-size="13px" font-style="normal" font-weight="normal" text-decoration="none" x="293" y="468">address</text></g></g><g transform="translate(2,-6) scale(1,1)"><path fill="none" stroke="#000000" d="M 352 668 L 360 668 L 360 424 L 392 424" stroke-miterlimit="10"/></g><g transform="translate(2,-6) scale(1,1)"><path fill="none" stroke="#000000" d="M 381.83732514237585 428.209517756016 L 392 424 L 381.83732514237585 419.790482243984" stroke-miterlimit="10"/></g><g transform="translate(2,-6) scale(1,1)"><path fill="#C0C0C0" stroke="none" d="M 873 255 L 1060 255 Q 1070 255 1070 265 L 1070 285 Q 1070 295 1060 295 L 873 295 Q 863 295 863 285 L 863 265 Q 863 255 873 255 Z" opacity="0.2"/></g><g transform="translate(2,-6) scale(1,1)"><path fill="#ffffff" stroke="none" d="M 866 248 L 1053 248 Q 1063 248 1063 258 L 1063 278 Q 1063 288 1053 288 L 866 288 Q 856 288 856 278 L 856 258 Q 856 248 866 248 Z"/></g><g transform="translate(2,-6) scale(1,1)"><path fill="none" stroke="#000000" d="M 866 248 L 1053 248 Q 1063 248 1063 258 L 1063 278 Q 1063 288 1053 288 L 866 288 Q 856 288 856 278 L 856 258 Q 856 248 866 248 Z" stroke-miterlimit="10"/></g><g transform="translate(2,-6) scale(1,1)"><g><path fill="none" stroke="none"/><text fill="#000000" stroke="none" font-family="Arial" font-size="13px" font-style="normal" font-weight="bold" text-decoration="none" x="904.935546875" y="267.5">Enter account data</text></g></g><g transform="translate(2,-6) scale(1,1)"><path fill="#C0C0C0" stroke="none" d="M 857 335 L 1052 335 Q 1062 335 1062 345 L 1062 365 Q 1062 375 1052 375 L 857 375 Q 847 375 847 365 L 847 345 Q 847 335 857 335 Z" opacity="0.2"/></g><g transform="translate(2,-6) scale(1,1)"><path fill="#ffffff" stroke="none" d="M 850 328 L 1045 328 Q 1055 328 1055 338 L 1055 358 Q 1055 368 1045 368 L 850 368 Q 840 368 840 358 L 840 338 Q 840 328 850 328 Z"/></g><g transform="translate(2,-6) scale(1,1)"><path fill="none" stroke="#000000" d="M 850 328 L 1045 328 Q 1055 328 1055 338 L 1055 358 Q 1055 368 1045 368 L 850 368 Q 840 368 840 358 L 840 338 Q 840 328 850 328 Z" stroke-miterlimit="10"/></g><g transform="translate(2,-6) scale(1,1)"><g><path fill="none" stroke="none"/><text fill="#000000" stroke="none" font-family="Arial" font-size="13px" font-style="normal" font-weight="bold" text-decoration="none" x="886.438720703125" y="347.5">Server validates data</text></g></g><g transform="translate(2,-6) scale(1,1)"><path fill="#C0C0C0" stroke="none" d="M 841 431 L 1093 431 Q 1103 431 1103 441 L 1103 461 Q 1103 471 1093 471 L 841 471 Q 831 471 831 461 L 831 441 Q 831 431 841 431 Z" opacity="0.2"/></g><g transform="translate(2,-6) scale(1,1)"><path fill="#ffffff" stroke="none" d="M 834 424 L 1086 424 Q 1096 424 1096 434 L 1096 454 Q 1096 464 1086 464 L 834 464 Q 824 464 824 454 L 824 434 Q 824 424 834 424 Z"/></g><g transform="translate(2,-6) scale(1,1)"><path fill="none" stroke="#000000" d="M 834 424 L 1086 424 Q 1096 424 1096 434 L 1096 454 Q 1096 464 1086 464 L 834 464 Q 824 464 824 454 L 824 434 Q 824 424 834 424 Z" stroke-miterlimit="10"/></g><g transform="translate(2,-6) scale(1,1)"><g><path fill="none" stroke="none"/><text fill="#000000" stroke="none" font-family="Arial" font-size="13px" font-style="normal" font-weight="bold" text-decoration="none" x="854.505126953125" y="443.5">Server sends activation link on email</text></g></g><g transform="translate(2,-6) scale(1,1)"><path fill="none" stroke="#000000" d="M 510 208 L 510 280" stroke-miterlimit="10"/></g><g transform="translate(2,-6) scale(1,1)"><path fill="none" stroke="#000000" d="M 505.790482243984 269.83732514237585 L 510 280 L 514.209517756016 269.83732514237585" stroke-miterlimit="10"/></g><g transform="translate(2,-6) scale(1,1)"><path fill="none" stroke="#000000" d="M 951 208 L 951 248" stroke-miterlimit="10"/></g><g transform="translate(2,-6) scale(1,1)"><path fill="none" stroke="#000000" d="M 946.790482243984 237.83732514237585 L 951 248 L 955.209517756016 237.83732514237585" stroke-miterlimit="10"/></g><g transform="translate(2,-6) scale(1,1)"><path fill="none" stroke="#000000" d="M 952 368 L 952 424" stroke-miterlimit="10"/></g><g transform="translate(2,-6) scale(1,1)"><path fill="none" stroke="#000000" d="M 947.790482243984 413.83732514237585 L 952 424 L 956.209517756016 413.83732514237585" stroke-miterlimit="10"/></g><g transform="translate(2,-6) scale(1,1)"><path fill="none" stroke="#000000" d="M 952 288 L 952 328" stroke-miterlimit="10"/></g><g transform="translate(2,-6) scale(1,1)"><path fill="none" stroke="#000000" d="M 947.790482243984 317.83732514237585 L 952 328 L 956.209517756016 317.83732514237585" stroke-miterlimit="10"/></g><g transform="translate(2,-6) scale(1,1)"><g><path fill="none" stroke="none"/><text fill="#000000" stroke="none" font-family="Arial" font-size="13px" font-style="normal" font-weight="normal" text-decoration="none" x="957" y="394">correct</text><text fill="#000000" stroke="none" font-family="Arial" font-size="13px" font-style="normal" font-weight="normal" text-decoration="none" x="957" y="407">data</text></g></g><g transform="translate(2,-6) scale(1,1)"><path fill="none" stroke="#000000" d="M 1055 352 L 1104 352 L 1104 264 L 1063 264" stroke-miterlimit="10"/></g><g transform="translate(2,-6) scale(1,1)"><path fill="none" stroke="#000000" d="M 1073.162674857624 259.790482243984 L 1063 264 L 1073.162674857624 268.209517756016" stroke-miterlimit="10"/></g><g transform="translate(2,-6) scale(1,1)"><g><path fill="none" stroke="none"/><text fill="#000000" stroke="none" font-family="Arial" font-size="13px" font-style="normal" font-weight="normal" text-decoration="none" x="1109" y="306">invalid</text><text fill="#000000" stroke="none" font-family="Arial" font-size="13px" font-style="normal" font-weight="normal" text-decoration="none" x="1109" y="319">data</text></g></g><g transform="translate(2,-6) scale(1,1)"><path fill="#C0C0C0" stroke="none" d="M 927 595 C 927 579.5360256 939.5360256 567 955 567 C 970.4639744 567 983 579.5360256 983 595 C 983 610.4639744 970.4639744 623 955 623 C 939.5360256 623 927 610.4639744 927 595 Z" opacity="0.2"/></g><g transform="translate(2,-6) scale(1,1)"><path fill="none" stroke="#000000" d="M 920 588 C 920 572.5360256 932.5360256 560 948 560 C 963.4639744 560 976 572.5360256 976 588 C 976 603.4639744 963.4639744 616 948 616 C 932.5360256 616 920 603.4639744 920 588 Z" stroke-miterlimit="10"/></g><g transform="translate(2,-6) scale(1,1)"><path fill="#000000" stroke="none" d="M 925 588 C 925 575.2974496 935.2974496 565 948 565 C 960.7025504 565 971 575.2974496 971 588 C 971 600.7025504 960.7025504 611 948 611 C 935.2974496 611 925 600.7025504 925 588 Z"/></g><g transform="translate(2,-6) scale(1,1)"><g><path fill="none" stroke="none"/><text fill="#000000" stroke="none" font-family="Arial" font-size="13px" font-style="normal" font-weight="normal" text-decoration="none" x="901" y="642">Account created</text></g></g><g transform="translate(2,-6) scale(1,1)"><path fill="#C0C0C0" stroke="none" d="M 881 503 L 1037 503 Q 1047 503 1047 513 L 1047 533 Q 1047 543 1037 543 L 881 543 Q 871 543 871 533 L 871 513 Q 871 503 881 503 Z" opacity="0.2"/></g><g transform="translate(2,-6) scale(1,1)"><path fill="#ffffff" stroke="none" d="M 874 496 L 1030 496 Q 1040 496 1040 506 L 1040 526 Q 1040 536 1030 536 L 874 536 Q 864 536 864 526 L 864 506 Q 864 496 874 496 Z"/></g><g transform="translate(2,-6) scale(1,1)"><path fill="none" stroke="#000000" d="M 874 496 L 1030 496 Q 1040 496 1040 506 L 1040 526 Q 1040 536 1030 536 L 874 536 Q 864 536 864 526 L 864 506 Q 864 496 874 496 Z" stroke-miterlimit="10"/></g><g transform="translate(2,-6) scale(1,1)"><g><path fill="none" stroke="none"/><text fill="#000000" stroke="none" font-family="Arial" font-size="13px" font-style="normal" font-weight="bold" text-decoration="none" x="897.0927734375" y="515.5">Click activation link</text></g></g><g transform="translate(2,-6) scale(1,1)"><path fill="none" stroke="#000000" d="M 952 464 L 952 496" stroke-miterlimit="10"/></g><g transform="translate(2,-6) scale(1,1)"><path fill="none" stroke="#000000" d="M 947.790482243984 485.83732514237585 L 952 496 L 956.209517756016 485.83732514237585" stroke-miterlimit="10"/></g><g transform="translate(2,-6) scale(1,1)"><path fill="none" stroke="#000000" d="M 951 536 L 951 560" stroke-miterlimit="10"/></g><g transform="translate(2,-6) scale(1,1)"><path fill="none" stroke="#000000" d="M 946.790482243984 549.8373251423759 L 951 560 L 955.209517756016 549.8373251423759" stroke-miterlimit="10"/></g></g></svg>