<svg version="1.1" xmlns="http://www.w3.org/2000/svg" xmlns:xlink="http://www.w3.org/1999/xlink" width="451" height="787"><defs/><g><g transform="translate(-542,-14) scale(1,1)"><path fill="#C0C0C0" stroke="none" d="M 679 79 C 679 65.7451648 689.7451648 55 703 55 C 716.2548352 55 727 65.7451648 727 79 C 727 92.2548352 716.2548352 103 703 103 C 689.7451648 103 679 92.2548352 679 79 Z" opacity="0.2"/></g><g transform="translate(-542,-14) scale(1,1)"><path fill="#000000" stroke="none" d="M 672 72 C 672 58.7451648 682.7451648 48 696 48 C 709.2548352 48 720 58.7451648 720 72 C 720 85.2548352 709.2548352 96 696 96 C 682.7451648 96 672 85.2548352 672 72 Z"/></g><g transform="translate(-542,-14) scale(1,1)"><g><path fill="none" stroke="none"/><text fill="#000000" stroke="none" font-family="Arial" font-size="13px" font-style="normal" font-weight="normal" text-decoration="none" x="661" y="42">HomePage</text></g></g><g transform="translate(-542,-14) scale(1,1)"><path fill="#C0C0C0" stroke="none" d="M 609 143 L 797 143 Q 807 143 807 153 L 807 173 Q 807 183 797 183 L 609 183 Q 599 183 599 173 L 599 153 Q 599 143 609 143 Z" opacity="0.2"/></g><g transform="translate(-542,-14) scale(1,1)"><path fill="#ffffff" stroke="none" d="M 602 136 L 790 136 Q 800 136 800 146 L 800 166 Q 800 176 790 176 L 602 176 Q 592 176 592 166 L 592 146 Q 592 136 602 136 Z"/></g><g transform="translate(-542,-14) scale(1,1)"><path fill="none" stroke="#000000" d="M 602 136 L 790 136 Q 800 136 800 146 L 800 166 Q 800 176 790 176 L 602 176 Q 592 176 592 166 L 592 146 Q 592 136 602 136 Z" stroke-miterlimit="10"/></g><g transform="translate(-542,-14) scale(1,1)"><g><path fill="none" stroke="none"/><text fill="#000000" stroke="none" font-family="Arial" font-size="13px" font-style="normal" font-weight="bold" text-decoration="none" x="611.82373046875" y="155.5">Click complete Survey button</text></g></g><g transform="translate(-542,-14) scale(1,1)"><path fill="#C0C0C0" stroke="none" d="M 609 223 L 796 223 Q 806 223 806 233 L 806 253 Q 806 263 796 263 L 609 263 Q 599 263 599 253 L 599 233 Q 599 223 609 223 Z" opacity="0.2"/></g><g transform="translate(-542,-14) scale(1,1)"><path fill="#ffffff" stroke="none" d="M 602 216 L 789 216 Q 799 216 799 226 L 799 246 Q 799 256 789 256 L 602 256 Q 592 256 592 246 L 592 226 Q 592 216 602 216 Z"/></g><g transform="translate(-542,-14) scale(1,1)"><path fill="none" stroke="#000000" d="M 602 216 L 789 216 Q 799 216 799 226 L 799 246 Q 799 256 789 256 L 602 256 Q 592 256 592 246 L 592 226 Q 592 216 602 216 Z" stroke-miterlimit="10"/></g><g transform="translate(-542,-14) scale(1,1)"><g><path fill="none" stroke="none"/><text fill="#000000" stroke="none" font-family="Arial" font-size="13px" font-style="normal" font-weight="bold" text-decoration="none" x="616.73828125" y="235.5">Choose survey to complete</text></g></g><g transform="translate(-542,-14) scale(1,1)"><path fill="#C0C0C0" stroke="none" d="M 609 295 L 804 295 Q 814 295 814 305 L 814 325 Q 814 335 804 335 L 609 335 Q 599 335 599 325 L 599 305 Q 599 295 609 295 Z" opacity="0.2"/></g><g transform="translate(-542,-14) scale(1,1)"><path fill="#ffffff" stroke="none" d="M 602 288 L 797 288 Q 807 288 807 298 L 807 318 Q 807 328 797 328 L 602 328 Q 592 328 592 318 L 592 298 Q 592 288 602 288 Z"/></g><g transform="translate(-542,-14) scale(1,1)"><path fill="none" stroke="#000000" d="M 602 288 L 797 288 Q 807 288 807 298 L 807 318 Q 807 328 797 328 L 602 328 Q 592 328 592 318 L 592 298 Q 592 288 602 288 Z" stroke-miterlimit="10"/></g><g transform="translate(-542,-14) scale(1,1)"><g><path fill="none" stroke="none"/><text fill="#000000" stroke="none" font-family="Arial" font-size="13px" font-style="normal" font-weight="bold" text-decoration="none" x="614.603271484375" y="307.5">Server returns chosen survey</text></g></g><g transform="translate(-542,-14) scale(1,1)"><path fill="#C0C0C0" stroke="none" d="M 569 519 L 861 519 Q 871 519 871 529 L 871 549 Q 871 559 861 559 L 569 559 Q 559 559 559 549 L 559 529 Q 559 519 569 519 Z" opacity="0.2"/></g><g transform="translate(-542,-14) scale(1,1)"><path fill="#ffffff" stroke="none" d="M 562 512 L 854 512 Q 864 512 864 522 L 864 542 Q 864 552 854 552 L 562 552 Q 552 552 552 542 L 552 522 Q 552 512 562 512 Z"/></g><g transform="translate(-542,-14) scale(1,1)"><path fill="none" stroke="#000000" d="M 562 512 L 854 512 Q 864 512 864 522 L 864 542 Q 864 552 854 552 L 562 552 Q 552 552 552 542 L 552 522 Q 552 512 562 512 Z" stroke-miterlimit="10"/></g><g transform="translate(-542,-14) scale(1,1)"><g><path fill="none" stroke="none"/><text fill="#000000" stroke="none" font-family="Arial" font-size="13px" font-style="normal" font-weight="bold" text-decoration="none" x="577.209716796875" y="531.5">Fill in informations needed to receive voucher</text></g></g><g transform="translate(-542,-14) scale(1,1)"><path fill="none" stroke="#000000" d="M 695 176 L 695 216" stroke-miterlimit="10"/></g><g transform="translate(-542,-14) scale(1,1)"><path fill="none" stroke="#000000" d="M 690.790482243984 205.83732514237585 L 695 216 L 699.209517756016 205.83732514237585" stroke-miterlimit="10"/></g><g transform="translate(-542,-14) scale(1,1)"><path fill="none" stroke="#000000" d="M 696 256 L 696 288" stroke-miterlimit="10"/></g><g transform="translate(-542,-14) scale(1,1)"><path fill="none" stroke="#000000" d="M 691.790482243984 277.83732514237585 L 696 288 L 700.209517756016 277.83732514237585" stroke-miterlimit="10"/></g><g transform="translate(-542,-14) scale(1,1)"><path fill="#C0C0C0" stroke="none" d="M 671 707 C 671 691.5360256 683.5360256 679 699 679 C 714.4639744 679 727 691.5360256 727 707 C 727 722.4639744 714.4639744 735 699 735 C 683.5360256 735 671 722.4639744 671 707 Z" opacity="0.2"/></g><g transform="translate(-542,-14) scale(1,1)"><path fill="none" stroke="#000000" d="M 664 700 C 664 684.5360256 676.5360256 672 692 672 C 707.4639744 672 720 684.5360256 720 700 C 720 715.4639744 707.4639744 728 692 728 C 676.5360256 728 664 715.4639744 664 700 Z" stroke-miterlimit="10"/></g><g transform="translate(-542,-14) scale(1,1)"><path fill="#000000" stroke="none" d="M 669 700 C 669 687.2974496 679.2974496 677 692 677 C 704.7025504 677 715 687.2974496 715 700 C 715 712.7025504 704.7025504 723 692 723 C 679.2974496 723 669 712.7025504 669 700 Z"/></g><g transform="translate(-542,-14) scale(1,1)"><g><path fill="none" stroke="none"/><text fill="#000000" stroke="none" font-family="Arial" font-size="13px" font-style="normal" font-weight="normal" text-decoration="none" x="637" y="754">Voucher is sent to given</text><text fill="#000000" stroke="none" font-family="Arial" font-size="13px" font-style="normal" font-weight="normal" text-decoration="none" x="637" y="767">email address</text></g></g><g transform="translate(-542,-14) scale(1,1)"><path fill="#C0C0C0" stroke="none" d="M 617 599 L 805 599 Q 815 599 815 609 L 815 629 Q 815 639 805 639 L 617 639 Q 607 639 607 629 L 607 609 Q 607 599 617 599 Z" opacity="0.2"/></g><g transform="translate(-542,-14) scale(1,1)"><path fill="#ffffff" stroke="none" d="M 610 592 L 798 592 Q 808 592 808 602 L 808 622 Q 808 632 798 632 L 610 632 Q 600 632 600 622 L 600 602 Q 600 592 610 592 Z"/></g><g transform="translate(-542,-14) scale(1,1)"><path fill="none" stroke="#000000" d="M 610 592 L 798 592 Q 808 592 808 602 L 808 622 Q 808 632 798 632 L 610 632 Q 600 632 600 622 L 600 602 Q 600 592 610 592 Z" stroke-miterlimit="10"/></g><g transform="translate(-542,-14) scale(1,1)"><g><path fill="none" stroke="none"/><text fill="#000000" stroke="none" font-family="Arial" font-size="13px" font-style="normal" font-weight="bold" text-decoration="none" x="642.938720703125" y="611.5">Server validates data</text></g></g><g transform="translate(-542,-14) scale(1,1)"><path fill="none" stroke="#000000" d="M 696 552 L 696 592" stroke-miterlimit="10"/></g><g transform="translate(-542,-14) scale(1,1)"><path fill="none" stroke="#000000" d="M 691.790482243984 581.8373251423759 L 696 592 L 700.209517756016 581.8373251423759" stroke-miterlimit="10"/></g><g transform="translate(-542,-14) scale(1,1)"><path fill="none" stroke="#000000" d="M 696 632 L 696 672" stroke-miterlimit="10"/></g><g transform="translate(-542,-14) scale(1,1)"><path fill="none" stroke="#000000" d="M 691.790482243984 661.8373251423759 L 696 672 L 700.209517756016 661.8373251423759" stroke-miterlimit="10"/></g><g transform="translate(-542,-14) scale(1,1)"><path fill="none" stroke="#000000" d="M 692 96 L 692 136" stroke-miterlimit="10"/></g><g transform="translate(-542,-14) scale(1,1)"><path fill="none" stroke="#000000" d="M 687.790482243984 125.83732514237585 L 692 136 L 696.209517756016 125.83732514237585" stroke-miterlimit="10"/></g><g transform="translate(-542,-14) scale(1,1)"><path fill="#C0C0C0" stroke="none" d="M 633 367 L 781 367 Q 791 367 791 377 L 791 397 Q 791 407 781 407 L 633 407 Q 623 407 623 397 L 623 377 Q 623 367 633 367 Z" opacity="0.2"/></g><g transform="translate(-542,-14) scale(1,1)"><path fill="#ffffff" stroke="none" d="M 626 360 L 774 360 Q 784 360 784 370 L 784 390 Q 784 400 774 400 L 626 400 Q 616 400 616 390 L 616 370 Q 616 360 626 360 Z"/></g><g transform="translate(-542,-14) scale(1,1)"><path fill="none" stroke="#000000" d="M 626 360 L 774 360 Q 784 360 784 370 L 784 390 Q 784 400 774 400 L 626 400 Q 616 400 616 390 L 616 370 Q 616 360 626 360 Z" stroke-miterlimit="10"/></g><g transform="translate(-542,-14) scale(1,1)"><g><path fill="none" stroke="none"/><text fill="#000000" stroke="none" font-family="Arial" font-size="13px" font-style="normal" font-weight="bold" text-decoration="none" x="651.23095703125" y="379.5">Complete survey</text></g></g><g transform="translate(-542,-14) scale(1,1)"><path fill="none" stroke="#000000" d="M 696 328 L 696 360" stroke-miterlimit="10"/></g><g transform="translate(-542,-14) scale(1,1)"><path fill="none" stroke="#000000" d="M 691.790482243984 349.83732514237585 L 696 360 L 700.209517756016 349.83732514237585" stroke-miterlimit="10"/></g><g transform="translate(-542,-14) scale(1,1)"><path fill="#C0C0C0" stroke="none" d="M 625 431 L 789 431 Q 799 431 799 441 L 799 468 Q 799 478 789 478 L 625 478 Q 615 478 615 468 L 615 441 Q 615 431 625 431 Z" opacity="0.2"/></g><g transform="translate(-542,-14) scale(1,1)"><path fill="#ffffff" stroke="none" d="M 618 424 L 782 424 Q 792 424 792 434 L 792 461 Q 792 471 782 471 L 618 471 Q 608 471 608 461 L 608 434 Q 608 424 618 424 Z"/></g><g transform="translate(-542,-14) scale(1,1)"><path fill="none" stroke="#000000" d="M 618 424 L 782 424 Q 792 424 792 434 L 792 461 Q 792 471 782 471 L 618 471 Q 608 471 608 461 L 608 434 Q 608 424 618 424 Z" stroke-miterlimit="10"/></g><g transform="translate(-542,-14) scale(1,1)"><g><path fill="none" stroke="none"/><text fill="#000000" stroke="none" font-family="Arial" font-size="13px" font-style="normal" font-weight="bold" text-decoration="none" x="632.445068359375" y="443.5">Server validates survey</text></g></g><g transform="translate(-542,-14) scale(1,1)"><path fill="none" stroke="#000000" d="M 696 400 L 696 424" stroke-miterlimit="10"/></g><g transform="translate(-542,-14) scale(1,1)"><path fill="none" stroke="#000000" d="M 691.790482243984 413.83732514237585 L 696 424 L 700.209517756016 413.83732514237585" stroke-miterlimit="10"/></g><g transform="translate(-542,-14) scale(1,1)"><path fill="none" stroke="#000000" d="M 792 448 L 848 448 L 848 376 L 784 376" stroke-miterlimit="10"/></g><g transform="translate(-542,-14) scale(1,1)"><path fill="none" stroke="#000000" d="M 794.1626748576241 371.790482243984 L 784 376 L 794.1626748576241 380.209517756016" stroke-miterlimit="10"/></g><g transform="translate(-542,-14) scale(1,1)"><g><path fill="none" stroke="none"/><text fill="#000000" stroke="none" font-family="Arial" font-size="13px" font-style="normal" font-weight="normal" text-decoration="none" x="853" y="418">invalid data</text></g></g><g transform="translate(-542,-14) scale(1,1)"><path fill="none" stroke="#000000" d="M 696 471 L 696 512" stroke-miterlimit="10"/></g><g transform="translate(-542,-14) scale(1,1)"><path fill="none" stroke="#000000" d="M 691.790482243984 501.83732514237585 L 696 512 L 700.209517756016 501.83732514237585" stroke-miterlimit="10"/></g><g transform="translate(-542,-14) scale(1,1)"><g><path fill="none" stroke="none"/><text fill="#000000" stroke="none" font-family="Arial" font-size="13px" font-style="normal" font-weight="normal" text-decoration="none" x="709" y="490">correct data</text></g></g><g transform="translate(-542,-14) scale(1,1)"><g><path fill="none" stroke="none"/><text fill="#000000" stroke="none" font-family="Arial" font-size="13px" font-style="normal" font-weight="normal" text-decoration="none" x="701" y="650">correct data</text></g></g><g transform="translate(-542,-14) scale(1,1)"><path fill="none" stroke="#000000" d="M 808 616 L 896 616 L 896 528 L 864 528" stroke-miterlimit="10"/></g><g transform="translate(-542,-14) scale(1,1)"><path fill="none" stroke="#000000" d="M 874.1626748576241 523.790482243984 L 864 528 L 874.1626748576241 532.209517756016" stroke-miterlimit="10"/></g><g transform="translate(-542,-14) scale(1,1)"><g><path fill="none" stroke="none"/><text fill="#000000" stroke="none" font-family="Arial" font-size="13px" font-style="normal" font-weight="normal" text-decoration="none" x="901" y="578">invalid data</text></g></g></g></svg>