<svg version="1.1" xmlns="http://www.w3.org/2000/svg" xmlns:xlink="http://www.w3.org/1999/xlink" width="667" height="651"><defs/><g><g transform="translate(-358,2) scale(1,1)"><path fill="#C0C0C0" stroke="none" d="M 671 79 C 671 65.7451648 681.7451648 55 695 55 C 708.2548352 55 719 65.7451648 719 79 C 719 92.2548352 708.2548352 103 695 103 C 681.7451648 103 671 92.2548352 671 79 Z" opacity="0.2"/></g><g transform="translate(-358,2) scale(1,1)"><path fill="#000000" stroke="none" d="M 664 72 C 664 58.7451648 674.7451648 48 688 48 C 701.2548352 48 712 58.7451648 712 72 C 712 85.2548352 701.2548352 96 688 96 C 674.7451648 96 664 85.2548352 664 72 Z"/></g><g transform="translate(-358,2) scale(1,1)"><g><path fill="none" stroke="none"/><text fill="#000000" stroke="none" font-family="Arial" font-size="13px" font-style="normal" font-weight="normal" text-decoration="none" x="653" y="26">Singed In</text></g></g><g transform="translate(-358,2) scale(1,1)"><g><path fill="none" stroke="none"/><text fill="#000000" stroke="none" font-family="Arial" font-size="13px" font-style="normal" font-weight="normal" text-decoration="none" x="653" y="41">on Dashboard</text></g></g><g transform="translate(-358,2) scale(1,1)"><path fill="#C0C0C0" stroke="none" d="M 601 143 L 780.736328125 143 Q 790.736328125 143 790.736328125 153 L 790.736328125 173 Q 790.736328125 183 780.736328125 183 L 601 183 Q 591 183 591 173 L 591 153 Q 591 143 601 143 Z" opacity="0.2"/></g><g transform="translate(-358,2) scale(1,1)"><path fill="#ffffff" stroke="none" d="M 594 136 L 773.736328125 136 Q 783.736328125 136 783.736328125 146 L 783.736328125 166 Q 783.736328125 176 773.736328125 176 L 594 176 Q 584 176 584 166 L 584 146 Q 584 136 594 136 Z"/></g><g transform="translate(-358,2) scale(1,1)"><path fill="none" stroke="#000000" d="M 594 136 L 773.736328125 136 Q 783.736328125 136 783.736328125 146 L 783.736328125 166 Q 783.736328125 176 773.736328125 176 L 594 176 Q 584 176 584 166 L 584 146 Q 584 136 594 136 Z" stroke-miterlimit="10"/></g><g transform="translate(-358,2) scale(1,1)"><g><path fill="none" stroke="none"/><text fill="#000000" stroke="none" font-family="Arial" font-size="13px" font-style="normal" font-weight="bold" text-decoration="none" x="610.52099609375" y="155.5">Click Add Voucher button</text></g></g><g transform="translate(-358,2) scale(1,1)"><path fill="#C0C0C0" stroke="none" d="M 601 439 L 788 439 Q 798 439 798 449 L 798 469 Q 798 479 788 479 L 601 479 Q 591 479 591 469 L 591 449 Q 591 439 601 439 Z" opacity="0.2"/></g><g transform="translate(-358,2) scale(1,1)"><path fill="#ffffff" stroke="none" d="M 594 432 L 781 432 Q 791 432 791 442 L 791 462 Q 791 472 781 472 L 594 472 Q 584 472 584 462 L 584 442 Q 584 432 594 432 Z"/></g><g transform="translate(-358,2) scale(1,1)"><path fill="none" stroke="#000000" d="M 594 432 L 781 432 Q 791 432 791 442 L 791 462 Q 791 472 781 472 L 594 472 Q 584 472 584 462 L 584 442 Q 584 432 594 432 Z" stroke-miterlimit="10"/></g><g transform="translate(-358,2) scale(1,1)"><g><path fill="none" stroke="none"/><text fill="#000000" stroke="none" font-family="Arial" font-size="13px" font-style="normal" font-weight="bold" text-decoration="none" x="605.48828125" y="451.5">Click Submit Voucher button</text></g></g><g transform="translate(-358,2) scale(1,1)"><path fill="#C0C0C0" stroke="none" d="M 671 555 C 671 539.5360256 683.5360256 527 699 527 C 714.4639744 527 727 539.5360256 727 555 C 727 570.4639744 714.4639744 583 699 583 C 683.5360256 583 671 570.4639744 671 555 Z" opacity="0.2"/></g><g transform="translate(-358,2) scale(1,1)"><path fill="none" stroke="#000000" d="M 664 548 C 664 532.5360256 676.5360256 520 692 520 C 707.4639744 520 720 532.5360256 720 548 C 720 563.4639744 707.4639744 576 692 576 C 676.5360256 576 664 563.4639744 664 548 Z" stroke-miterlimit="10"/></g><g transform="translate(-358,2) scale(1,1)"><path fill="#000000" stroke="none" d="M 669 548 C 669 535.2974496 679.2974496 525 692 525 C 704.7025504 525 715 535.2974496 715 548 C 715 560.7025504 704.7025504 571 692 571 C 679.2974496 571 669 560.7025504 669 548 Z"/></g><g transform="translate(-358,2) scale(1,1)"><g><path fill="none" stroke="none"/><text fill="#000000" stroke="none" font-family="Arial" font-size="13px" font-style="normal" font-weight="normal" text-decoration="none" x="645" y="602">Voucher created</text></g></g><g transform="translate(-358,2) scale(1,1)"><path fill="none" stroke="#000000" d="M 688 96 L 688 136" stroke-miterlimit="10"/></g><g transform="translate(-358,2) scale(1,1)"><path fill="none" stroke="#000000" d="M 683.790482243984 125.83732514237585 L 688 136 L 692.209517756016 125.83732514237585" stroke-miterlimit="10"/></g><g transform="translate(-358,2) scale(1,1)"><path fill="#C0C0C0" stroke="none" d="M 663 259.5 L 695.5 231 L 727 259.5 L 695.5 287 L 663 259.5" opacity="0.2"/></g><g transform="translate(-358,2) scale(1,1)"><path fill="#ffffff" stroke="none" d="M 656 252 L 688 224 L 720 252 L 688 280 L 656 252"/></g><g transform="translate(-358,2) scale(1,1)"><path fill="none" stroke="#000000" d="M 656 252 L 688 224 L 720 252 L 688 280 L 656 252 L 656 252" stroke-miterlimit="10"/></g><g transform="translate(-358,2) scale(1,1)"><path fill="#C0C0C0" stroke="none" d="M 385 239 L 605 239 Q 615 239 615 249 L 615 269 Q 615 279 605 279 L 385 279 Q 375 279 375 269 L 375 249 Q 375 239 385 239 Z" opacity="0.2"/></g><g transform="translate(-358,2) scale(1,1)"><path fill="#ffffff" stroke="none" d="M 378 232 L 598 232 Q 608 232 608 242 L 608 262 Q 608 272 598 272 L 378 272 Q 368 272 368 262 L 368 242 Q 368 232 378 232 Z"/></g><g transform="translate(-358,2) scale(1,1)"><path fill="none" stroke="#000000" d="M 378 232 L 598 232 Q 608 232 608 242 L 608 262 Q 608 272 598 272 L 378 272 Q 368 272 368 262 L 368 242 Q 368 232 378 232 Z" stroke-miterlimit="10"/></g><g transform="translate(-358,2) scale(1,1)"><g><path fill="none" stroke="none"/><text fill="#000000" stroke="none" font-family="Arial" font-size="13px" font-style="normal" font-weight="bold" text-decoration="none" x="386.834228515625" y="251.5">Click Add Voucher Manually button</text></g></g><g transform="translate(-358,2) scale(1,1)"><path fill="#C0C0C0" stroke="none" d="M 793 239 L 1012 239 Q 1022 239 1022 249 L 1022 269 Q 1022 279 1012 279 L 793 279 Q 783 279 783 269 L 783 249 Q 783 239 793 239 Z" opacity="0.2"/></g><g transform="translate(-358,2) scale(1,1)"><path fill="#ffffff" stroke="none" d="M 786 232 L 1005 232 Q 1015 232 1015 242 L 1015 262 Q 1015 272 1005 272 L 786 272 Q 776 272 776 262 L 776 242 Q 776 232 786 232 Z"/></g><g transform="translate(-358,2) scale(1,1)"><path fill="none" stroke="#000000" d="M 786 232 L 1005 232 Q 1015 232 1015 242 L 1015 262 Q 1015 272 1005 272 L 786 272 Q 776 272 776 262 L 776 242 Q 776 232 786 232 Z" stroke-miterlimit="10"/></g><g transform="translate(-358,2) scale(1,1)"><g><path fill="none" stroke="none"/><text fill="#000000" stroke="none" font-family="Arial" font-size="13px" font-style="normal" font-weight="bold" text-decoration="none" x="812.063232421875" y="251.5">Click Import From File button</text></g></g><g transform="translate(-358,2) scale(1,1)"><path fill="none" stroke="#000000" d="M 688 176 L 688 224" stroke-miterlimit="10"/></g><g transform="translate(-358,2) scale(1,1)"><path fill="none" stroke="#000000" d="M 683.790482243984 213.83732514237585 L 688 224 L 692.209517756016 213.83732514237585" stroke-miterlimit="10"/></g><g transform="translate(-358,2) scale(1,1)"><path fill="none" stroke="#000000" d="M 656 252 L 608 252" stroke-miterlimit="10"/></g><g transform="translate(-358,2) scale(1,1)"><path fill="none" stroke="#000000" d="M 618.1626748576241 247.790482243984 L 608 252 L 618.1626748576241 256.209517756016" stroke-miterlimit="10"/></g><g transform="translate(-358,2) scale(1,1)"><path fill="none" stroke="#000000" d="M 721 252 L 775 252" stroke-miterlimit="10"/></g><g transform="translate(-358,2) scale(1,1)"><path fill="none" stroke="#000000" d="M 764.8373251423759 256.209517756016 L 775 252 L 764.8373251423758 247.790482243984" stroke-miterlimit="10"/></g><g transform="translate(-358,2) scale(1,1)"><path fill="#C0C0C0" stroke="none" d="M 817 319 L 988 319 Q 998 319 998 329 L 998 349 Q 998 359 988 359 L 817 359 Q 807 359 807 349 L 807 329 Q 807 319 817 319 Z" opacity="0.2"/></g><g transform="translate(-358,2) scale(1,1)"><path fill="#ffffff" stroke="none" d="M 810 312 L 981 312 Q 991 312 991 322 L 991 342 Q 991 352 981 352 L 810 352 Q 800 352 800 342 L 800 322 Q 800 312 810 312 Z"/></g><g transform="translate(-358,2) scale(1,1)"><path fill="none" stroke="#000000" d="M 810 312 L 981 312 Q 991 312 991 322 L 991 342 Q 991 352 981 352 L 810 352 Q 800 352 800 342 L 800 322 Q 800 312 810 312 Z" stroke-miterlimit="10"/></g><g transform="translate(-358,2) scale(1,1)"><g><path fill="none" stroke="none"/><text fill="#000000" stroke="none" font-family="Arial" font-size="13px" font-style="normal" font-weight="bold" text-decoration="none" x="840.227783203125" y="331.5">Select file to import</text></g></g><g transform="translate(-358,2) scale(1,1)"><path fill="#C0C0C0" stroke="none" d="M 385 319 L 605 319 Q 615 319 615 329 L 615 349 Q 615 359 605 359 L 385 359 Q 375 359 375 349 L 375 329 Q 375 319 385 319 Z" opacity="0.2"/></g><g transform="translate(-358,2) scale(1,1)"><path fill="#ffffff" stroke="none" d="M 378 312 L 598 312 Q 608 312 608 322 L 608 342 Q 608 352 598 352 L 378 352 Q 368 352 368 342 L 368 322 Q 368 312 378 312 Z"/></g><g transform="translate(-358,2) scale(1,1)"><path fill="none" stroke="#000000" d="M 378 312 L 598 312 Q 608 312 608 322 L 608 342 Q 608 352 598 352 L 378 352 Q 368 352 368 342 L 368 322 Q 368 312 378 312 Z" stroke-miterlimit="10"/></g><g transform="translate(-358,2) scale(1,1)"><g><path fill="none" stroke="none"/><text fill="#000000" stroke="none" font-family="Arial" font-size="13px" font-style="normal" font-weight="bold" text-decoration="none" x="394.629150390625" y="331.5">Manually fill in voucher's content</text></g></g><g transform="translate(-358,2) scale(1,1)"><path fill="none" stroke="#000000" d="M 489 272 L 489 312" stroke-miterlimit="10"/></g><g transform="translate(-358,2) scale(1,1)"><path fill="none" stroke="#000000" d="M 484.790482243984 301.83732514237585 L 489 312 L 493.209517756016 301.83732514237585" stroke-miterlimit="10"/></g><g transform="translate(-358,2) scale(1,1)"><path fill="none" stroke="#000000" d="M 895 272 L 895 312" stroke-miterlimit="10"/></g><g transform="translate(-358,2) scale(1,1)"><path fill="none" stroke="#000000" d="M 890.790482243984 301.83732514237585 L 895 312 L 899.209517756016 301.83732514237585" stroke-miterlimit="10"/></g><g transform="translate(-358,2) scale(1,1)"><path fill="none" stroke="#000000" d="M 688 472 L 688 520" stroke-miterlimit="10"/></g><g transform="translate(-358,2) scale(1,1)"><path fill="none" stroke="#000000" d="M 683.790482243984 509.83732514237585 L 688 520 L 692.209517756016 509.83732514237585" stroke-miterlimit="10"/></g><g transform="translate(-358,2) scale(1,1)"><path fill="none" stroke="#000000" d="M 896 352 L 896 452 L 791 452" stroke-miterlimit="10"/></g><g transform="translate(-358,2) scale(1,1)"><path fill="none" stroke="#000000" d="M 801.1626748576241 447.790482243984 L 791 452 L 801.1626748576241 456.209517756016" stroke-miterlimit="10"/></g><g transform="translate(-358,2) scale(1,1)"><path fill="none" stroke="#000000" d="M 488 352 L 488 452 L 584 452" stroke-miterlimit="10"/></g><g transform="translate(-358,2) scale(1,1)"><path fill="none" stroke="#000000" d="M 573.8373251423759 456.209517756016 L 584 452 L 573.8373251423758 447.790482243984" stroke-miterlimit="10"/></g></g></svg>