<svg version="1.1" xmlns="http://www.w3.org/2000/svg" xmlns:xlink="http://www.w3.org/1999/xlink" width="1012" height="591"><defs></defs><g><g transform="translate(10,5) scale(1,1)"><path fill="none" stroke="#000000" d="M 0 5 L 992 5 L 992 576 L 0 576 L 0 5" stroke-miterlimit="10"></path></g><g transform="translate(10,5) scale(1,1)"><path fill="#ffffff" stroke="none" d="M 0 5 L 0 27 L 189 27 L 200 16 L 200 5 L 0 5"></path></g><g transform="translate(10,5) scale(1,1)"><path fill="none" stroke="#000000" d="M 0 5 L 0 27 L 189 27 L 200 16 L 200 5 L 0 5 L 0 5" stroke-miterlimit="10"></path></g><g transform="translate(10,5) scale(1,1)"><g><path fill="none" stroke="none"></path><text fill="#000000" stroke="none" font-family="Arial" font-size="13px" font-style="normal" font-weight="normal" text-decoration="none" x="71" y="22.5">SequenceDiagram1</text></g></g><g transform="translate(10,5) scale(1,1)"><g><path fill="none" stroke="none"></path><text fill="#000000" stroke="none" font-family="Arial" font-size="13px" font-style="normal" font-weight="bold" text-decoration="none" x="5" y="22.5">interaction</text></g></g><g transform="translate(10,5) scale(1,1)"><rect fill="#C0C0C0" stroke="none" x="55" y="47" width="151" height="39" opacity="0.2"></rect></g><g transform="translate(10,5) scale(1,1)"><rect fill="#ffffff" stroke="none" x="48" y="40" width="151" height="39"></rect></g><g transform="translate(10,5) scale(1,1)"><path fill="none" stroke="#000000" d="M 48 40 L 199 40 L 199 79 L 48 79 L 48 40 Z Z" stroke-miterlimit="10"></path></g><g transform="translate(10,5) scale(1,1)"><g><path fill="none" stroke="none"></path><text fill="#000000" stroke="none" font-family="Arial" font-size="13px" font-style="normal" font-weight="bold" text-decoration="none" x="110" y="59.5">User</text></g></g><g transform="translate(10,5) scale(1,1)"><path fill="none" stroke="#000000" d="M 124.5 80 L 124.5 456" stroke-miterlimit="10" stroke-dasharray="3"></path></g><g transform="translate(10,5) scale(1,1)"><rect fill="#C0C0C0" stroke="none" x="231" y="47" width="199" height="39" opacity="0.2"></rect></g><g transform="translate(10,5) scale(1,1)"><rect fill="#ffffff" stroke="none" x="224" y="40" width="199" height="39"></rect></g><g transform="translate(10,5) scale(1,1)"><path fill="none" stroke="#000000" d="M 224 40 L 423 40 L 423 79 L 224 79 L 224 40 Z Z" stroke-miterlimit="10"></path></g><g transform="translate(10,5) scale(1,1)"><g><path fill="none" stroke="none"></path><text fill="#000000" stroke="none" font-family="Arial" font-size="13px" font-style="normal" font-weight="bold" text-decoration="none" x="255" y="59.5">UserCompanyController</text></g></g><g transform="translate(10,5) scale(1,1)"><path fill="none" stroke="#000000" d="M 324.5 80 L 324.5 464" stroke-miterlimit="10" stroke-dasharray="3"></path></g><g transform="translate(10,5) scale(1,1)"><rect fill="#C0C0C0" stroke="none" x="543" y="47" width="171" height="39" opacity="0.2"></rect></g><g transform="translate(10,5) scale(1,1)"><rect fill="#ffffff" stroke="none" x="536" y="40" width="171" height="39"></rect></g><g transform="translate(10,5) scale(1,1)"><path fill="none" stroke="#000000" d="M 536 40 L 707 40 L 707 79 L 536 79 L 536 40 Z Z" stroke-miterlimit="10"></path></g><g transform="translate(10,5) scale(1,1)"><g><path fill="none" stroke="none"></path><text fill="#000000" stroke="none" font-family="Arial" font-size="13px" font-style="normal" font-weight="bold" text-decoration="none" x="553.5" y="59.5">CompanySurveyService</text></g></g><g transform="translate(10,5) scale(1,1)"><path fill="none" stroke="#000000" d="M 622.5 80 L 622.5 464" stroke-miterlimit="10" stroke-dasharray="3"></path></g><g transform="translate(10,5) scale(1,1)"><rect fill="#C0C0C0" stroke="none" x="767" y="47" width="160" height="39" opacity="0.2"></rect></g><g transform="translate(10,5) scale(1,1)"><rect fill="#ffffff" stroke="none" x="760" y="40" width="160" height="39"></rect></g><g transform="translate(10,5) scale(1,1)"><path fill="none" stroke="#000000" d="M 760 40 L 920 40 L 920 79 L 760 79 L 760 40 Z Z" stroke-miterlimit="10"></path></g><g transform="translate(10,5) scale(1,1)"><g><path fill="none" stroke="none"></path><text fill="#000000" stroke="none" font-family="Arial" font-size="13px" font-style="normal" font-weight="bold" text-decoration="none" x="781.5" y="59.5">CompanySurveyDao</text></g></g><g transform="translate(10,5) scale(1,1)"><path fill="none" stroke="#000000" d="M 841.5 80 L 841.5 464" stroke-miterlimit="10" stroke-dasharray="3"></path></g><g transform="translate(10,5) scale(1,1)"><path fill="none" stroke="#000000" d="M 124 129 L 317 129" stroke-miterlimit="10"></path></g><g transform="translate(10,5) scale(1,1)"><path fill="#000000" stroke="none" d="M 306.83732514237585 133.209517756016 L 317 129 L 306.83732514237585 124.79048224398402"></path></g><g transform="translate(10,5) scale(1,1)"><path fill="none" stroke="#000000" d="M 306.83732514237585 133.209517756016 L 317 129 L 306.83732514237585 124.79048224398402 L 306.83732514237585 133.209517756016" stroke-miterlimit="10"></path></g><g transform="translate(10,5) scale(1,1)"><g><path fill="none" stroke="none"></path><text fill="#000000" stroke="none" font-family="Arial" font-size="13px" font-style="normal" font-weight="normal" text-decoration="none" x="158.5" y="125.5">1 : GET /surveys/add</text></g></g><g transform="translate(10,5) scale(1,1)"><rect fill="#ffffff" stroke="none" x="317" y="129" width="13" height="28"></rect></g><g transform="translate(10,5) scale(1,1)"><path fill="none" stroke="#000000" d="M 317 129 L 330 129 L 330 157 L 317 157 L 317 129 Z Z" stroke-miterlimit="10"></path></g><g transform="translate(10,5) scale(1,1)"><path fill="none" stroke="#000000" d="M 317 152 L 124 152" stroke-miterlimit="10" stroke-dasharray="3"></path></g><g transform="translate(10,5) scale(1,1)"><path fill="none" stroke="#000000" d="M 134.16267485762415 147.790482243984 L 124 152 L 134.16267485762415 156.209517756016" stroke-miterlimit="10"></path></g><g transform="translate(10,5) scale(1,1)"><g><path fill="none" stroke="none"></path><text fill="#000000" stroke="none" font-family="Arial" font-size="13px" font-style="normal" font-weight="normal" text-decoration="none" x="155.5" y="168.5">2 : Create survey view</text></g></g><g transform="translate(10,5) scale(1,1)"><path fill="none" stroke="#000000" d="M 124 224 L 317 224" stroke-miterlimit="10"></path></g><g transform="translate(10,5) scale(1,1)"><path fill="#000000" stroke="none" d="M 306.83732514237585 228.209517756016 L 317 224 L 306.83732514237585 219.790482243984"></path></g><g transform="translate(10,5) scale(1,1)"><path fill="none" stroke="#000000" d="M 306.83732514237585 228.209517756016 L 317 224 L 306.83732514237585 219.790482243984 L 306.83732514237585 228.209517756016" stroke-miterlimit="10"></path></g><g transform="translate(10,5) scale(1,1)"><g><path fill="none" stroke="none"></path><text fill="#000000" stroke="none" font-family="Arial" font-size="13px" font-style="normal" font-weight="normal" text-decoration="none" x="171.5" y="220.5">3 : POST  JSON</text></g></g><g transform="translate(10,5) scale(1,1)"><rect fill="#ffffff" stroke="none" x="317" y="224" width="13" height="28"></rect></g><g transform="translate(10,5) scale(1,1)"><path fill="none" stroke="#000000" d="M 317 224 L 330 224 L 330 252 L 317 252 L 317 224 Z Z" stroke-miterlimit="10"></path></g><g transform="translate(10,5) scale(1,1)"><path fill="none" stroke="#000000" d="M 330 240 L 360 240 L 360 260 L 330 260" stroke-miterlimit="10"></path></g><g transform="translate(10,5) scale(1,1)"><path fill="#000000" stroke="none" d="M 340.16267485762415 255.790482243984 L 330 260 L 340.16267485762415 264.209517756016"></path></g><g transform="translate(10,5) scale(1,1)"><path fill="none" stroke="#000000" d="M 340.16267485762415 255.790482243984 L 330 260 L 340.16267485762415 264.209517756016 L 340.16267485762415 255.790482243984" stroke-miterlimit="10"></path></g><g transform="translate(10,5) scale(1,1)"><g><path fill="none" stroke="none"></path><text fill="#000000" stroke="none" font-family="Arial" font-size="13px" font-style="normal" font-weight="normal" text-decoration="none" x="365.5" y="255.5">4 :   validate SurveyDto</text></g></g><g transform="translate(10,5) scale(1,1)"><rect fill="#ffffff" stroke="none" x="317" y="260" width="13" height="100"></rect></g><g transform="translate(10,5) scale(1,1)"><path fill="none" stroke="#000000" d="M 317 260 L 330 260 L 330 360 L 317 360 L 317 260 Z Z" stroke-miterlimit="10"></path></g><g transform="translate(10,5) scale(1,1)"><path fill="none" stroke="#000000" d="M 330 280 L 615 280" stroke-miterlimit="10"></path></g><g transform="translate(10,5) scale(1,1)"><path fill="#000000" stroke="none" d="M 604.8373251423759 284.209517756016 L 615 280 L 604.8373251423758 275.790482243984"></path></g><g transform="translate(10,5) scale(1,1)"><path fill="none" stroke="#000000" d="M 604.8373251423759 284.209517756016 L 615 280 L 604.8373251423758 275.790482243984 L 604.8373251423759 284.209517756016" stroke-miterlimit="10"></path></g><g transform="translate(10,5) scale(1,1)"><g><path fill="none" stroke="none"></path><text fill="#000000" stroke="none" font-family="Arial" font-size="13px" font-style="normal" font-weight="normal" text-decoration="none" x="355.5" y="276.5">5 : addSurvey(surveyDto, userCompany)</text></g></g><g transform="translate(10,5) scale(1,1)"><rect fill="#ffffff" stroke="none" x="615" y="280" width="13" height="28"></rect></g><g transform="translate(10,5) scale(1,1)"><path fill="none" stroke="#000000" d="M 615 280 L 628 280 L 628 308 L 615 308 L 615 280 Z Z" stroke-miterlimit="10"></path></g><g transform="translate(10,5) scale(1,1)"><path fill="none" stroke="#000000" d="M 628 298 L 834 298" stroke-miterlimit="10"></path></g><g transform="translate(10,5) scale(1,1)"><path fill="#000000" stroke="none" d="M 823.8373251423759 302.209517756016 L 834 298 L 823.8373251423758 293.790482243984"></path></g><g transform="translate(10,5) scale(1,1)"><path fill="none" stroke="#000000" d="M 823.8373251423759 302.209517756016 L 834 298 L 823.8373251423758 293.790482243984 L 823.8373251423759 302.209517756016" stroke-miterlimit="10"></path></g><g transform="translate(10,5) scale(1,1)"><g><path fill="none" stroke="none"></path><text fill="#000000" stroke="none" font-family="Arial" font-size="13px" font-style="normal" font-weight="normal" text-decoration="none" x="668.5" y="294.5">6 : addSurvey(survey)</text></g></g><g transform="translate(10,5) scale(1,1)"><rect fill="#ffffff" stroke="none" x="834" y="298" width="13" height="28"></rect></g><g transform="translate(10,5) scale(1,1)"><path fill="none" stroke="#000000" d="M 834 298 L 847 298 L 847 326 L 834 326 L 834 298 Z Z" stroke-miterlimit="10"></path></g><g transform="translate(10,5) scale(1,1)"><path fill="none" stroke="#000000" d="M 317 337 L 124 337" stroke-miterlimit="10" stroke-dasharray="3"></path></g><g transform="translate(10,5) scale(1,1)"><path fill="none" stroke="#000000" d="M 134.16267485762415 332.790482243984 L 124 337 L 134.16267485762415 341.209517756016" stroke-miterlimit="10"></path></g><g transform="translate(10,5) scale(1,1)"><g><path fill="none" stroke="none"></path><text fill="#000000" stroke="none" font-family="Arial" font-size="13px" font-style="normal" font-weight="normal" text-decoration="none" x="158.5" y="353.5">7 : "OK", status: 201</text></g></g></g></svg>