<svg version="1.1" xmlns="http://www.w3.org/2000/svg" xmlns:xlink="http://www.w3.org/1999/xlink" width="1011" height="773"><defs/><g><g transform="translate(-126,-38) scale(1,1)"><rect fill="#C0C0C0" stroke="none" x="647" y="55" width="483.36669921875" height="330" opacity="0.2"/></g><g transform="translate(-126,-38) scale(1,1)"><rect fill="#ffffff" stroke="none" x="640" y="48" width="483.36669921875" height="330"/></g><g transform="translate(-126,-38) scale(1,1)"><path fill="none" stroke="#000000" d="M 640 48 L 1123.36669921875 48 L 1123.36669921875 378 L 640 378 L 640 48 Z Z" stroke-miterlimit="10"/></g><g transform="translate(-126,-38) scale(1,1)"><path fill="none" stroke="#000000" d="M 640 86 L 1123.36669921875 86" stroke-miterlimit="10"/></g><g transform="translate(-126,-38) scale(1,1)"><g><path fill="none" stroke="none"/><text fill="#000000" stroke="none" font-family="Arial" font-size="13px" font-style="normal" font-weight="normal" text-decoration="none" x="849.52294921875" y="65.5">«interface»</text></g></g><g transform="translate(-126,-38) scale(1,1)"><g><path fill="none" stroke="none"/><text fill="#000000" stroke="none" font-family="Arial" font-size="13px" font-style="normal" font-weight="bold" text-decoration="none" x="821.710693359375" y="80.5">CompanySurveyDao</text></g></g><g transform="translate(-126,-38) scale(1,1)"><g><path fill="none" stroke="none"/><text fill="#000000" stroke="none" font-family="Arial" font-size="13px" font-style="normal" font-weight="normal" text-decoration="none" x="645" y="103.5">+Company getCompanyById(id: int)</text></g></g><g transform="translate(-126,-38) scale(1,1)"><g><path fill="none" stroke="none"/><text fill="#000000" stroke="none" font-family="Arial" font-size="13px" font-style="normal" font-weight="normal" text-decoration="none" x="645" y="118.5">+Company getCompanyWithSurveys(id: int)</text></g></g><g transform="translate(-126,-38) scale(1,1)"><g><path fill="none" stroke="none"/><text fill="#000000" stroke="none" font-family="Arial" font-size="13px" font-style="normal" font-weight="normal" text-decoration="none" x="645" y="133.5">+Survey getSurveyById(id: int)</text></g></g><g transform="translate(-126,-38) scale(1,1)"><g><path fill="none" stroke="none"/><text fill="#000000" stroke="none" font-family="Arial" font-size="13px" font-style="normal" font-weight="normal" text-decoration="none" x="645" y="148.5">+Survey getSurveyWithQuestions(id: int)</text></g></g><g transform="translate(-126,-38) scale(1,1)"><g><path fill="none" stroke="none"/><text fill="#000000" stroke="none" font-family="Arial" font-size="13px" font-style="normal" font-weight="normal" text-decoration="none" x="645" y="163.5">+AnsweredSurvey getAnsweredSurveyById(id: int)</text></g></g><g transform="translate(-126,-38) scale(1,1)"><g><path fill="none" stroke="none"/><text fill="#000000" stroke="none" font-family="Arial" font-size="13px" font-style="normal" font-weight="normal" text-decoration="none" x="645" y="178.5">+AnsweredSurvey getAnsweredSurveyWithAnswers(id: int)</text></g></g><g transform="translate(-126,-38) scale(1,1)"><g><path fill="none" stroke="none"/><text fill="#000000" stroke="none" font-family="Arial" font-size="13px" font-style="normal" font-weight="normal" text-decoration="none" x="645" y="193.5">+Collection&lt;AnsweredSurvey&gt; getCompanysAllAnsweredSurveys(companyId: int)</text></g></g><g transform="translate(-126,-38) scale(1,1)"><g><path fill="none" stroke="none"/><text fill="#000000" stroke="none" font-family="Arial" font-size="13px" font-style="normal" font-weight="normal" text-decoration="none" x="645" y="208.5">+Collection&lt;AnsweredSurvey&gt; getAllResultsOfSurvey(surveyId: int)</text></g></g><g transform="translate(-126,-38) scale(1,1)"><g><path fill="none" stroke="none"/><text fill="#000000" stroke="none" font-family="Arial" font-size="13px" font-style="normal" font-weight="normal" text-decoration="none" x="645" y="223.5">+Collection&lt;Survey&gt; getCompanysAllSurveys(companyId: int)</text></g></g><g transform="translate(-126,-38) scale(1,1)"><g><path fill="none" stroke="none"/><text fill="#000000" stroke="none" font-family="Arial" font-size="13px" font-style="normal" font-weight="normal" text-decoration="none" x="645" y="238.5">+Collection&lt;Survey&gt; getAvailableSurveys(companyId: int)</text></g></g><g transform="translate(-126,-38) scale(1,1)"><g><path fill="none" stroke="none"/><text fill="#000000" stroke="none" font-family="Arial" font-size="13px" font-style="normal" font-weight="normal" text-decoration="none" x="645" y="253.5">+void addAnsweredSurvey(answeredSurvey: AnsweredSurvey)</text></g></g><g transform="translate(-126,-38) scale(1,1)"><g><path fill="none" stroke="none"/><text fill="#000000" stroke="none" font-family="Arial" font-size="13px" font-style="normal" font-weight="normal" text-decoration="none" x="645" y="268.5">+void deleteAnsweredSurvey(answeredSurvey: AnsweredSurvey)</text></g></g><g transform="translate(-126,-38) scale(1,1)"><g><path fill="none" stroke="none"/><text fill="#000000" stroke="none" font-family="Arial" font-size="13px" font-style="normal" font-weight="normal" text-decoration="none" x="645" y="283.5">+void updateAnsweredSurvey(answeredSurvey: AnsweredSurvey)</text></g></g><g transform="translate(-126,-38) scale(1,1)"><g><path fill="none" stroke="none"/><text fill="#000000" stroke="none" font-family="Arial" font-size="13px" font-style="normal" font-weight="normal" text-decoration="none" x="645" y="298.5">+void addSurvey(survey: Survey)</text></g></g><g transform="translate(-126,-38) scale(1,1)"><g><path fill="none" stroke="none"/><text fill="#000000" stroke="none" font-family="Arial" font-size="13px" font-style="normal" font-weight="normal" text-decoration="none" x="645" y="313.5">+ void updateSurvey(survey: Survey)</text></g></g><g transform="translate(-126,-38) scale(1,1)"><g><path fill="none" stroke="none"/><text fill="#000000" stroke="none" font-family="Arial" font-size="13px" font-style="normal" font-weight="normal" text-decoration="none" x="645" y="328.5">+void deleteSurvey(survey: Survey)</text></g></g><g transform="translate(-126,-38) scale(1,1)"><g><path fill="none" stroke="none"/><text fill="#000000" stroke="none" font-family="Arial" font-size="13px" font-style="normal" font-weight="normal" text-decoration="none" x="645" y="343.5">+void updateCompany(company : Company )</text></g></g><g transform="translate(-126,-38) scale(1,1)"><g><path fill="none" stroke="none"/><text fill="#000000" stroke="none" font-family="Arial" font-size="13px" font-style="normal" font-weight="normal" text-decoration="none" x="645" y="358.5">+void deleteCompany(company : Company )</text></g></g><g transform="translate(-126,-38) scale(1,1)"><g><path fill="none" stroke="none"/><text fill="#000000" stroke="none" font-family="Arial" font-size="13px" font-style="normal" font-weight="normal" text-decoration="none" x="645" y="373.5">+void createCompany(company : Company)</text></g></g><g transform="translate(-126,-38) scale(1,1)"><rect fill="#C0C0C0" stroke="none" x="143" y="455" width="471" height="195" opacity="0.2"/></g><g transform="translate(-126,-38) scale(1,1)"><rect fill="#ffffff" stroke="none" x="136" y="448" width="471" height="195"/></g><g transform="translate(-126,-38) scale(1,1)"><path fill="none" stroke="#000000" d="M 136 448 L 607 448 L 607 643 L 136 643 L 136 448 Z Z" stroke-miterlimit="10"/></g><g transform="translate(-126,-38) scale(1,1)"><path fill="none" stroke="#000000" d="M 136 486 L 607 486" stroke-miterlimit="10"/></g><g transform="translate(-126,-38) scale(1,1)"><g><path fill="none" stroke="none"/><text fill="#000000" stroke="none" font-family="Arial" font-size="13px" font-style="normal" font-weight="normal" text-decoration="none" x="339.339599609375" y="465.5">«interface»</text></g></g><g transform="translate(-126,-38) scale(1,1)"><g><path fill="none" stroke="none"/><text fill="#000000" stroke="none" font-family="Arial" font-size="13px" font-style="normal" font-weight="bold" text-decoration="none" x="341.510498046875" y="480.5">TokenDao</text></g></g><g transform="translate(-126,-38) scale(1,1)"><g><path fill="none" stroke="none"/><text fill="#000000" stroke="none" font-family="Arial" font-size="13px" font-style="normal" font-weight="normal" text-decoration="none" x="141" y="503.5">+PasswordResetToken getPasswordResetTokenByToken(resetToken: String)</text></g></g><g transform="translate(-126,-38) scale(1,1)"><g><path fill="none" stroke="none"/><text fill="#000000" stroke="none" font-family="Arial" font-size="13px" font-style="normal" font-weight="normal" text-decoration="none" x="141" y="518.5">+PasswordResetToken getPasswordResetTokenById(tokenId: int)</text></g></g><g transform="translate(-126,-38) scale(1,1)"><g><path fill="none" stroke="none"/><text fill="#000000" stroke="none" font-family="Arial" font-size="13px" font-style="normal" font-weight="normal" text-decoration="none" x="141" y="533.5">+ void deleteResetToken(passwordResetToken: PasswordResetToken)</text></g></g><g transform="translate(-126,-38) scale(1,1)"><g><path fill="none" stroke="none"/><text fill="#000000" stroke="none" font-family="Arial" font-size="13px" font-style="normal" font-weight="normal" text-decoration="none" x="141" y="548.5">+void addPasswordResetToken(passwordResetToken : PasswordResetToken)</text></g></g><g transform="translate(-126,-38) scale(1,1)"><g><path fill="none" stroke="none"/><text fill="#000000" stroke="none" font-family="Arial" font-size="13px" font-style="normal" font-weight="normal" text-decoration="none" x="141" y="563.5">+VerificationToken getVerificationTokenByToken(verificationToken: String)</text></g></g><g transform="translate(-126,-38) scale(1,1)"><g><path fill="none" stroke="none"/><text fill="#000000" stroke="none" font-family="Arial" font-size="13px" font-style="normal" font-weight="normal" text-decoration="none" x="141" y="578.5">+VerificationToken getVerificationTokenById(tokenId: int)</text></g></g><g transform="translate(-126,-38) scale(1,1)"><g><path fill="none" stroke="none"/><text fill="#000000" stroke="none" font-family="Arial" font-size="13px" font-style="normal" font-weight="normal" text-decoration="none" x="141" y="593.5">+void deletVerificationToken(verificationToken : VerificationToken )</text></g></g><g transform="translate(-126,-38) scale(1,1)"><g><path fill="none" stroke="none"/><text fill="#000000" stroke="none" font-family="Arial" font-size="13px" font-style="normal" font-weight="normal" text-decoration="none" x="141" y="608.5">+void addVerificationToken(verificationToken : VerificationToken)</text></g></g><g transform="translate(-126,-38) scale(1,1)"><g><path fill="none" stroke="none"/><text fill="#000000" stroke="none" font-family="Arial" font-size="13px" font-style="normal" font-weight="normal" text-decoration="none" x="141" y="623.5">+void deleteUsersResetTokens(userName: String)</text></g></g><g transform="translate(-126,-38) scale(1,1)"><g><path fill="none" stroke="none"/><text fill="#000000" stroke="none" font-family="Arial" font-size="13px" font-style="normal" font-weight="normal" text-decoration="none" x="141" y="638.5">+void deleteUsersVerificationTokens(userName: String)</text></g></g><g transform="translate(-126,-38) scale(1,1)"><rect fill="#C0C0C0" stroke="none" x="687" y="535" width="379.296875" height="168" opacity="0.2"/></g><g transform="translate(-126,-38) scale(1,1)"><rect fill="#ffffff" stroke="none" x="680" y="528" width="379.296875" height="168"/></g><g transform="translate(-126,-38) scale(1,1)"><path fill="none" stroke="#000000" d="M 680 528 L 1059.296875 528 L 1059.296875 696 L 680 696 L 680 528 Z Z" stroke-miterlimit="10"/></g><g transform="translate(-126,-38) scale(1,1)"><path fill="none" stroke="#000000" d="M 680 566 L 1059.296875 566" stroke-miterlimit="10"/></g><g transform="translate(-126,-38) scale(1,1)"><g><path fill="none" stroke="none"/><text fill="#000000" stroke="none" font-family="Arial" font-size="13px" font-style="normal" font-weight="normal" text-decoration="none" x="837.488037109375" y="545.5">«interface»</text></g></g><g transform="translate(-126,-38) scale(1,1)"><g><path fill="none" stroke="none"/><text fill="#000000" stroke="none" font-family="Arial" font-size="13px" font-style="normal" font-weight="bold" text-decoration="none" x="816.18212890625" y="560.5">UserCompanyDao</text></g></g><g transform="translate(-126,-38) scale(1,1)"><g><path fill="none" stroke="none"/><text fill="#000000" stroke="none" font-family="Arial" font-size="13px" font-style="normal" font-weight="normal" text-decoration="none" x="685" y="583.5">+UserCompany getUserByUserName(userName: String)</text></g></g><g transform="translate(-126,-38) scale(1,1)"><g><path fill="none" stroke="none"/><text fill="#000000" stroke="none" font-family="Arial" font-size="13px" font-style="normal" font-weight="normal" text-decoration="none" x="685" y="598.5">+void addUserCompany(userCompany: UserCompany)</text></g></g><g transform="translate(-126,-38) scale(1,1)"><g><path fill="none" stroke="none"/><text fill="#000000" stroke="none" font-family="Arial" font-size="13px" font-style="normal" font-weight="normal" text-decoration="none" x="685" y="613.5">+void editUser(userCompany: UserCompany)</text></g></g><g transform="translate(-126,-38) scale(1,1)"><g><path fill="none" stroke="none"/><text fill="#000000" stroke="none" font-family="Arial" font-size="13px" font-style="normal" font-weight="normal" text-decoration="none" x="685" y="628.5">+UserCompany getUserCompany(userId: int)</text></g></g><g transform="translate(-126,-38) scale(1,1)"><g><path fill="none" stroke="none"/><text fill="#000000" stroke="none" font-family="Arial" font-size="13px" font-style="normal" font-weight="normal" text-decoration="none" x="685" y="643.5">+ boolean ifEmailIsUsed(eMail: String)</text></g></g><g transform="translate(-126,-38) scale(1,1)"><g><path fill="none" stroke="none"/><text fill="#000000" stroke="none" font-family="Arial" font-size="13px" font-style="normal" font-weight="normal" text-decoration="none" x="685" y="658.5">+ boolean ifCompanyNameIsUsed(companyName: String)</text></g></g><g transform="translate(-126,-38) scale(1,1)"><g><path fill="none" stroke="none"/><text fill="#000000" stroke="none" font-family="Arial" font-size="13px" font-style="normal" font-weight="normal" text-decoration="none" x="685" y="673.5">+void deleteUserCompany(userCompany: UserCompan)</text></g></g><g transform="translate(-126,-38) scale(1,1)"><g><path fill="none" stroke="none"/><text fill="#000000" stroke="none" font-family="Arial" font-size="13px" font-style="normal" font-weight="normal" text-decoration="none" x="685" y="688.5">+UserCompany getUserCompanyByCompanyId(companyId: int)</text></g></g><g transform="translate(-126,-38) scale(1,1)"><rect fill="#C0C0C0" stroke="none" x="143" y="55" width="447.24853515625" height="250" opacity="0.2"/></g><g transform="translate(-126,-38) scale(1,1)"><rect fill="#ffffff" stroke="none" x="136" y="48" width="447.24853515625" height="250"/></g><g transform="translate(-126,-38) scale(1,1)"><path fill="none" stroke="#000000" d="M 136 48 L 583.24853515625 48 L 583.24853515625 298 L 136 298 L 136 48 Z Z" stroke-miterlimit="10"/></g><g transform="translate(-126,-38) scale(1,1)"><path fill="none" stroke="#000000" d="M 136 86 L 583.24853515625 86" stroke-miterlimit="10"/></g><g transform="translate(-126,-38) scale(1,1)"><g><path fill="none" stroke="none"/><text fill="#000000" stroke="none" font-family="Arial" font-size="13px" font-style="normal" font-weight="normal" text-decoration="none" x="327.4638671875" y="65.5">«interface»</text></g></g><g transform="translate(-126,-38) scale(1,1)"><g><path fill="none" stroke="none"/><text fill="#000000" stroke="none" font-family="Arial" font-size="13px" font-style="normal" font-weight="bold" text-decoration="none" x="321.684326171875" y="80.5">VoucherDao </text></g></g><g transform="translate(-126,-38) scale(1,1)"><g><path fill="none" stroke="none"/><text fill="#000000" stroke="none" font-family="Arial" font-size="13px" font-style="normal" font-weight="normal" text-decoration="none" x="141" y="103.5">+Collection&lt;Voucher&gt; getAllVouchersByCompany(company: Company)</text></g></g><g transform="translate(-126,-38) scale(1,1)"><g><path fill="none" stroke="none"/><text fill="#000000" stroke="none" font-family="Arial" font-size="13px" font-style="normal" font-weight="normal" text-decoration="none" x="141" y="118.5">+Voucher getVoucherById(voucherId: int)</text></g></g><g transform="translate(-126,-38) scale(1,1)"><g><path fill="none" stroke="none"/><text fill="#000000" stroke="none" font-family="Arial" font-size="13px" font-style="normal" font-weight="normal" text-decoration="none" x="141" y="133.5">+void addVoucher(voucher: Voucher)</text></g></g><g transform="translate(-126,-38) scale(1,1)"><g><path fill="none" stroke="none"/><text fill="#000000" stroke="none" font-family="Arial" font-size="13px" font-style="normal" font-weight="normal" text-decoration="none" x="141" y="148.5">+void updateVoucher(voucher: Voucher)</text></g></g><g transform="translate(-126,-38) scale(1,1)"><g><path fill="none" stroke="none"/><text fill="#000000" stroke="none" font-family="Arial" font-size="13px" font-style="normal" font-weight="normal" text-decoration="none" x="141" y="163.5">+void deleteVoucher(voucher: Voucher)</text></g></g><g transform="translate(-126,-38) scale(1,1)"><g><path fill="none" stroke="none"/><text fill="#000000" stroke="none" font-family="Arial" font-size="13px" font-style="normal" font-weight="normal" text-decoration="none" x="141" y="178.5">+VoucherCode getVoucherCode(voucherCodeId: VoucherCode)</text></g></g><g transform="translate(-126,-38) scale(1,1)"><g><path fill="none" stroke="none"/><text fill="#000000" stroke="none" font-family="Arial" font-size="13px" font-style="normal" font-weight="normal" text-decoration="none" x="141" y="193.5">+void updateVoucherCode(voucherCode: VoucherCode)</text></g></g><g transform="translate(-126,-38) scale(1,1)"><g><path fill="none" stroke="none"/><text fill="#000000" stroke="none" font-family="Arial" font-size="13px" font-style="normal" font-weight="normal" text-decoration="none" x="141" y="208.5">+void deleteVoucherCode(voucherCode: VoucherCode)</text></g></g><g transform="translate(-126,-38) scale(1,1)"><g><path fill="none" stroke="none"/><text fill="#000000" stroke="none" font-family="Arial" font-size="13px" font-style="normal" font-weight="normal" text-decoration="none" x="141" y="223.5">+ void addVoucherCodeDate(voucherCodeDate: VoucherCodeDate)</text></g></g><g transform="translate(-126,-38) scale(1,1)"><g><path fill="none" stroke="none"/><text fill="#000000" stroke="none" font-family="Arial" font-size="13px" font-style="normal" font-weight="normal" text-decoration="none" x="141" y="238.5">+VoucherCodeDate getVoucherCodeDateById(voucherCodeDateId: int)</text></g></g><g transform="translate(-126,-38) scale(1,1)"><g><path fill="none" stroke="none"/><text fill="#000000" stroke="none" font-family="Arial" font-size="13px" font-style="normal" font-weight="normal" text-decoration="none" x="141" y="253.5">+void deleteVoucherCodeDateByCodeId(voucherCodeId: int)</text></g></g><g transform="translate(-126,-38) scale(1,1)"><g><path fill="none" stroke="none"/><text fill="#000000" stroke="none" font-family="Arial" font-size="13px" font-style="normal" font-weight="normal" text-decoration="none" x="141" y="268.5">+void unBlockAllBlockedVouchersForLongerThan(hours: int, minutes: int)</text></g></g><g transform="translate(-126,-38) scale(1,1)"><rect fill="#C0C0C0" stroke="none" x="159" y="359" width="423" height="57" opacity="0.2"/></g><g transform="translate(-126,-38) scale(1,1)"><rect fill="#ffffff" stroke="none" x="152" y="352" width="423" height="57"/></g><g transform="translate(-126,-38) scale(1,1)"><path fill="none" stroke="#000000" d="M 152 352 L 575 352 L 575 409 L 152 409 L 152 352 Z Z" stroke-miterlimit="10"/></g><g transform="translate(-126,-38) scale(1,1)"><path fill="none" stroke="#000000" d="M 152 377 L 575 377" stroke-miterlimit="10"/></g><g transform="translate(-126,-38) scale(1,1)"><path fill="none" stroke="#000000" d="M 152 400 L 575 400" stroke-miterlimit="10"/></g><g transform="translate(-126,-38) scale(1,1)"><g><path fill="none" stroke="none"/><text fill="#000000" stroke="none" font-family="Arial" font-size="13px" font-style="normal" font-weight="bold" text-decoration="none" x="315.08642578125" y="371.5">VoucherDaoImpl</text></g></g><g transform="translate(-126,-38) scale(1,1)"><g><path fill="none" stroke="none"/><text fill="#000000" stroke="none" font-family="Arial" font-size="13px" font-style="normal" font-weight="normal" text-decoration="none" x="157" y="394.5">-entityManager: EntityManager</text></g></g><g transform="translate(-126,-38) scale(1,1)"><path fill="none" stroke="#000000" d="M 357 298 L 357 352" stroke-miterlimit="10" stroke-dasharray="3"/></g><g transform="translate(-126,-38) scale(1,1)"><path fill="none" stroke="#000000" d="M 352.790482243984 341.83732514237585 L 357 352 L 361.209517756016 341.83732514237585" stroke-miterlimit="10"/></g><g transform="translate(-126,-38) scale(1,1)"><g><path fill="none" stroke="none"/><text fill="#000000" stroke="none" font-family="Arial" font-size="13px" font-style="normal" font-weight="normal" text-decoration="none" x="367.5" y="330.5">«implements»</text></g></g><g transform="translate(-126,-38) scale(1,1)"><rect fill="#C0C0C0" stroke="none" x="159" y="711" width="455" height="57" opacity="0.2"/></g><g transform="translate(-126,-38) scale(1,1)"><rect fill="#ffffff" stroke="none" x="152" y="704" width="455" height="57"/></g><g transform="translate(-126,-38) scale(1,1)"><path fill="none" stroke="#000000" d="M 152 704 L 607 704 L 607 761 L 152 761 L 152 704 Z Z" stroke-miterlimit="10"/></g><g transform="translate(-126,-38) scale(1,1)"><path fill="none" stroke="#000000" d="M 152 729 L 607 729" stroke-miterlimit="10"/></g><g transform="translate(-126,-38) scale(1,1)"><path fill="none" stroke="#000000" d="M 152 752 L 607 752" stroke-miterlimit="10"/></g><g transform="translate(-126,-38) scale(1,1)"><g><path fill="none" stroke="none"/><text fill="#000000" stroke="none" font-family="Arial" font-size="13px" font-style="normal" font-weight="bold" text-decoration="none" x="337.23095703125" y="723.5">TokenDaoImpl</text></g></g><g transform="translate(-126,-38) scale(1,1)"><g><path fill="none" stroke="none"/><text fill="#000000" stroke="none" font-family="Arial" font-size="13px" font-style="normal" font-weight="normal" text-decoration="none" x="157" y="746.5">-entityManager: EntityManager</text></g></g><g transform="translate(-126,-38) scale(1,1)"><path fill="none" stroke="#000000" d="M 371 643 L 371 704" stroke-miterlimit="10" stroke-dasharray="3"/></g><g transform="translate(-126,-38) scale(1,1)"><path fill="none" stroke="#000000" d="M 366.790482243984 693.8373251423759 L 371 704 L 375.209517756016 693.8373251423759" stroke-miterlimit="10"/></g><g transform="translate(-126,-38) scale(1,1)"><g><path fill="none" stroke="none"/><text fill="#000000" stroke="none" font-family="Arial" font-size="13px" font-style="normal" font-weight="normal" text-decoration="none" x="382.5" y="678.5">«implements»</text></g></g><g transform="translate(-126,-38) scale(1,1)"><rect fill="#C0C0C0" stroke="none" x="655" y="439" width="479" height="57" opacity="0.2"/></g><g transform="translate(-126,-38) scale(1,1)"><rect fill="#ffffff" stroke="none" x="648" y="432" width="479" height="57"/></g><g transform="translate(-126,-38) scale(1,1)"><path fill="none" stroke="#000000" d="M 648 432 L 1127 432 L 1127 489 L 648 489 L 648 432 Z Z" stroke-miterlimit="10"/></g><g transform="translate(-126,-38) scale(1,1)"><path fill="none" stroke="#000000" d="M 648 457 L 1127 457" stroke-miterlimit="10"/></g><g transform="translate(-126,-38) scale(1,1)"><path fill="none" stroke="#000000" d="M 648 480 L 1127 480" stroke-miterlimit="10"/></g><g transform="translate(-126,-38) scale(1,1)"><g><path fill="none" stroke="none"/><text fill="#000000" stroke="none" font-family="Arial" font-size="13px" font-style="normal" font-weight="bold" text-decoration="none" x="815.247802734375" y="451.5">CompanySurveyDaoImpl</text></g></g><g transform="translate(-126,-38) scale(1,1)"><g><path fill="none" stroke="none"/><text fill="#000000" stroke="none" font-family="Arial" font-size="13px" font-style="normal" font-weight="normal" text-decoration="none" x="653" y="474.5">-entityManager: EntityManager</text></g></g><g transform="translate(-126,-38) scale(1,1)"><path fill="none" stroke="#000000" d="M 885 378 L 885 432" stroke-miterlimit="10" stroke-dasharray="3"/></g><g transform="translate(-126,-38) scale(1,1)"><path fill="none" stroke="#000000" d="M 880.790482243984 421.83732514237585 L 885 432 L 889.209517756016 421.83732514237585" stroke-miterlimit="10"/></g><g transform="translate(-126,-38) scale(1,1)"><g><path fill="none" stroke="none"/><text fill="#000000" stroke="none" font-family="Arial" font-size="13px" font-style="normal" font-weight="normal" text-decoration="none" x="902.5" y="411.5">«implements»</text></g></g><g transform="translate(-126,-38) scale(1,1)"><rect fill="#C0C0C0" stroke="none" x="663" y="751" width="463" height="57" opacity="0.2"/></g><g transform="translate(-126,-38) scale(1,1)"><rect fill="#ffffff" stroke="none" x="656" y="744" width="463" height="57"/></g><g transform="translate(-126,-38) scale(1,1)"><path fill="none" stroke="#000000" d="M 656 744 L 1119 744 L 1119 801 L 656 801 L 656 744 Z Z" stroke-miterlimit="10"/></g><g transform="translate(-126,-38) scale(1,1)"><path fill="none" stroke="#000000" d="M 656 769 L 1119 769" stroke-miterlimit="10"/></g><g transform="translate(-126,-38) scale(1,1)"><path fill="none" stroke="#000000" d="M 656 792 L 1119 792" stroke-miterlimit="10"/></g><g transform="translate(-126,-38) scale(1,1)"><g><path fill="none" stroke="none"/><text fill="#000000" stroke="none" font-family="Arial" font-size="13px" font-style="normal" font-weight="bold" text-decoration="none" x="821.754150390625" y="763.5">UserCompanyDaoImpl</text></g></g><g transform="translate(-126,-38) scale(1,1)"><g><path fill="none" stroke="none"/><text fill="#000000" stroke="none" font-family="Arial" font-size="13px" font-style="normal" font-weight="normal" text-decoration="none" x="661" y="786.5">-entityManager: EntityManager</text></g></g><g transform="translate(-126,-38) scale(1,1)"><path fill="none" stroke="#000000" d="M 882 696 L 882 744" stroke-miterlimit="10" stroke-dasharray="3"/></g><g transform="translate(-126,-38) scale(1,1)"><path fill="none" stroke="#000000" d="M 877.790482243984 733.8373251423759 L 882 744 L 886.209517756016 733.8373251423759" stroke-miterlimit="10"/></g><g transform="translate(-126,-38) scale(1,1)"><g><path fill="none" stroke="none"/><text fill="#000000" stroke="none" font-family="Arial" font-size="13px" font-style="normal" font-weight="normal" text-decoration="none" x="886.5" y="724.5">«implements»</text></g></g></g></svg>