<svg version="1.1" xmlns="http://www.w3.org/2000/svg" xmlns:xlink="http://www.w3.org/1999/xlink" width="1029" height="883"><defs/><g><g transform="translate(-14,-1326) scale(1,1)"><rect fill="#C0C0C0" stroke="none" x="423" y="1503" width="177.7080078125" height="117" opacity="0.2"/></g><g transform="translate(-14,-1326) scale(1,1)"><rect fill="#ffffff" stroke="none" x="416" y="1496" width="177.7080078125" height="117"/></g><g transform="translate(-14,-1326) scale(1,1)"><path fill="none" stroke="#000000" d="M 416 1496 L 593.7080078125 1496 L 593.7080078125 1613 L 416 1613 L 416 1496 Z Z" stroke-miterlimit="10"/></g><g transform="translate(-14,-1326) scale(1,1)"><path fill="none" stroke="#000000" d="M 416 1521 L 593.7080078125 1521" stroke-miterlimit="10"/></g><g transform="translate(-14,-1326) scale(1,1)"><path fill="none" stroke="#000000" d="M 416 1604 L 593.7080078125 1604" stroke-miterlimit="10"/></g><g transform="translate(-14,-1326) scale(1,1)"><g><path fill="none" stroke="none"/><text fill="#000000" stroke="none" font-family="Arial" font-size="13px" font-style="normal" font-weight="bold" text-decoration="none" x="471.989013671875" y="1515.5">COMPANY</text></g></g><g transform="translate(-14,-1326) scale(1,1)"><g><path fill="none" stroke="none"/><text fill="#000000" stroke="none" font-family="Arial" font-size="13px" font-style="normal" font-weight="normal" text-decoration="none" x="421" y="1538.5">Id: int (PK)</text></g></g><g transform="translate(-14,-1326) scale(1,1)"><g><path fill="none" stroke="none"/><text fill="#000000" stroke="none" font-family="Arial" font-size="13px" font-style="normal" font-weight="normal" text-decoration="none" x="421" y="1553.5">addressDetails: varchar(80)</text></g></g><g transform="translate(-14,-1326) scale(1,1)"><g><path fill="none" stroke="none"/><text fill="#000000" stroke="none" font-family="Arial" font-size="13px" font-style="normal" font-weight="normal" text-decoration="none" x="421" y="1568.5">city: varchar(30)</text></g></g><g transform="translate(-14,-1326) scale(1,1)"><g><path fill="none" stroke="none"/><text fill="#000000" stroke="none" font-family="Arial" font-size="13px" font-style="normal" font-weight="normal" text-decoration="none" x="421" y="1583.5">postalCode: varchar(10)</text></g></g><g transform="translate(-14,-1326) scale(1,1)"><g><path fill="none" stroke="none"/><text fill="#000000" stroke="none" font-family="Arial" font-size="13px" font-style="normal" font-weight="normal" text-decoration="none" x="421" y="1598.5">companyName: varchar(50)</text></g></g><g transform="translate(-14,-1326) scale(1,1)"><rect fill="#C0C0C0" stroke="none" x="383" y="1343" width="247" height="132" opacity="0.2"/></g><g transform="translate(-14,-1326) scale(1,1)"><rect fill="#ffffff" stroke="none" x="376" y="1336" width="247" height="132"/></g><g transform="translate(-14,-1326) scale(1,1)"><path fill="none" stroke="#000000" d="M 376 1336 L 623 1336 L 623 1468 L 376 1468 L 376 1336 Z Z" stroke-miterlimit="10"/></g><g transform="translate(-14,-1326) scale(1,1)"><path fill="none" stroke="#000000" d="M 376 1361 L 623 1361" stroke-miterlimit="10"/></g><g transform="translate(-14,-1326) scale(1,1)"><path fill="none" stroke="#000000" d="M 376 1459 L 623 1459" stroke-miterlimit="10"/></g><g transform="translate(-14,-1326) scale(1,1)"><g><path fill="none" stroke="none"/><text fill="#000000" stroke="none" font-family="Arial" font-size="13px" font-style="normal" font-weight="bold" text-decoration="none" x="444.9609375" y="1355.5">USER_COMPANY</text></g></g><g transform="translate(-14,-1326) scale(1,1)"><g><path fill="none" stroke="none"/><text fill="#000000" stroke="none" font-family="Arial" font-size="13px" font-style="normal" font-weight="normal" text-decoration="none" x="381" y="1378.5">+Id: int(PK)</text></g></g><g transform="translate(-14,-1326) scale(1,1)"><g><path fill="none" stroke="none"/><text fill="#000000" stroke="none" font-family="Arial" font-size="13px" font-style="normal" font-weight="normal" text-decoration="none" x="381" y="1393.5">+companyId: int( FK)</text></g></g><g transform="translate(-14,-1326) scale(1,1)"><g><path fill="none" stroke="none"/><text fill="#000000" stroke="none" font-family="Arial" font-size="13px" font-style="normal" font-weight="normal" text-decoration="none" x="381" y="1408.5">+eMail: varchar(50)</text></g></g><g transform="translate(-14,-1326) scale(1,1)"><g><path fill="none" stroke="none"/><text fill="#000000" stroke="none" font-family="Arial" font-size="13px" font-style="normal" font-weight="normal" text-decoration="none" x="381" y="1423.5">+password: varchar(255)</text></g></g><g transform="translate(-14,-1326) scale(1,1)"><g><path fill="none" stroke="none"/><text fill="#000000" stroke="none" font-family="Arial" font-size="13px" font-style="normal" font-weight="normal" text-decoration="none" x="381" y="1438.5">+isActivated: bit(1)</text></g></g><g transform="translate(-14,-1326) scale(1,1)"><g><path fill="none" stroke="none"/><text fill="#000000" stroke="none" font-family="Arial" font-size="13px" font-style="normal" font-weight="normal" text-decoration="none" x="381" y="1453.5">+userName: varchar(50)</text></g></g><g transform="translate(-14,-1326) scale(1,1)"><path fill="none" stroke="#000000" d="M 376 1392 L 328 1392 L 328 1528 L 416 1528" stroke-miterlimit="10"/></g><g transform="translate(-14,-1326) scale(1,1)"><path fill="none" stroke="#000000" d="M 405.83732514237585 1532.2095177560159 L 416 1528 L 405.83732514237585 1523.7904822439841" stroke-miterlimit="10"/></g><g transform="translate(-14,-1326) scale(1,1)"><g><path fill="none" stroke="none"/><text fill="#000000" stroke="none" font-family="Arial" font-size="13px" font-style="normal" font-weight="normal" text-decoration="none" x="350.5" y="1385.5">1</text></g></g><g transform="translate(-14,-1326) scale(1,1)"><g><path fill="none" stroke="none"/><text fill="#000000" stroke="none" font-family="Arial" font-size="13px" font-style="normal" font-weight="normal" text-decoration="none" x="390.5" y="1546.5">1</text></g></g><g transform="translate(-14,-1326) scale(1,1)"><rect fill="#C0C0C0" stroke="none" x="415" y="1655" width="183" height="102" opacity="0.2"/></g><g transform="translate(-14,-1326) scale(1,1)"><rect fill="#ffffff" stroke="none" x="408" y="1648" width="183" height="102"/></g><g transform="translate(-14,-1326) scale(1,1)"><path fill="none" stroke="#000000" d="M 408 1648 L 591 1648 L 591 1750 L 408 1750 L 408 1648 Z Z" stroke-miterlimit="10"/></g><g transform="translate(-14,-1326) scale(1,1)"><path fill="none" stroke="#000000" d="M 408 1673 L 591 1673" stroke-miterlimit="10"/></g><g transform="translate(-14,-1326) scale(1,1)"><path fill="none" stroke="#000000" d="M 408 1741 L 591 1741" stroke-miterlimit="10"/></g><g transform="translate(-14,-1326) scale(1,1)"><g><path fill="none" stroke="none"/><text fill="#000000" stroke="none" font-family="Arial" font-size="13px" font-style="normal" font-weight="bold" text-decoration="none" x="472.77001953125" y="1667.5">SURVEY</text></g></g><g transform="translate(-14,-1326) scale(1,1)"><g><path fill="none" stroke="none"/><text fill="#000000" stroke="none" font-family="Arial" font-size="13px" font-style="normal" font-weight="normal" text-decoration="none" x="413" y="1690.5">Id: int(PK)</text></g></g><g transform="translate(-14,-1326) scale(1,1)"><g><path fill="none" stroke="none"/><text fill="#000000" stroke="none" font-family="Arial" font-size="13px" font-style="normal" font-weight="normal" text-decoration="none" x="413" y="1705.5">companyId: int (FK)</text></g></g><g transform="translate(-14,-1326) scale(1,1)"><g><path fill="none" stroke="none"/><text fill="#000000" stroke="none" font-family="Arial" font-size="13px" font-style="normal" font-weight="normal" text-decoration="none" x="413" y="1720.5">surveyName: varchar(50)</text></g></g><g transform="translate(-14,-1326) scale(1,1)"><g><path fill="none" stroke="none"/><text fill="#000000" stroke="none" font-family="Arial" font-size="13px" font-style="normal" font-weight="normal" text-decoration="none" x="413" y="1735.5">creationDate: datetime(6)</text></g></g><g transform="translate(-14,-1326) scale(1,1)"><rect fill="#C0C0C0" stroke="none" x="767" y="1647" width="239" height="162" opacity="0.2"/></g><g transform="translate(-14,-1326) scale(1,1)"><rect fill="#ffffff" stroke="none" x="760" y="1640" width="239" height="162"/></g><g transform="translate(-14,-1326) scale(1,1)"><path fill="none" stroke="#000000" d="M 760 1640 L 999 1640 L 999 1802 L 760 1802 L 760 1640 Z Z" stroke-miterlimit="10"/></g><g transform="translate(-14,-1326) scale(1,1)"><path fill="none" stroke="#000000" d="M 760 1665 L 999 1665" stroke-miterlimit="10"/></g><g transform="translate(-14,-1326) scale(1,1)"><path fill="none" stroke="#000000" d="M 760 1793 L 999 1793" stroke-miterlimit="10"/></g><g transform="translate(-14,-1326) scale(1,1)"><g><path fill="none" stroke="none"/><text fill="#000000" stroke="none" font-family="Arial" font-size="13px" font-style="normal" font-weight="bold" text-decoration="none" x="811.595947265625" y="1659.5">ANSWERED_SURVEY</text></g></g><g transform="translate(-14,-1326) scale(1,1)"><g><path fill="none" stroke="none"/><text fill="#000000" stroke="none" font-family="Arial" font-size="13px" font-style="normal" font-weight="normal" text-decoration="none" x="765" y="1682.5">Id: int(PK)</text></g></g><g transform="translate(-14,-1326) scale(1,1)"><g><path fill="none" stroke="none"/><text fill="#000000" stroke="none" font-family="Arial" font-size="13px" font-style="normal" font-weight="normal" text-decoration="none" x="765" y="1697.5">surveyId: int(FK)</text></g></g><g transform="translate(-14,-1326) scale(1,1)"><g><path fill="none" stroke="none"/><text fill="#000000" stroke="none" font-family="Arial" font-size="13px" font-style="normal" font-weight="normal" text-decoration="none" x="765" y="1712.5">date: datetime</text></g></g><g transform="translate(-14,-1326) scale(1,1)"><g><path fill="none" stroke="none"/><text fill="#000000" stroke="none" font-family="Arial" font-size="13px" font-style="normal" font-weight="normal" text-decoration="none" x="765" y="1727.5">eMail: varchar(50)</text></g></g><g transform="translate(-14,-1326) scale(1,1)"><g><path fill="none" stroke="none"/><text fill="#000000" stroke="none" font-family="Arial" font-size="13px" font-style="normal" font-weight="normal" text-decoration="none" x="765" y="1742.5">firstName: varchar(50)</text></g></g><g transform="translate(-14,-1326) scale(1,1)"><g><path fill="none" stroke="none"/><text fill="#000000" stroke="none" font-family="Arial" font-size="13px" font-style="normal" font-weight="normal" text-decoration="none" x="765" y="1757.5">lastName: varchar(50)</text></g></g><g transform="translate(-14,-1326) scale(1,1)"><g><path fill="none" stroke="none"/><text fill="#000000" stroke="none" font-family="Arial" font-size="13px" font-style="normal" font-weight="normal" text-decoration="none" x="765" y="1772.5">age: int</text></g></g><g transform="translate(-14,-1326) scale(1,1)"><g><path fill="none" stroke="none"/><text fill="#000000" stroke="none" font-family="Arial" font-size="13px" font-style="normal" font-weight="normal" text-decoration="none" x="765" y="1787.5">country: varchar(30)</text></g></g><g transform="translate(-14,-1326) scale(1,1)"><rect fill="#C0C0C0" stroke="none" x="775" y="1847" width="215" height="102" opacity="0.2"/></g><g transform="translate(-14,-1326) scale(1,1)"><rect fill="#ffffff" stroke="none" x="768" y="1840" width="215" height="102"/></g><g transform="translate(-14,-1326) scale(1,1)"><path fill="none" stroke="#000000" d="M 768 1840 L 983 1840 L 983 1942 L 768 1942 L 768 1840 Z Z" stroke-miterlimit="10"/></g><g transform="translate(-14,-1326) scale(1,1)"><path fill="none" stroke="#000000" d="M 768 1865 L 983 1865" stroke-miterlimit="10"/></g><g transform="translate(-14,-1326) scale(1,1)"><path fill="none" stroke="#000000" d="M 768 1933 L 983 1933" stroke-miterlimit="10"/></g><g transform="translate(-14,-1326) scale(1,1)"><g><path fill="none" stroke="none"/><text fill="#000000" stroke="none" font-family="Arial" font-size="13px" font-style="normal" font-weight="bold" text-decoration="none" x="846.970458984375" y="1859.5">ANSWER</text></g></g><g transform="translate(-14,-1326) scale(1,1)"><g><path fill="none" stroke="none"/><text fill="#000000" stroke="none" font-family="Arial" font-size="13px" font-style="normal" font-weight="normal" text-decoration="none" x="773" y="1882.5">+Id: int (PK)</text></g></g><g transform="translate(-14,-1326) scale(1,1)"><g><path fill="none" stroke="none"/><text fill="#000000" stroke="none" font-family="Arial" font-size="13px" font-style="normal" font-weight="normal" text-decoration="none" x="773" y="1897.5">+answeredSurveyId: int(FK)</text></g></g><g transform="translate(-14,-1326) scale(1,1)"><g><path fill="none" stroke="none"/><text fill="#000000" stroke="none" font-family="Arial" font-size="13px" font-style="normal" font-weight="normal" text-decoration="none" x="773" y="1912.5">+questionId: int(FK)</text></g></g><g transform="translate(-14,-1326) scale(1,1)"><g><path fill="none" stroke="none"/><text fill="#000000" stroke="none" font-family="Arial" font-size="13px" font-style="normal" font-weight="normal" text-decoration="none" x="773" y="1927.5">+answerBody: varchar(255)</text></g></g><g transform="translate(-14,-1326) scale(1,1)"><rect fill="#C0C0C0" stroke="none" x="111" y="1687" width="207" height="102" opacity="0.2"/></g><g transform="translate(-14,-1326) scale(1,1)"><rect fill="#ffffff" stroke="none" x="104" y="1680" width="207" height="102"/></g><g transform="translate(-14,-1326) scale(1,1)"><path fill="none" stroke="#000000" d="M 104 1680 L 311 1680 L 311 1782 L 104 1782 L 104 1680 Z Z" stroke-miterlimit="10"/></g><g transform="translate(-14,-1326) scale(1,1)"><path fill="none" stroke="#000000" d="M 104 1705 L 311 1705" stroke-miterlimit="10"/></g><g transform="translate(-14,-1326) scale(1,1)"><path fill="none" stroke="#000000" d="M 104 1773 L 311 1773" stroke-miterlimit="10"/></g><g transform="translate(-14,-1326) scale(1,1)"><g><path fill="none" stroke="none"/><text fill="#000000" stroke="none" font-family="Arial" font-size="13px" font-style="normal" font-weight="bold" text-decoration="none" x="169.21728515625" y="1699.5">QESUTIONS</text></g></g><g transform="translate(-14,-1326) scale(1,1)"><g><path fill="none" stroke="none"/><text fill="#000000" stroke="none" font-family="Arial" font-size="13px" font-style="normal" font-weight="normal" text-decoration="none" x="109" y="1722.5">Id: int(PK)</text></g></g><g transform="translate(-14,-1326) scale(1,1)"><g><path fill="none" stroke="none"/><text fill="#000000" stroke="none" font-family="Arial" font-size="13px" font-style="normal" font-weight="normal" text-decoration="none" x="109" y="1737.5">surveyId: int (FK)</text></g></g><g transform="translate(-14,-1326) scale(1,1)"><g><path fill="none" stroke="none"/><text fill="#000000" stroke="none" font-family="Arial" font-size="13px" font-style="normal" font-weight="normal" text-decoration="none" x="109" y="1752.5">qestionBody: varchar(255)</text></g></g><g transform="translate(-14,-1326) scale(1,1)"><g><path fill="none" stroke="none"/><text fill="#000000" stroke="none" font-family="Arial" font-size="13px" font-style="normal" font-weight="normal" text-decoration="none" x="109" y="1767.5">questionType: int</text></g></g><g transform="translate(-14,-1326) scale(1,1)"><rect fill="#C0C0C0" stroke="none" x="111" y="1839" width="207" height="132" opacity="0.2"/></g><g transform="translate(-14,-1326) scale(1,1)"><rect fill="#ffffff" stroke="none" x="104" y="1832" width="207" height="132"/></g><g transform="translate(-14,-1326) scale(1,1)"><path fill="none" stroke="#000000" d="M 104 1832 L 311 1832 L 311 1964 L 104 1964 L 104 1832 Z Z" stroke-miterlimit="10"/></g><g transform="translate(-14,-1326) scale(1,1)"><path fill="none" stroke="#000000" d="M 104 1857 L 311 1857" stroke-miterlimit="10"/></g><g transform="translate(-14,-1326) scale(1,1)"><path fill="none" stroke="#000000" d="M 104 1955 L 311 1955" stroke-miterlimit="10"/></g><g transform="translate(-14,-1326) scale(1,1)"><g><path fill="none" stroke="none"/><text fill="#000000" stroke="none" font-family="Arial" font-size="13px" font-style="normal" font-weight="bold" text-decoration="none" x="138.865966796875" y="1851.5">POSSIBLE_ANSWERS</text></g></g><g transform="translate(-14,-1326) scale(1,1)"><g><path fill="none" stroke="none"/><text fill="#000000" stroke="none" font-family="Arial" font-size="13px" font-style="normal" font-weight="normal" text-decoration="none" x="109" y="1874.5">Id: int(PK)</text></g></g><g transform="translate(-14,-1326) scale(1,1)"><g><path fill="none" stroke="none"/><text fill="#000000" stroke="none" font-family="Arial" font-size="13px" font-style="normal" font-weight="normal" text-decoration="none" x="109" y="1889.5">questionId: int(FK)</text></g></g><g transform="translate(-14,-1326) scale(1,1)"><g><path fill="none" stroke="none"/><text fill="#000000" stroke="none" font-family="Arial" font-size="13px" font-style="normal" font-weight="normal" text-decoration="none" x="109" y="1904.5">possibleAnswerA: varchar(255)</text></g></g><g transform="translate(-14,-1326) scale(1,1)"><g><path fill="none" stroke="none"/><text fill="#000000" stroke="none" font-family="Arial" font-size="13px" font-style="normal" font-weight="normal" text-decoration="none" x="109" y="1919.5">possibleAnswerB: varchar(255)</text></g></g><g transform="translate(-14,-1326) scale(1,1)"><g><path fill="none" stroke="none"/><text fill="#000000" stroke="none" font-family="Arial" font-size="13px" font-style="normal" font-weight="normal" text-decoration="none" x="109" y="1934.5">possibleAnswerC: varchar(255)</text></g></g><g transform="translate(-14,-1326) scale(1,1)"><g><path fill="none" stroke="none"/><text fill="#000000" stroke="none" font-family="Arial" font-size="13px" font-style="normal" font-weight="normal" text-decoration="none" x="109" y="1949.5">possibleAnswerD: varchar(255)</text></g></g><g transform="translate(-14,-1326) scale(1,1)"><path fill="none" stroke="#000000" d="M 104 1728 L 24 1728 L 24 1648 L 368 1648 L 368 1664 L 408 1664" stroke-miterlimit="10"/></g><g transform="translate(-14,-1326) scale(1,1)"><path fill="none" stroke="#000000" d="M 397.83732514237585 1668.2095177560159 L 408 1664 L 397.83732514237585 1659.7904822439841" stroke-miterlimit="10"/></g><g transform="translate(-14,-1326) scale(1,1)"><g><path fill="none" stroke="none"/><text fill="#000000" stroke="none" font-family="Arial" font-size="13px" font-style="normal" font-weight="normal" text-decoration="none" x="79.5" y="1748.5">0...*</text></g></g><g transform="translate(-14,-1326) scale(1,1)"><g><path fill="none" stroke="none"/><text fill="#000000" stroke="none" font-family="Arial" font-size="13px" font-style="normal" font-weight="normal" text-decoration="none" x="383.5" y="1659.5">1</text></g></g><g transform="translate(-14,-1326) scale(1,1)"><path fill="none" stroke="#000000" d="M 104 1864 L 40 1864 L 40 1712 L 104 1712" stroke-miterlimit="10"/></g><g transform="translate(-14,-1326) scale(1,1)"><path fill="none" stroke="#000000" d="M 93.83732514237585 1716.2095177560159 L 104 1712 L 93.83732514237585 1707.7904822439841" stroke-miterlimit="10"/></g><g transform="translate(-14,-1326) scale(1,1)"><g><path fill="none" stroke="none"/><text fill="#000000" stroke="none" font-family="Arial" font-size="13px" font-style="normal" font-weight="normal" text-decoration="none" x="86.9208984375" y="1856.5">1</text></g></g><g transform="translate(-14,-1326) scale(1,1)"><g><path fill="none" stroke="none"/><text fill="#000000" stroke="none" font-family="Arial" font-size="13px" font-style="normal" font-weight="normal" text-decoration="none" x="71.5" y="1707.5">0,1</text></g></g><g transform="translate(-14,-1326) scale(1,1)"><path fill="none" stroke="#000000" d="M 591 1680 L 632 1680 L 632 1536 L 594 1536" stroke-miterlimit="10"/></g><g transform="translate(-14,-1326) scale(1,1)"><path fill="none" stroke="#000000" d="M 604.1626748576241 1531.7904822439841 L 594 1536 L 604.1626748576241 1540.2095177560159" stroke-miterlimit="10"/></g><g transform="translate(-14,-1326) scale(1,1)"><g><path fill="none" stroke="none"/><text fill="#000000" stroke="none" font-family="Arial" font-size="13px" font-style="normal" font-weight="normal" text-decoration="none" x="600.5" y="1676.5">0...*</text></g></g><g transform="translate(-14,-1326) scale(1,1)"><g><path fill="none" stroke="none"/><text fill="#000000" stroke="none" font-family="Arial" font-size="13px" font-style="normal" font-weight="normal" text-decoration="none" x="611.5" y="1529.5">1</text></g></g><g transform="translate(-14,-1326) scale(1,1)"><path fill="none" stroke="#000000" d="M 760 1688 L 591 1688" stroke-miterlimit="10"/></g><g transform="translate(-14,-1326) scale(1,1)"><path fill="none" stroke="#000000" d="M 601.1626748576241 1683.7904822439841 L 591 1688 L 601.1626748576241 1692.2095177560159" stroke-miterlimit="10"/></g><g transform="translate(-14,-1326) scale(1,1)"><g><path fill="none" stroke="none"/><text fill="#000000" stroke="none" font-family="Arial" font-size="13px" font-style="normal" font-weight="normal" text-decoration="none" x="726.5" y="1681.5">0...*</text></g></g><g transform="translate(-14,-1326) scale(1,1)"><g><path fill="none" stroke="none"/><text fill="#000000" stroke="none" font-family="Arial" font-size="13px" font-style="normal" font-weight="normal" text-decoration="none" x="608.447265625" y="1707.5">1</text></g></g><g transform="translate(-14,-1326) scale(1,1)"><path fill="none" stroke="#000000" d="M 768 1888 L 728 1888 L 728 1824 L 1032 1824 L 1032 1672 L 999 1672" stroke-miterlimit="10"/></g><g transform="translate(-14,-1326) scale(1,1)"><path fill="none" stroke="#000000" d="M 1009.1626748576241 1667.7904822439841 L 999 1672 L 1009.1626748576241 1676.2095177560159" stroke-miterlimit="10"/></g><g transform="translate(-14,-1326) scale(1,1)"><g><path fill="none" stroke="none"/><text fill="#000000" stroke="none" font-family="Arial" font-size="13px" font-style="normal" font-weight="normal" text-decoration="none" x="734.5" y="1881.5">0...*</text></g></g><g transform="translate(-14,-1326) scale(1,1)"><g><path fill="none" stroke="none"/><text fill="#000000" stroke="none" font-family="Arial" font-size="13px" font-style="normal" font-weight="normal" text-decoration="none" x="1016.5" y="1665.5">1</text></g></g><g transform="translate(-14,-1326) scale(1,1)"><path fill="none" stroke="#000000" d="M 311 1712 L 360 1712 L 360 1904 L 768 1904" stroke-miterlimit="10"/></g><g transform="translate(-14,-1326) scale(1,1)"><path fill="none" stroke="#000000" d="M 321.16267485762415 1707.7904822439841 L 311 1712 L 321.16267485762415 1716.2095177560159" stroke-miterlimit="10"/></g><g transform="translate(-14,-1326) scale(1,1)"><g><path fill="none" stroke="none"/><text fill="#000000" stroke="none" font-family="Arial" font-size="13px" font-style="normal" font-weight="normal" text-decoration="none" x="328.5" y="1730.5">1</text></g></g><g transform="translate(-14,-1326) scale(1,1)"><g><path fill="none" stroke="none"/><text fill="#000000" stroke="none" font-family="Arial" font-size="13px" font-style="normal" font-weight="normal" text-decoration="none" x="734.5" y="1922.5">0...*</text></g></g><g transform="translate(-14,-1326) scale(1,1)"><rect fill="#C0C0C0" stroke="none" x="407" y="1959" width="239" height="147" opacity="0.2"/></g><g transform="translate(-14,-1326) scale(1,1)"><rect fill="#ffffff" stroke="none" x="400" y="1952" width="239" height="147"/></g><g transform="translate(-14,-1326) scale(1,1)"><path fill="none" stroke="#000000" d="M 400 1952 L 639 1952 L 639 2099 L 400 2099 L 400 1952 Z Z" stroke-miterlimit="10"/></g><g transform="translate(-14,-1326) scale(1,1)"><path fill="none" stroke="#000000" d="M 400 1977 L 639 1977" stroke-miterlimit="10"/></g><g transform="translate(-14,-1326) scale(1,1)"><path fill="none" stroke="#000000" d="M 400 2090 L 639 2090" stroke-miterlimit="10"/></g><g transform="translate(-14,-1326) scale(1,1)"><g><path fill="none" stroke="none"/><text fill="#000000" stroke="none" font-family="Arial" font-size="13px" font-style="normal" font-weight="bold" text-decoration="none" x="486.996826171875" y="1971.5">VOUCHER</text></g></g><g transform="translate(-14,-1326) scale(1,1)"><g><path fill="none" stroke="none"/><text fill="#000000" stroke="none" font-family="Arial" font-size="13px" font-style="normal" font-weight="normal" text-decoration="none" x="405" y="1994.5">Id: int(PK)</text></g></g><g transform="translate(-14,-1326) scale(1,1)"><g><path fill="none" stroke="none"/><text fill="#000000" stroke="none" font-family="Arial" font-size="13px" font-style="normal" font-weight="normal" text-decoration="none" x="405" y="2009.5">surveyId: int(FK)</text></g></g><g transform="translate(-14,-1326) scale(1,1)"><g><path fill="none" stroke="none"/><text fill="#000000" stroke="none" font-family="Arial" font-size="13px" font-style="normal" font-weight="normal" text-decoration="none" x="405" y="2024.5">discountType: int</text></g></g><g transform="translate(-14,-1326) scale(1,1)"><g><path fill="none" stroke="none"/><text fill="#000000" stroke="none" font-family="Arial" font-size="13px" font-style="normal" font-weight="normal" text-decoration="none" x="405" y="2039.5">discountAmount: int</text></g></g><g transform="translate(-14,-1326) scale(1,1)"><g><path fill="none" stroke="none"/><text fill="#000000" stroke="none" font-family="Arial" font-size="13px" font-style="normal" font-weight="normal" text-decoration="none" x="405" y="2054.5">startDate: datetime</text></g></g><g transform="translate(-14,-1326) scale(1,1)"><g><path fill="none" stroke="none"/><text fill="#000000" stroke="none" font-family="Arial" font-size="13px" font-style="normal" font-weight="normal" text-decoration="none" x="405" y="2069.5">endDate: datetime</text></g></g><g transform="translate(-14,-1326) scale(1,1)"><g><path fill="none" stroke="none"/><text fill="#000000" stroke="none" font-family="Arial" font-size="13px" font-style="normal" font-weight="normal" text-decoration="none" x="405" y="2084.5">details: varchar(255)</text></g></g><g transform="translate(-14,-1326) scale(1,1)"><rect fill="#C0C0C0" stroke="none" x="775" y="1983" width="223" height="102" opacity="0.2"/></g><g transform="translate(-14,-1326) scale(1,1)"><rect fill="#ffffff" stroke="none" x="768" y="1976" width="223" height="102"/></g><g transform="translate(-14,-1326) scale(1,1)"><path fill="none" stroke="#000000" d="M 768 1976 L 991 1976 L 991 2078 L 768 2078 L 768 1976 Z Z" stroke-miterlimit="10"/></g><g transform="translate(-14,-1326) scale(1,1)"><path fill="none" stroke="#000000" d="M 768 2001 L 991 2001" stroke-miterlimit="10"/></g><g transform="translate(-14,-1326) scale(1,1)"><path fill="none" stroke="#000000" d="M 768 2069 L 991 2069" stroke-miterlimit="10"/></g><g transform="translate(-14,-1326) scale(1,1)"><g><path fill="none" stroke="none"/><text fill="#000000" stroke="none" font-family="Arial" font-size="13px" font-style="normal" font-weight="bold" text-decoration="none" x="824.602294921875" y="1995.5">VOUCHER_CODE</text></g></g><g transform="translate(-14,-1326) scale(1,1)"><g><path fill="none" stroke="none"/><text fill="#000000" stroke="none" font-family="Arial" font-size="13px" font-style="normal" font-weight="normal" text-decoration="none" x="773" y="2018.5">Id: int(PK)</text><path fill="none" stroke="#000000" d="M 773 2018.5 L 830.79541015625 2018.5" stroke-miterlimit="10"/></g></g><g transform="translate(-14,-1326) scale(1,1)"><g><path fill="none" stroke="none"/><text fill="#000000" stroke="none" font-family="Arial" font-size="13px" font-style="normal" font-weight="normal" text-decoration="none" x="773" y="2033.5">voucherId: int(FK)</text></g></g><g transform="translate(-14,-1326) scale(1,1)"><g><path fill="none" stroke="none"/><text fill="#000000" stroke="none" font-family="Arial" font-size="13px" font-style="normal" font-weight="normal" text-decoration="none" x="773" y="2048.5">voucherCode: varchar(255)</text></g></g><g transform="translate(-14,-1326) scale(1,1)"><g><path fill="none" stroke="none"/><text fill="#000000" stroke="none" font-family="Arial" font-size="13px" font-style="normal" font-weight="normal" text-decoration="none" x="773" y="2063.5">ammountOfUses: int</text></g></g><g transform="translate(-14,-1326) scale(1,1)"><rect fill="#C0C0C0" stroke="none" x="799" y="2119" width="154.18359375" height="87" opacity="0.2"/></g><g transform="translate(-14,-1326) scale(1,1)"><rect fill="#ffffff" stroke="none" x="792" y="2112" width="154.18359375" height="87"/></g><g transform="translate(-14,-1326) scale(1,1)"><path fill="none" stroke="#000000" d="M 792 2112 L 946.18359375 2112 L 946.18359375 2199 L 792 2199 L 792 2112 Z Z" stroke-miterlimit="10"/></g><g transform="translate(-14,-1326) scale(1,1)"><path fill="none" stroke="#000000" d="M 792 2137 L 946.18359375 2137" stroke-miterlimit="10"/></g><g transform="translate(-14,-1326) scale(1,1)"><path fill="none" stroke="#000000" d="M 792 2190 L 946.18359375 2190" stroke-miterlimit="10"/></g><g transform="translate(-14,-1326) scale(1,1)"><g><path fill="none" stroke="none"/><text fill="#000000" stroke="none" font-family="Arial" font-size="13px" font-style="normal" font-weight="bold" text-decoration="none" x="796.858642578125" y="2131.5">VOUCHERCODE_DATE</text></g></g><g transform="translate(-14,-1326) scale(1,1)"><g><path fill="none" stroke="none"/><text fill="#000000" stroke="none" font-family="Arial" font-size="13px" font-style="normal" font-weight="normal" text-decoration="none" x="797" y="2154.5">Id: int(PK)</text></g></g><g transform="translate(-14,-1326) scale(1,1)"><g><path fill="none" stroke="none"/><text fill="#000000" stroke="none" font-family="Arial" font-size="13px" font-style="normal" font-weight="normal" text-decoration="none" x="797" y="2169.5">codeId: int(FK)</text></g></g><g transform="translate(-14,-1326) scale(1,1)"><g><path fill="none" stroke="none"/><text fill="#000000" stroke="none" font-family="Arial" font-size="13px" font-style="normal" font-weight="normal" text-decoration="none" x="797" y="2184.5">useDate: datetime</text></g></g><g transform="translate(-14,-1326) scale(1,1)"><path fill="none" stroke="#000000" d="M 768 2024 L 680 2024 L 680 1988 L 639 1988" stroke-miterlimit="10"/></g><g transform="translate(-14,-1326) scale(1,1)"><path fill="none" stroke="#000000" d="M 649.1626748576241 1983.7904822439841 L 639 1988 L 649.1626748576241 1992.2095177560159" stroke-miterlimit="10"/></g><g transform="translate(-14,-1326) scale(1,1)"><g><path fill="none" stroke="none"/><text fill="#000000" stroke="none" font-family="Arial" font-size="13px" font-style="normal" font-weight="normal" text-decoration="none" x="734.5" y="2017.5">1...*</text></g></g><g transform="translate(-14,-1326) scale(1,1)"><g><path fill="none" stroke="none"/><text fill="#000000" stroke="none" font-family="Arial" font-size="13px" font-style="normal" font-weight="normal" text-decoration="none" x="656.5" y="1981.5">1</text></g></g><g transform="translate(-14,-1326) scale(1,1)"><path fill="none" stroke="#000000" d="M 946 2160 L 1024 2160 L 1024 2008 L 991 2008" stroke-miterlimit="10"/></g><g transform="translate(-14,-1326) scale(1,1)"><path fill="none" stroke="#000000" d="M 1001.1626748576241 2003.7904822439841 L 991 2008 L 1001.1626748576241 2012.2095177560159" stroke-miterlimit="10"/></g><g transform="translate(-14,-1326) scale(1,1)"><g><path fill="none" stroke="none"/><text fill="#000000" stroke="none" font-family="Arial" font-size="13px" font-style="normal" font-weight="normal" text-decoration="none" x="955.5" y="2178.5">0...*</text></g></g><g transform="translate(-14,-1326) scale(1,1)"><g><path fill="none" stroke="none"/><text fill="#000000" stroke="none" font-family="Arial" font-size="13px" font-style="normal" font-weight="normal" text-decoration="none" x="1008.5" y="2001.5">1</text></g></g><g transform="translate(-14,-1326) scale(1,1)"><path fill="none" stroke="#000000" d="M 400 2000 L 376 2000 L 376 1680 L 408 1680" stroke-miterlimit="10"/></g><g transform="translate(-14,-1326) scale(1,1)"><path fill="none" stroke="#000000" d="M 397.83732514237585 1684.2095177560159 L 408 1680 L 397.83732514237585 1675.7904822439841" stroke-miterlimit="10"/></g><g transform="translate(-14,-1326) scale(1,1)"><g><path fill="none" stroke="none"/><text fill="#000000" stroke="none" font-family="Arial" font-size="13px" font-style="normal" font-weight="normal" text-decoration="none" x="383.5" y="1992.5">1</text></g></g><g transform="translate(-14,-1326) scale(1,1)"><g><path fill="none" stroke="none"/><text fill="#000000" stroke="none" font-family="Arial" font-size="13px" font-style="normal" font-weight="normal" text-decoration="none" x="391.5" y="1698.5">1</text></g></g></g></svg>