<svg version="1.1" xmlns="http://www.w3.org/2000/svg" xmlns:xlink="http://www.w3.org/1999/xlink" width="1111" height="931"><defs/><g><g transform="translate(-46,-38) scale(1,1)"><path fill="#C0C0C0" stroke="none" d="M 557 79 C 557 65.7451648 568.4167376 55 582.5 55 C 596.5832624 55 608 65.7451648 608 79 C 608 92.2548352 596.5832624 103 582.5 103 C 568.4167376 103 557 92.2548352 557 79 Z" opacity="0.2"/></g><g transform="translate(-46,-38) scale(1,1)"><path fill="#000000" stroke="none" d="M 550 72 C 550 58.7451648 561.4167376 48 575.5 48 C 589.5832624 48 601 58.7451648 601 72 C 601 85.2548352 589.5832624 96 575.5 96 C 561.4167376 96 550 85.2548352 550 72 Z"/></g><g transform="translate(-46,-38) scale(1,1)"><path fill="#C0C0C0" stroke="none" d="M 473 159 L 692.54443359375 159 Q 702.54443359375 159 702.54443359375 169 L 702.54443359375 197 Q 702.54443359375 207 692.54443359375 207 L 473 207 Q 463 207 463 197 L 463 169 Q 463 159 473 159 Z" opacity="0.2"/></g><g transform="translate(-46,-38) scale(1,1)"><path fill="#ffffff" stroke="none" d="M 466 152 L 685.54443359375 152 Q 695.54443359375 152 695.54443359375 162 L 695.54443359375 190 Q 695.54443359375 200 685.54443359375 200 L 466 200 Q 456 200 456 190 L 456 162 Q 456 152 466 152 Z"/></g><g transform="translate(-46,-38) scale(1,1)"><path fill="none" stroke="#000000" d="M 466 152 L 685.54443359375 152 Q 695.54443359375 152 695.54443359375 162 L 695.54443359375 190 Q 695.54443359375 200 685.54443359375 200 L 466 200 Q 456 200 456 190 L 456 162 Q 456 152 466 152 Z" stroke-miterlimit="10"/></g><g transform="translate(-46,-38) scale(1,1)"><g><path fill="none" stroke="none"/><text fill="#000000" stroke="none" font-family="Arial" font-size="13px" font-style="normal" font-weight="bold" text-decoration="none" x="523.02001953125" y="171.5">Set Personal Data</text></g></g><g transform="translate(-46,-38) scale(1,1)"><path fill="#ffffff" stroke="none" d="M 896 80 L 1077 80 L 1087 90 L 1087 143 L 896 143 L 896 80"/></g><g transform="translate(-46,-38) scale(1,1)"><path fill="none" stroke="#000000" d="M 896 80 L 1077 80 L 1087 90 L 1087 143 L 896 143 L 896 80 L 896 80" stroke-miterlimit="10"/></g><g transform="translate(-46,-38) scale(1,1)"><path fill="none" stroke="#000000" d="M 1077 80 L 1077 90 L 1087 90 L 1077 80" stroke-miterlimit="10"/></g><g transform="translate(-46,-38) scale(1,1)"><g><path fill="none" stroke="none"/><text fill="#000000" stroke="none" font-family="Arial" font-size="13px" font-style="normal" font-weight="normal" text-decoration="none" x="901" y="98">App gets personal data from</text><text fill="#000000" stroke="none" font-family="Arial" font-size="13px" font-style="normal" font-weight="normal" text-decoration="none" x="901" y="111">user (Name , age , e-mail etc.)</text></g></g><g transform="translate(-46,-38) scale(1,1)"><path fill="none" stroke="#000000" d="M 697 157 L 895 127" stroke-miterlimit="10" stroke-dasharray="3"/></g><g transform="translate(-46,-38) scale(1,1)"><path fill="#C0C0C0" stroke="none" d="M 487 271 L 678.8671875 271 Q 688.8671875 271 688.8671875 281 L 688.8671875 309 Q 688.8671875 319 678.8671875 319 L 487 319 Q 477 319 477 309 L 477 281 Q 477 271 487 271 Z" opacity="0.2"/></g><g transform="translate(-46,-38) scale(1,1)"><path fill="#ffffff" stroke="none" d="M 480 264 L 671.8671875 264 Q 681.8671875 264 681.8671875 274 L 681.8671875 302 Q 681.8671875 312 671.8671875 312 L 480 312 Q 470 312 470 302 L 470 274 Q 470 264 480 264 Z"/></g><g transform="translate(-46,-38) scale(1,1)"><path fill="none" stroke="#000000" d="M 480 264 L 671.8671875 264 Q 681.8671875 264 681.8671875 274 L 681.8671875 302 Q 681.8671875 312 671.8671875 312 L 480 312 Q 470 312 470 302 L 470 274 Q 470 264 480 264 Z" stroke-miterlimit="10"/></g><g transform="translate(-46,-38) scale(1,1)"><g><path fill="none" stroke="none"/><text fill="#000000" stroke="none" font-family="Arial" font-size="13px" font-style="normal" font-weight="bold" text-decoration="none" x="522.451416015625" y="283.5">App validates data</text></g></g><g transform="translate(-46,-38) scale(1,1)"><path fill="#ffffff" stroke="none" d="M 192 160 L 280 160 L 290 170 L 290 235 L 192 235 L 192 160"/></g><g transform="translate(-46,-38) scale(1,1)"><path fill="none" stroke="#000000" d="M 192 160 L 280 160 L 290 170 L 290 235 L 192 235 L 192 160 L 192 160" stroke-miterlimit="10"/></g><g transform="translate(-46,-38) scale(1,1)"><path fill="none" stroke="#000000" d="M 280 160 L 280 170 L 290 170 L 280 160" stroke-miterlimit="10"/></g><g transform="translate(-46,-38) scale(1,1)"><g><path fill="none" stroke="none"/><text fill="#000000" stroke="none" font-family="Arial" font-size="13px" font-style="normal" font-weight="normal" text-decoration="none" x="197" y="178">App validate</text><text fill="#000000" stroke="none" font-family="Arial" font-size="13px" font-style="normal" font-weight="normal" text-decoration="none" x="197" y="191">data (If e-mail</text><text fill="#000000" stroke="none" font-family="Arial" font-size="13px" font-style="normal" font-weight="normal" text-decoration="none" x="197" y="204">contains '@' ,</text><text fill="#000000" stroke="none" font-family="Arial" font-size="13px" font-style="normal" font-weight="normal" text-decoration="none" x="197" y="217">age is a</text><text fill="#000000" stroke="none" font-family="Arial" font-size="13px" font-style="normal" font-weight="normal" text-decoration="none" x="197" y="230">number etc.)</text></g></g><g transform="translate(-46,-38) scale(1,1)"><path fill="none" stroke="#000000" d="M 482 263 L 292 212" stroke-miterlimit="10" stroke-dasharray="3"/></g><g transform="translate(-46,-38) scale(1,1)"><path fill="#C0C0C0" stroke="none" d="M 522 427.5 L 582.5 375 L 642 427.5 L 582.5 479 L 522 427.5" opacity="0.2"/></g><g transform="translate(-46,-38) scale(1,1)"><path fill="#ffffff" stroke="none" d="M 515 420 L 575 368 L 635 420 L 575 472 L 515 420"/></g><g transform="translate(-46,-38) scale(1,1)"><path fill="none" stroke="#000000" d="M 515 420 L 575 368 L 635 420 L 575 472 L 515 420 L 515 420" stroke-miterlimit="10"/></g><g transform="translate(-46,-38) scale(1,1)"><path fill="#C0C0C0" stroke="none" d="M 848 407 L 980.80810546875 407 Q 990.80810546875 407 990.80810546875 417 L 990.80810546875 437 Q 990.80810546875 447 980.80810546875 447 L 848 447 Q 838 447 838 437 L 838 417 Q 838 407 848 407 Z" opacity="0.2"/></g><g transform="translate(-46,-38) scale(1,1)"><path fill="#ffffff" stroke="none" d="M 841 400 L 973.80810546875 400 Q 983.80810546875 400 983.80810546875 410 L 983.80810546875 430 Q 983.80810546875 440 973.80810546875 440 L 841 440 Q 831 440 831 430 L 831 410 Q 831 400 841 400 Z"/></g><g transform="translate(-46,-38) scale(1,1)"><path fill="none" stroke="#000000" d="M 841 400 L 973.80810546875 400 Q 983.80810546875 400 983.80810546875 410 L 983.80810546875 430 Q 983.80810546875 440 973.80810546875 440 L 841 440 Q 831 440 831 430 L 831 410 Q 831 400 841 400 Z" stroke-miterlimit="10"/></g><g transform="translate(-46,-38) scale(1,1)"><g><path fill="none" stroke="none"/><text fill="#000000" stroke="none" font-family="Arial" font-size="13px" font-style="normal" font-weight="bold" text-decoration="none" x="843.438720703125" y="419.5">Change personal data</text></g></g><g transform="translate(-46,-38) scale(1,1)"><path fill="#C0C0C0" stroke="none" d="M 225 407 L 388 407 Q 398 407 398 417 L 398 444 Q 398 454 388 454 L 225 454 Q 215 454 215 444 L 215 417 Q 215 407 225 407 Z" opacity="0.2"/></g><g transform="translate(-46,-38) scale(1,1)"><path fill="#ffffff" stroke="none" d="M 218 400 L 381 400 Q 391 400 391 410 L 391 437 Q 391 447 381 447 L 218 447 Q 208 447 208 437 L 208 410 Q 208 400 218 400 Z"/></g><g transform="translate(-46,-38) scale(1,1)"><path fill="none" stroke="#000000" d="M 218 400 L 381 400 Q 391 400 391 410 L 391 437 Q 391 447 381 447 L 218 447 Q 208 447 208 437 L 208 410 Q 208 400 218 400 Z" stroke-miterlimit="10"/></g><g transform="translate(-46,-38) scale(1,1)"><g><path fill="none" stroke="none"/><text fill="#000000" stroke="none" font-family="Arial" font-size="13px" font-style="normal" font-weight="bold" text-decoration="none" x="224.353271484375" y="419.5">Chose survey to complete</text></g></g><g transform="translate(-46,-38) scale(1,1)"><path fill="#ffffff" stroke="none" d="M 96 280 L 184 280 L 194 290 L 194 355 L 96 355 L 96 280"/></g><g transform="translate(-46,-38) scale(1,1)"><path fill="none" stroke="#000000" d="M 96 280 L 184 280 L 194 290 L 194 355 L 96 355 L 96 280 L 96 280" stroke-miterlimit="10"/></g><g transform="translate(-46,-38) scale(1,1)"><path fill="none" stroke="#000000" d="M 184 280 L 184 290 L 194 290 L 184 280" stroke-miterlimit="10"/></g><g transform="translate(-46,-38) scale(1,1)"><g><path fill="none" stroke="none"/><text fill="#000000" stroke="none" font-family="Arial" font-size="13px" font-style="normal" font-weight="normal" text-decoration="none" x="101" y="298">User chose</text><text fill="#000000" stroke="none" font-family="Arial" font-size="13px" font-style="normal" font-weight="normal" text-decoration="none" x="101" y="311">survey from</text><text fill="#000000" stroke="none" font-family="Arial" font-size="13px" font-style="normal" font-weight="normal" text-decoration="none" x="101" y="324">aviable</text><text fill="#000000" stroke="none" font-family="Arial" font-size="13px" font-style="normal" font-weight="normal" text-decoration="none" x="101" y="337">surveys to</text><text fill="#000000" stroke="none" font-family="Arial" font-size="13px" font-style="normal" font-weight="normal" text-decoration="none" x="101" y="350">complete</text></g></g><g transform="translate(-46,-38) scale(1,1)"><path fill="none" stroke="#000000" d="M 264 399 L 196 353" stroke-miterlimit="10" stroke-dasharray="3"/></g><g transform="translate(-46,-38) scale(1,1)"><path fill="#C0C0C0" stroke="none" d="M 206 527 L 407.41162109375 527 Q 417.41162109375 527 417.41162109375 537 L 417.41162109375 557 Q 417.41162109375 567 407.41162109375 567 L 206 567 Q 196 567 196 557 L 196 537 Q 196 527 206 527 Z" opacity="0.2"/></g><g transform="translate(-46,-38) scale(1,1)"><path fill="#ffffff" stroke="none" d="M 199 520 L 400.41162109375 520 Q 410.41162109375 520 410.41162109375 530 L 410.41162109375 550 Q 410.41162109375 560 400.41162109375 560 L 199 560 Q 189 560 189 550 L 189 530 Q 189 520 199 520 Z"/></g><g transform="translate(-46,-38) scale(1,1)"><path fill="none" stroke="#000000" d="M 199 520 L 400.41162109375 520 Q 410.41162109375 520 410.41162109375 530 L 410.41162109375 550 Q 410.41162109375 560 400.41162109375 560 L 199 560 Q 189 560 189 550 L 189 530 Q 189 520 199 520 Z" stroke-miterlimit="10"/></g><g transform="translate(-46,-38) scale(1,1)"><g><path fill="none" stroke="none"/><text fill="#000000" stroke="none" font-family="Arial" font-size="13px" font-style="normal" font-weight="bold" text-decoration="none" x="211.552734375" y="539.5">App shows survey to complete</text></g></g><g transform="translate(-46,-38) scale(1,1)"><path fill="#C0C0C0" stroke="none" d="M 201 599 L 412 599 Q 422 599 422 609 L 422 636 Q 422 646 412 646 L 201 646 Q 191 646 191 636 L 191 609 Q 191 599 201 599 Z" opacity="0.2"/></g><g transform="translate(-46,-38) scale(1,1)"><path fill="#ffffff" stroke="none" d="M 194 592 L 405 592 Q 415 592 415 602 L 415 629 Q 415 639 405 639 L 194 639 Q 184 639 184 629 L 184 602 Q 184 592 194 592 Z"/></g><g transform="translate(-46,-38) scale(1,1)"><path fill="none" stroke="#000000" d="M 194 592 L 405 592 Q 415 592 415 602 L 415 629 Q 415 639 405 639 L 194 639 Q 184 639 184 629 L 184 602 Q 184 592 194 592 Z" stroke-miterlimit="10"/></g><g transform="translate(-46,-38) scale(1,1)"><g><path fill="none" stroke="none"/><text fill="#000000" stroke="none" font-family="Arial" font-size="13px" font-style="normal" font-weight="bold" text-decoration="none" x="222.5537109375" y="611.5">User completes the survey</text></g></g><g transform="translate(-46,-38) scale(1,1)"><path fill="#C0C0C0" stroke="none" d="M 496 599 L 668 599 Q 678 599 678 609 L 678 637 Q 678 647 668 647 L 496 647 Q 486 647 486 637 L 486 609 Q 486 599 496 599 Z" opacity="0.2"/></g><g transform="translate(-46,-38) scale(1,1)"><path fill="#ffffff" stroke="none" d="M 489 592 L 661 592 Q 671 592 671 602 L 671 630 Q 671 640 661 640 L 489 640 Q 479 640 479 630 L 479 602 Q 479 592 489 592 Z"/></g><g transform="translate(-46,-38) scale(1,1)"><path fill="none" stroke="#000000" d="M 489 592 L 661 592 Q 671 592 671 602 L 671 630 Q 671 640 661 640 L 489 640 Q 479 640 479 630 L 479 602 Q 479 592 489 592 Z" stroke-miterlimit="10"/></g><g transform="translate(-46,-38) scale(1,1)"><g><path fill="none" stroke="none"/><text fill="#000000" stroke="none" font-family="Arial" font-size="13px" font-style="normal" font-weight="bold" text-decoration="none" x="504.182373046875" y="611.5">App validates the survey</text></g></g><g transform="translate(-46,-38) scale(1,1)"><path fill="#C0C0C0" stroke="none" d="M 192 711 L 420 711 Q 430 711 430 721 L 430 741 Q 430 751 420 751 L 192 751 Q 182 751 182 741 L 182 721 Q 182 711 192 711 Z" opacity="0.2"/></g><g transform="translate(-46,-38) scale(1,1)"><path fill="#ffffff" stroke="none" d="M 185 704 L 413 704 Q 423 704 423 714 L 423 734 Q 423 744 413 744 L 185 744 Q 175 744 175 734 L 175 714 Q 175 704 185 704 Z"/></g><g transform="translate(-46,-38) scale(1,1)"><path fill="none" stroke="#000000" d="M 185 704 L 413 704 Q 423 704 423 714 L 423 734 Q 423 744 413 744 L 185 744 Q 175 744 175 734 L 175 714 Q 175 704 185 704 Z" stroke-miterlimit="10"/></g><g transform="translate(-46,-38) scale(1,1)"><g><path fill="none" stroke="none"/><text fill="#000000" stroke="none" font-family="Arial" font-size="13px" font-style="normal" font-weight="bold" text-decoration="none" x="218.794189453125" y="723.5">App shows error notification</text></g></g><g transform="translate(-46,-38) scale(1,1)"><path fill="#ffffff" stroke="none" d="M 56 608 L 144 608 L 154 618 L 154 683 L 56 683 L 56 608"/></g><g transform="translate(-46,-38) scale(1,1)"><path fill="none" stroke="#000000" d="M 56 608 L 144 608 L 154 618 L 154 683 L 56 683 L 56 608 L 56 608" stroke-miterlimit="10"/></g><g transform="translate(-46,-38) scale(1,1)"><path fill="none" stroke="#000000" d="M 144 608 L 144 618 L 154 618 L 144 608" stroke-miterlimit="10"/></g><g transform="translate(-46,-38) scale(1,1)"><g><path fill="none" stroke="none"/><text fill="#000000" stroke="none" font-family="Arial" font-size="13px" font-style="normal" font-weight="normal" text-decoration="none" x="61" y="626">If validation</text><text fill="#000000" stroke="none" font-family="Arial" font-size="13px" font-style="normal" font-weight="normal" text-decoration="none" x="61" y="639">creates error ,</text><text fill="#000000" stroke="none" font-family="Arial" font-size="13px" font-style="normal" font-weight="normal" text-decoration="none" x="61" y="652">app lets user</text><text fill="#000000" stroke="none" font-family="Arial" font-size="13px" font-style="normal" font-weight="normal" text-decoration="none" x="61" y="665">correct the</text><text fill="#000000" stroke="none" font-family="Arial" font-size="13px" font-style="normal" font-weight="normal" text-decoration="none" x="61" y="678">survey</text></g></g><g transform="translate(-46,-38) scale(1,1)"><path fill="none" stroke="#000000" d="M 247 703 L 156 667" stroke-miterlimit="10" stroke-dasharray="3"/></g><g transform="translate(-46,-38) scale(1,1)"><path fill="#C0C0C0" stroke="none" d="M 817 599 L 1012 599 Q 1022 599 1022 609 L 1022 637 Q 1022 647 1012 647 L 817 647 Q 807 647 807 637 L 807 609 Q 807 599 817 599 Z" opacity="0.2"/></g><g transform="translate(-46,-38) scale(1,1)"><path fill="#ffffff" stroke="none" d="M 810 592 L 1005 592 Q 1015 592 1015 602 L 1015 630 Q 1015 640 1005 640 L 810 640 Q 800 640 800 630 L 800 602 Q 800 592 810 592 Z"/></g><g transform="translate(-46,-38) scale(1,1)"><path fill="none" stroke="#000000" d="M 810 592 L 1005 592 Q 1015 592 1015 602 L 1015 630 Q 1015 640 1005 640 L 810 640 Q 800 640 800 630 L 800 602 Q 800 592 810 592 Z" stroke-miterlimit="10"/></g><g transform="translate(-46,-38) scale(1,1)"><g><path fill="none" stroke="none"/><text fill="#000000" stroke="none" font-family="Arial" font-size="13px" font-style="normal" font-weight="bold" text-decoration="none" x="828.741455078125" y="611.5">App sends survey to server</text></g></g><g transform="translate(-46,-38) scale(1,1)"><path fill="#ffffff" stroke="none" d="M 1048 512 L 1136 512 L 1146 522 L 1146 626 L 1048 626 L 1048 512"/></g><g transform="translate(-46,-38) scale(1,1)"><path fill="none" stroke="#000000" d="M 1048 512 L 1136 512 L 1146 522 L 1146 626 L 1048 626 L 1048 512 L 1048 512" stroke-miterlimit="10"/></g><g transform="translate(-46,-38) scale(1,1)"><path fill="none" stroke="#000000" d="M 1136 512 L 1136 522 L 1146 522 L 1136 512" stroke-miterlimit="10"/></g><g transform="translate(-46,-38) scale(1,1)"><g><path fill="none" stroke="none"/><text fill="#000000" stroke="none" font-family="Arial" font-size="13px" font-style="normal" font-weight="normal" text-decoration="none" x="1053" y="530">In return app</text><text fill="#000000" stroke="none" font-family="Arial" font-size="13px" font-style="normal" font-weight="normal" text-decoration="none" x="1053" y="543">should get</text><text fill="#000000" stroke="none" font-family="Arial" font-size="13px" font-style="normal" font-weight="normal" text-decoration="none" x="1053" y="556">information</text><text fill="#000000" stroke="none" font-family="Arial" font-size="13px" font-style="normal" font-weight="normal" text-decoration="none" x="1053" y="569">that it's okay</text><text fill="#000000" stroke="none" font-family="Arial" font-size="13px" font-style="normal" font-weight="normal" text-decoration="none" x="1053" y="582">(and optionally</text><text fill="#000000" stroke="none" font-family="Arial" font-size="13px" font-style="normal" font-weight="normal" text-decoration="none" x="1053" y="595">a voucher</text><text fill="#000000" stroke="none" font-family="Arial" font-size="13px" font-style="normal" font-weight="normal" text-decoration="none" x="1053" y="608">code)</text></g></g><g transform="translate(-46,-38) scale(1,1)"><path fill="none" stroke="#000000" d="M 1008 591 L 1047 581" stroke-miterlimit="10" stroke-dasharray="3"/></g><g transform="translate(-46,-38) scale(1,1)"><path fill="#C0C0C0" stroke="none" d="M 485 775 L 680 775 Q 690 775 690 785 L 690 812 Q 690 822 680 822 L 485 822 Q 475 822 475 812 L 475 785 Q 475 775 485 775 Z" opacity="0.2"/></g><g transform="translate(-46,-38) scale(1,1)"><path fill="#ffffff" stroke="none" d="M 478 768 L 673 768 Q 683 768 683 778 L 683 805 Q 683 815 673 815 L 478 815 Q 468 815 468 805 L 468 778 Q 468 768 478 768 Z"/></g><g transform="translate(-46,-38) scale(1,1)"><path fill="none" stroke="#000000" d="M 478 768 L 673 768 Q 683 768 683 778 L 683 805 Q 683 815 673 815 L 478 815 Q 468 815 468 805 L 468 778 Q 468 768 478 768 Z" stroke-miterlimit="10"/></g><g transform="translate(-46,-38) scale(1,1)"><g><path fill="none" stroke="none"/><text fill="#000000" stroke="none" font-family="Arial" font-size="13px" font-style="normal" font-weight="bold" text-decoration="none" x="528.530517578125" y="787.5">Final notification</text></g></g><g transform="translate(-46,-38) scale(1,1)"><path fill="#ffffff" stroke="none" d="M 200 792 L 352 792 L 362 802 L 362 880 L 200 880 L 200 792"/></g><g transform="translate(-46,-38) scale(1,1)"><path fill="none" stroke="#000000" d="M 200 792 L 352 792 L 362 802 L 362 880 L 200 880 L 200 792 L 200 792" stroke-miterlimit="10"/></g><g transform="translate(-46,-38) scale(1,1)"><path fill="none" stroke="#000000" d="M 352 792 L 352 802 L 362 802 L 352 792" stroke-miterlimit="10"/></g><g transform="translate(-46,-38) scale(1,1)"><g><path fill="none" stroke="none"/><text fill="#000000" stroke="none" font-family="Arial" font-size="13px" font-style="normal" font-weight="normal" text-decoration="none" x="205" y="810">Notification that survey</text><text fill="#000000" stroke="none" font-family="Arial" font-size="13px" font-style="normal" font-weight="normal" text-decoration="none" x="205" y="823">was aceppted , and</text><text fill="#000000" stroke="none" font-family="Arial" font-size="13px" font-style="normal" font-weight="normal" text-decoration="none" x="205" y="836">voucher has been send</text><text fill="#000000" stroke="none" font-family="Arial" font-size="13px" font-style="normal" font-weight="normal" text-decoration="none" x="205" y="849">on e-mail adress.</text><text fill="#000000" stroke="none" font-family="Arial" font-size="13px" font-style="normal" font-weight="normal" text-decoration="none" x="205" y="862">(optionally here would be</text><text fill="#000000" stroke="none" font-family="Arial" font-size="13px" font-style="normal" font-weight="normal" text-decoration="none" x="205" y="875">presented voucher)</text></g></g><g transform="translate(-46,-38) scale(1,1)"><path fill="none" stroke="#000000" d="M 467 808 L 364 823" stroke-miterlimit="10" stroke-dasharray="3"/></g><g transform="translate(-46,-38) scale(1,1)"><path fill="#C0C0C0" stroke="none" d="M 551 934.5 C 551 917.1030288 564.8791712 903 582 903 C 599.1208288 903 613 917.1030288 613 934.5 C 613 951.8969712 599.1208288 966 582 966 C 564.8791712 966 551 951.8969712 551 934.5 Z" opacity="0.2"/></g><g transform="translate(-46,-38) scale(1,1)"><path fill="none" stroke="#000000" d="M 544 927.5 C 544 910.1030288 557.8791712 896 575 896 C 592.1208288 896 606 910.1030288 606 927.5 C 606 944.8969712 592.1208288 959 575 959 C 557.8791712 959 544 944.8969712 544 927.5 Z" stroke-miterlimit="10"/></g><g transform="translate(-46,-38) scale(1,1)"><path fill="#000000" stroke="none" d="M 549 927.5 C 549 912.8644528 560.6405952 901 575 901 C 589.3594048 901 601 912.8644528 601 927.5 C 601 942.1355472 589.3594048 954 575 954 C 560.6405952 954 549 942.1355472 549 927.5 Z"/></g><g transform="translate(-46,-38) scale(1,1)"><path fill="none" stroke="#000000" d="M 575 97 L 575 151" stroke-miterlimit="10"/></g><g transform="translate(-46,-38) scale(1,1)"><path fill="none" stroke="#000000" d="M 570.790482243984 140.83732514237585 L 575 151 L 579.209517756016 140.83732514237585" stroke-miterlimit="10"/></g><g transform="translate(-46,-38) scale(1,1)"><path fill="none" stroke="#000000" d="M 682 288 L 976 288 L 976 184 L 696 184" stroke-miterlimit="10"/></g><g transform="translate(-46,-38) scale(1,1)"><path fill="none" stroke="#000000" d="M 706.1626748576241 179.790482243984 L 696 184 L 706.1626748576241 188.209517756016" stroke-miterlimit="10"/></g><g transform="translate(-46,-38) scale(1,1)"><g><path fill="none" stroke="none"/><text fill="#000000" stroke="none" font-family="Arial" font-size="13px" font-style="normal" font-weight="normal" text-decoration="none" x="775.5" y="284.5">invalidate data</text></g></g><g transform="translate(-46,-38) scale(1,1)"><path fill="none" stroke="#000000" d="M 575 201 L 575 263" stroke-miterlimit="10"/></g><g transform="translate(-46,-38) scale(1,1)"><path fill="none" stroke="#000000" d="M 570.790482243984 252.83732514237585 L 575 263 L 579.209517756016 252.83732514237585" stroke-miterlimit="10"/></g><g transform="translate(-46,-38) scale(1,1)"><path fill="none" stroke="#000000" d="M 575 313 L 575 367" stroke-miterlimit="10"/></g><g transform="translate(-46,-38) scale(1,1)"><path fill="none" stroke="#000000" d="M 570.790482243984 356.83732514237585 L 575 367 L 579.209517756016 356.83732514237585" stroke-miterlimit="10"/></g><g transform="translate(-46,-38) scale(1,1)"><g><path fill="none" stroke="none"/><text fill="#000000" stroke="none" font-family="Arial" font-size="13px" font-style="normal" font-weight="normal" text-decoration="none" x="500.5" y="344.5">correct data</text></g></g><g transform="translate(-46,-38) scale(1,1)"><path fill="none" stroke="#000000" d="M 636 420 L 830 420" stroke-miterlimit="10"/></g><g transform="translate(-46,-38) scale(1,1)"><path fill="none" stroke="#000000" d="M 819.8373251423759 424.209517756016 L 830 420 L 819.8373251423758 415.790482243984" stroke-miterlimit="10"/></g><g transform="translate(-46,-38) scale(1,1)"><path fill="none" stroke="#000000" d="M 984 420 L 1056 420 L 1056 168 L 696 168" stroke-miterlimit="10"/></g><g transform="translate(-46,-38) scale(1,1)"><path fill="none" stroke="#000000" d="M 706.1626748576241 163.790482243984 L 696 168 L 706.1626748576241 172.209517756016" stroke-miterlimit="10"/></g><g transform="translate(-46,-38) scale(1,1)"><path fill="none" stroke="#000000" d="M 514 421 L 392 422" stroke-miterlimit="10"/></g><g transform="translate(-46,-38) scale(1,1)"><path fill="none" stroke="#000000" d="M 402.12783039401376 417.70732583229386 L 392 422 L 402.19683656372365 426.126078536905" stroke-miterlimit="10"/></g><g transform="translate(-46,-38) scale(1,1)"><path fill="none" stroke="#000000" d="M 299 448 L 299 519" stroke-miterlimit="10"/></g><g transform="translate(-46,-38) scale(1,1)"><path fill="none" stroke="#000000" d="M 294.790482243984 508.83732514237585 L 299 519 L 303.209517756016 508.83732514237585" stroke-miterlimit="10"/></g><g transform="translate(-46,-38) scale(1,1)"><path fill="none" stroke="#000000" d="M 299 561 L 299 591" stroke-miterlimit="10"/></g><g transform="translate(-46,-38) scale(1,1)"><path fill="none" stroke="#000000" d="M 294.790482243984 580.8373251423759 L 299 591 L 303.209517756016 580.8373251423759" stroke-miterlimit="10"/></g><g transform="translate(-46,-38) scale(1,1)"><path fill="none" stroke="#000000" d="M 416 615 L 478 616" stroke-miterlimit="10"/></g><g transform="translate(-46,-38) scale(1,1)"><path fill="none" stroke="#000000" d="M 467.7707601544613 620.045077524899 L 478 616 L 467.90653339055456 611.6271368871173" stroke-miterlimit="10"/></g><g transform="translate(-46,-38) scale(1,1)"><path fill="none" stroke="#000000" d="M 672 616 L 799 616" stroke-miterlimit="10"/></g><g transform="translate(-46,-38) scale(1,1)"><path fill="none" stroke="#000000" d="M 788.8373251423759 620.209517756016 L 799 616 L 788.8373251423758 611.790482243984" stroke-miterlimit="10"/></g><g transform="translate(-46,-38) scale(1,1)"><g><path fill="none" stroke="none"/><text fill="#000000" stroke="none" font-family="Arial" font-size="13px" font-style="normal" font-weight="normal" text-decoration="none" x="700.5" y="607.5">correct data</text></g></g><g transform="translate(-46,-38) scale(1,1)"><path fill="none" stroke="#000000" d="M 862 640 L 862 791 L 683 791" stroke-miterlimit="10"/></g><g transform="translate(-46,-38) scale(1,1)"><path fill="none" stroke="#000000" d="M 693.1626748576241 786.790482243984 L 683 791 L 693.1626748576241 795.209517756016" stroke-miterlimit="10"/></g><g transform="translate(-46,-38) scale(1,1)"><path fill="none" stroke="#000000" d="M 575 816 L 575 895" stroke-miterlimit="10"/></g><g transform="translate(-46,-38) scale(1,1)"><path fill="none" stroke="#000000" d="M 570.790482243984 884.8373251423759 L 575 895 L 579.209517756016 884.8373251423759" stroke-miterlimit="10"/></g><g transform="translate(-46,-38) scale(1,1)"><path fill="none" stroke="#000000" d="M 524 640 L 524 724 L 423 724" stroke-miterlimit="10"/></g><g transform="translate(-46,-38) scale(1,1)"><path fill="none" stroke="#000000" d="M 433.16267485762415 719.790482243984 L 423 724 L 433.16267485762415 728.209517756016" stroke-miterlimit="10"/></g><g transform="translate(-46,-38) scale(1,1)"><g><path fill="none" stroke="none"/><text fill="#000000" stroke="none" font-family="Arial" font-size="13px" font-style="normal" font-weight="normal" text-decoration="none" x="481.5" y="745.5">invalidate data</text></g></g><g transform="translate(-46,-38) scale(1,1)"><path fill="none" stroke="#000000" d="M 299 703 L 299 640" stroke-miterlimit="10"/></g><g transform="translate(-46,-38) scale(1,1)"><path fill="none" stroke="#000000" d="M 303.209517756016 650.1626748576241 L 299 640 L 294.790482243984 650.1626748576241" stroke-miterlimit="10"/></g></g></svg>