<svg version="1.1" xmlns="http://www.w3.org/2000/svg" xmlns:xlink="http://www.w3.org/1999/xlink" width="714" height="614"><defs></defs><g><g transform="translate(5,10) scale(1,1)"><path fill="none" stroke="#000000" d="M 5 0 L 699 0 L 699 594 L 5 594 L 5 0" stroke-miterlimit="10"></path></g><g transform="translate(5,10) scale(1,1)"><path fill="#ffffff" stroke="none" d="M 5 0 L 5 22 L 194 22 L 205 11 L 205 0 L 5 0"></path></g><g transform="translate(5,10) scale(1,1)"><path fill="none" stroke="#000000" d="M 5 0 L 5 22 L 194 22 L 205 11 L 205 0 L 5 0 L 5 0" stroke-miterlimit="10"></path></g><g transform="translate(5,10) scale(1,1)"><g><path fill="none" stroke="none"></path><text fill="#000000" stroke="none" font-family="Arial" font-size="13px" font-style="normal" font-weight="normal" text-decoration="none" x="76" y="17.5">SequenceDiagram1</text></g></g><g transform="translate(5,10) scale(1,1)"><g><path fill="none" stroke="none"></path><text fill="#000000" stroke="none" font-family="Arial" font-size="13px" font-style="normal" font-weight="bold" text-decoration="none" x="10" y="17.5">interaction</text></g></g><g transform="translate(5,10) scale(1,1)"><rect fill="#C0C0C0" stroke="none" x="71" y="47" width="74" height="39" opacity="0.2"></rect></g><g transform="translate(5,10) scale(1,1)"><rect fill="#ffffff" stroke="none" x="64" y="40" width="74" height="39"></rect></g><g transform="translate(5,10) scale(1,1)"><path fill="none" stroke="#000000" d="M 64 40 L 138 40 L 138 79 L 64 79 L 64 40 Z Z" stroke-miterlimit="10"></path></g><g transform="translate(5,10) scale(1,1)"><g><path fill="none" stroke="none"></path><text fill="#000000" stroke="none" font-family="Arial" font-size="13px" font-style="normal" font-weight="bold" text-decoration="none" x="87.5" y="59.5">User</text></g></g><g transform="translate(5,10) scale(1,1)"><path fill="none" stroke="#000000" d="M 102.5 80 L 102.5 360" stroke-miterlimit="10" stroke-dasharray="3"></path></g><g transform="translate(5,10) scale(1,1)"><rect fill="#C0C0C0" stroke="none" x="479" y="47" width="123" height="39" opacity="0.2"></rect></g><g transform="translate(5,10) scale(1,1)"><rect fill="#ffffff" stroke="none" x="472" y="40" width="123" height="39"></rect></g><g transform="translate(5,10) scale(1,1)"><path fill="none" stroke="#000000" d="M 472 40 L 595 40 L 595 79 L 472 79 L 472 40 Z Z" stroke-miterlimit="10"></path></g><g transform="translate(5,10) scale(1,1)"><g><path fill="none" stroke="none"></path><text fill="#000000" stroke="none" font-family="Arial" font-size="13px" font-style="normal" font-weight="bold" text-decoration="none" x="485" y="59.5">StatisticsService</text></g></g><g transform="translate(5,10) scale(1,1)"><path fill="none" stroke="#000000" d="M 534.5 80 L 534.5 360" stroke-miterlimit="10" stroke-dasharray="3"></path></g><g transform="translate(5,10) scale(1,1)"><rect fill="#C0C0C0" stroke="none" x="279" y="47" width="113" height="39" opacity="0.2"></rect></g><g transform="translate(5,10) scale(1,1)"><rect fill="#ffffff" stroke="none" x="272" y="40" width="113" height="39"></rect></g><g transform="translate(5,10) scale(1,1)"><path fill="none" stroke="#000000" d="M 272 40 L 385 40 L 385 79 L 272 79 L 272 40 Z Z" stroke-miterlimit="10"></path></g><g transform="translate(5,10) scale(1,1)"><g><path fill="none" stroke="none"></path><text fill="#000000" stroke="none" font-family="Arial" font-size="13px" font-style="normal" font-weight="bold" text-decoration="none" x="285.5" y="59.5">StatsController</text></g></g><g transform="translate(5,10) scale(1,1)"><path fill="none" stroke="#000000" d="M 329.5 80 L 329.5 360" stroke-miterlimit="10" stroke-dasharray="3"></path></g><g transform="translate(5,10) scale(1,1)"><path fill="none" stroke="#000000" d="M 102 120 L 322 120" stroke-miterlimit="10"></path></g><g transform="translate(5,10) scale(1,1)"><path fill="#000000" stroke="none" d="M 311.83732514237585 124.20951775601598 L 322 120 L 311.83732514237585 115.79048224398402"></path></g><g transform="translate(5,10) scale(1,1)"><path fill="none" stroke="#000000" d="M 311.83732514237585 124.20951775601598 L 322 120 L 311.83732514237585 115.79048224398402 L 311.83732514237585 124.20951775601598" stroke-miterlimit="10"></path></g><g transform="translate(5,10) scale(1,1)"><g><path fill="none" stroke="none"></path><text fill="#000000" stroke="none" font-family="Arial" font-size="13px" font-style="normal" font-weight="normal" text-decoration="none" x="170.5" y="116.5">1 : GET /stats</text></g></g><g transform="translate(5,10) scale(1,1)"><rect fill="#ffffff" stroke="none" x="322" y="120" width="13" height="64"></rect></g><g transform="translate(5,10) scale(1,1)"><path fill="none" stroke="#000000" d="M 322 120 L 335 120 L 335 184 L 322 184 L 322 120 Z Z" stroke-miterlimit="10"></path></g><g transform="translate(5,10) scale(1,1)"><path fill="none" stroke="#000000" d="M 335 128 L 527 128" stroke-miterlimit="10"></path></g><g transform="translate(5,10) scale(1,1)"><path fill="#000000" stroke="none" d="M 516.8373251423759 132.209517756016 L 527 128 L 516.8373251423758 123.79048224398402"></path></g><g transform="translate(5,10) scale(1,1)"><path fill="none" stroke="#000000" d="M 516.8373251423759 132.209517756016 L 527 128 L 516.8373251423758 123.79048224398402 L 516.8373251423759 132.209517756016" stroke-miterlimit="10"></path></g><g transform="translate(5,10) scale(1,1)"><g><path fill="none" stroke="none"></path><text fill="#000000" stroke="none" font-family="Arial" font-size="13px" font-style="normal" font-weight="normal" text-decoration="none" x="342.5" y="124.5">2 : getGlobalStats(companyId)</text></g></g><g transform="translate(5,10) scale(1,1)"><rect fill="#ffffff" stroke="none" x="527" y="128" width="13" height="48"></rect></g><g transform="translate(5,10) scale(1,1)"><path fill="none" stroke="#000000" d="M 527 128 L 540 128 L 540 176 L 527 176 L 527 128 Z Z" stroke-miterlimit="10"></path></g><g transform="translate(5,10) scale(1,1)"><path fill="none" stroke="#000000" d="M 527 160 L 335 160" stroke-miterlimit="10" stroke-dasharray="3"></path></g><g transform="translate(5,10) scale(1,1)"><path fill="none" stroke="#000000" d="M 345.16267485762415 155.790482243984 L 335 160 L 345.16267485762415 164.209517756016" stroke-miterlimit="10"></path></g><g transform="translate(5,10) scale(1,1)"><g><path fill="none" stroke="none"></path><text fill="#000000" stroke="none" font-family="Arial" font-size="13px" font-style="normal" font-weight="normal" text-decoration="none" x="367.5" y="176.5">3 : return GlobalStats</text></g></g><g transform="translate(5,10) scale(1,1)"><path fill="none" stroke="#000000" d="M 322 168 L 102 168" stroke-miterlimit="10" stroke-dasharray="3"></path></g><g transform="translate(5,10) scale(1,1)"><path fill="none" stroke="#000000" d="M 112.16267485762415 163.790482243984 L 102 168 L 112.16267485762415 172.209517756016" stroke-miterlimit="10"></path></g><g transform="translate(5,10) scale(1,1)"><g><path fill="none" stroke="none"></path><text fill="#000000" stroke="none" font-family="Arial" font-size="13px" font-style="normal" font-weight="normal" text-decoration="none" x="123.5" y="184.5">4 : statsOverview(GlobalStats)</text></g></g><g transform="translate(5,10) scale(1,1)"><path fill="none" stroke="#000000" d="M 102 224 L 322 224" stroke-miterlimit="10"></path></g><g transform="translate(5,10) scale(1,1)"><path fill="#000000" stroke="none" d="M 311.83732514237585 228.209517756016 L 322 224 L 311.83732514237585 219.790482243984"></path></g><g transform="translate(5,10) scale(1,1)"><path fill="none" stroke="#000000" d="M 311.83732514237585 228.209517756016 L 322 224 L 311.83732514237585 219.790482243984 L 311.83732514237585 228.209517756016" stroke-miterlimit="10"></path></g><g transform="translate(5,10) scale(1,1)"><g><path fill="none" stroke="none"></path><text fill="#000000" stroke="none" font-family="Arial" font-size="13px" font-style="normal" font-weight="normal" text-decoration="none" x="134.5" y="220.5">5 : GET /stats?surveyId=id</text></g></g><g transform="translate(5,10) scale(1,1)"><rect fill="#ffffff" stroke="none" x="322" y="224" width="13" height="64"></rect></g><g transform="translate(5,10) scale(1,1)"><path fill="none" stroke="#000000" d="M 322 224 L 335 224 L 335 288 L 322 288 L 322 224 Z Z" stroke-miterlimit="10"></path></g><g transform="translate(5,10) scale(1,1)"><path fill="none" stroke="#000000" d="M 335 234 L 527 234" stroke-miterlimit="10"></path></g><g transform="translate(5,10) scale(1,1)"><path fill="#000000" stroke="none" d="M 516.8373251423759 238.209517756016 L 527 234 L 516.8373251423758 229.790482243984"></path></g><g transform="translate(5,10) scale(1,1)"><path fill="none" stroke="#000000" d="M 516.8373251423759 238.209517756016 L 527 234 L 516.8373251423758 229.790482243984 L 516.8373251423759 238.209517756016" stroke-miterlimit="10"></path></g><g transform="translate(5,10) scale(1,1)"><g><path fill="none" stroke="none"></path><text fill="#000000" stroke="none" font-family="Arial" font-size="13px" font-style="normal" font-weight="normal" text-decoration="none" x="349.5" y="230.5">6 : getSurveyStats(surveyId)</text></g></g><g transform="translate(5,10) scale(1,1)"><rect fill="#ffffff" stroke="none" x="527" y="234" width="13" height="38"></rect></g><g transform="translate(5,10) scale(1,1)"><path fill="none" stroke="#000000" d="M 527 234 L 540 234 L 540 272 L 527 272 L 527 234 Z Z" stroke-miterlimit="10"></path></g><g transform="translate(5,10) scale(1,1)"><path fill="none" stroke="#000000" d="M 527 264 L 335 264" stroke-miterlimit="10" stroke-dasharray="3"></path></g><g transform="translate(5,10) scale(1,1)"><path fill="none" stroke="#000000" d="M 345.16267485762415 259.790482243984 L 335 264 L 345.16267485762415 268.209517756016" stroke-miterlimit="10"></path></g><g transform="translate(5,10) scale(1,1)"><g><path fill="none" stroke="none"></path><text fill="#000000" stroke="none" font-family="Arial" font-size="13px" font-style="normal" font-weight="normal" text-decoration="none" x="366.5" y="280.5">7 : return SurveyStats</text></g></g><g transform="translate(5,10) scale(1,1)"><path fill="none" stroke="#000000" d="M 322 282 L 102 282" stroke-miterlimit="10" stroke-dasharray="3"></path></g><g transform="translate(5,10) scale(1,1)"><path fill="none" stroke="#000000" d="M 112.16267485762415 277.790482243984 L 102 282 L 112.16267485762415 286.209517756016" stroke-miterlimit="10"></path></g><g transform="translate(5,10) scale(1,1)"><g><path fill="none" stroke="none"></path><text fill="#000000" stroke="none" font-family="Arial" font-size="13px" font-style="normal" font-weight="normal" text-decoration="none" x="128.5" y="298.5">8 : surveyStats(SurveyStats)</text></g></g></g></svg>