<svg version="1.1" xmlns="http://www.w3.org/2000/svg" xmlns:xlink="http://www.w3.org/1999/xlink" width="1223" height="1252"><defs></defs><g><g transform="translate(10,10) scale(1,1)"><path fill="none" stroke="#000000" d="M 0 0 L 1203 0 L 1203 1232 L 0 1232 L 0 0" stroke-miterlimit="10"></path></g><g transform="translate(10,10) scale(1,1)"><path fill="#ffffff" stroke="none" d="M 0 0 L 0 22 L 190 22 L 201 11 L 201 0 L 0 0"></path></g><g transform="translate(10,10) scale(1,1)"><path fill="none" stroke="#000000" d="M 0 0 L 0 22 L 190 22 L 201 11 L 201 0 L 0 0 L 0 0" stroke-miterlimit="10"></path></g><g transform="translate(10,10) scale(1,1)"><g><path fill="none" stroke="none"></path><text fill="#000000" stroke="none" font-family="Arial" font-size="13px" font-style="normal" font-weight="normal" text-decoration="none" x="71" y="17.5">FillSurveySequence</text></g></g><g transform="translate(10,10) scale(1,1)"><g><path fill="none" stroke="none"></path><text fill="#000000" stroke="none" font-family="Arial" font-size="13px" font-style="normal" font-weight="bold" text-decoration="none" x="5" y="17.5">interaction</text></g></g><g transform="translate(10,10) scale(1,1)"><rect fill="#C0C0C0" stroke="none" x="63" y="47" width="74" height="39" opacity="0.2"></rect></g><g transform="translate(10,10) scale(1,1)"><rect fill="#ffffff" stroke="none" x="56" y="40" width="74" height="39"></rect></g><g transform="translate(10,10) scale(1,1)"><path fill="none" stroke="#000000" d="M 56 40 L 130 40 L 130 79 L 56 79 L 56 40 Z Z" stroke-miterlimit="10"></path></g><g transform="translate(10,10) scale(1,1)"><g><path fill="none" stroke="none"></path><text fill="#000000" stroke="none" font-family="Arial" font-size="13px" font-style="normal" font-weight="bold" text-decoration="none" x="79.5" y="59.5">User</text></g></g><g transform="translate(10,10) scale(1,1)"><path fill="none" stroke="#000000" d="M 94.5 80 L 94.5 1152" stroke-miterlimit="10" stroke-dasharray="3"></path></g><g transform="translate(10,10) scale(1,1)"><rect fill="#C0C0C0" stroke="none" x="383" y="47" width="82" height="39" opacity="0.2"></rect></g><g transform="translate(10,10) scale(1,1)"><rect fill="#ffffff" stroke="none" x="376" y="40" width="82" height="39"></rect></g><g transform="translate(10,10) scale(1,1)"><path fill="none" stroke="#000000" d="M 376 40 L 458 40 L 458 79 L 376 79 L 376 40 Z Z" stroke-miterlimit="10"></path></g><g transform="translate(10,10) scale(1,1)"><g><path fill="none" stroke="none"></path><text fill="#000000" stroke="none" font-family="Arial" font-size="13px" font-style="normal" font-weight="bold" text-decoration="none" x="389.5" y="59.5">Controller</text></g></g><g transform="translate(10,10) scale(1,1)"><path fill="none" stroke="#000000" d="M 418.5 80 L 418.5 1144" stroke-miterlimit="10" stroke-dasharray="3"></path></g><g transform="translate(10,10) scale(1,1)"><rect fill="#C0C0C0" stroke="none" x="647" y="47" width="155" height="39" opacity="0.2"></rect></g><g transform="translate(10,10) scale(1,1)"><rect fill="#ffffff" stroke="none" x="640" y="40" width="155" height="39"></rect></g><g transform="translate(10,10) scale(1,1)"><path fill="none" stroke="#000000" d="M 640 40 L 795 40 L 795 79 L 640 79 L 640 40 Z Z" stroke-miterlimit="10"></path></g><g transform="translate(10,10) scale(1,1)"><g><path fill="none" stroke="none"></path><text fill="#000000" stroke="none" font-family="Arial" font-size="13px" font-style="normal" font-weight="bold" text-decoration="none" x="657" y="59.5">CompanyServiceImpl</text></g></g><g transform="translate(10,10) scale(1,1)"><path fill="none" stroke="#000000" d="M 718.5 80 L 718.5 1144" stroke-miterlimit="10" stroke-dasharray="3"></path></g><g transform="translate(10,10) scale(1,1)"><rect fill="#C0C0C0" stroke="none" x="943" y="47" width="122" height="39" opacity="0.2"></rect></g><g transform="translate(10,10) scale(1,1)"><rect fill="#ffffff" stroke="none" x="936" y="40" width="122" height="39"></rect></g><g transform="translate(10,10) scale(1,1)"><path fill="none" stroke="#000000" d="M 936 40 L 1058 40 L 1058 79 L 936 79 L 936 40 Z Z" stroke-miterlimit="10"></path></g><g transform="translate(10,10) scale(1,1)"><g><path fill="none" stroke="none"></path><text fill="#000000" stroke="none" font-family="Arial" font-size="13px" font-style="normal" font-weight="bold" text-decoration="none" x="952" y="59.5">MailServiceImpl</text></g></g><g transform="translate(10,10) scale(1,1)"><path fill="none" stroke="#000000" d="M 998.5 80 L 998.5 1144" stroke-miterlimit="10" stroke-dasharray="3"></path></g><g transform="translate(10,10) scale(1,1)"><path fill="none" stroke="#000000" d="M 64 800 L 800 800 L 800 975 L 64 975 L 64 800" stroke-miterlimit="10"></path></g><g transform="translate(10,10) scale(1,1)"><path fill="#ffffff" stroke="none" d="M 64 800 L 64 822 L 153 822 L 164 811 L 164 800 L 64 800"></path></g><g transform="translate(10,10) scale(1,1)"><path fill="none" stroke="#000000" d="M 64 800 L 64 822 L 153 822 L 164 811 L 164 800 L 64 800 L 64 800" stroke-miterlimit="10"></path></g><g transform="translate(10,10) scale(1,1)"><g><path fill="none" stroke="none"></path><text fill="#000000" stroke="none" font-family="Arial" font-size="13px" font-style="normal" font-weight="normal" text-decoration="none" x="89" y="817.5">User exits</text></g></g><g transform="translate(10,10) scale(1,1)"><g><path fill="none" stroke="none"></path><text fill="#000000" stroke="none" font-family="Arial" font-size="13px" font-style="normal" font-weight="bold" text-decoration="none" x="69" y="817.5">alt</text></g></g><g transform="translate(10,10) scale(1,1)"><path fill="none" stroke="#000000" d="M 94 105 L 411 105" stroke-miterlimit="10"></path></g><g transform="translate(10,10) scale(1,1)"><path fill="#000000" stroke="none" d="M 400.83732514237585 109.20951775601598 L 411 105 L 400.83732514237585 100.79048224398402"></path></g><g transform="translate(10,10) scale(1,1)"><path fill="none" stroke="#000000" d="M 400.83732514237585 109.20951775601598 L 411 105 L 400.83732514237585 100.79048224398402 L 400.83732514237585 109.20951775601598" stroke-miterlimit="10"></path></g><g transform="translate(10,10) scale(1,1)"><g><path fill="none" stroke="none"></path><text fill="#000000" stroke="none" font-family="Arial" font-size="13px" font-style="normal" font-weight="normal" text-decoration="none" x="203" y="101.5">1 : GET /surveys</text></g></g><g transform="translate(10,10) scale(1,1)"><rect fill="#ffffff" stroke="none" x="411" y="105" width="13" height="79"></rect></g><g transform="translate(10,10) scale(1,1)"><path fill="none" stroke="#000000" d="M 411 105 L 424 105 L 424 184 L 411 184 L 411 105 Z Z" stroke-miterlimit="10"></path></g><g transform="translate(10,10) scale(1,1)"><path fill="none" stroke="#000000" d="M 424 128 L 711 128" stroke-miterlimit="10"></path></g><g transform="translate(10,10) scale(1,1)"><path fill="#000000" stroke="none" d="M 700.8373251423759 132.209517756016 L 711 128 L 700.8373251423758 123.79048224398402"></path></g><g transform="translate(10,10) scale(1,1)"><path fill="none" stroke="#000000" d="M 700.8373251423759 132.209517756016 L 711 128 L 700.8373251423758 123.79048224398402 L 700.8373251423759 132.209517756016" stroke-miterlimit="10"></path></g><g transform="translate(10,10) scale(1,1)"><g><path fill="none" stroke="none"></path><text fill="#000000" stroke="none" font-family="Arial" font-size="13px" font-style="normal" font-weight="normal" text-decoration="none" x="464.5" y="124.5">2 : getAllActiveSurveys(companyId)</text></g></g><g transform="translate(10,10) scale(1,1)"><rect fill="#ffffff" stroke="none" x="711" y="128" width="13" height="28"></rect></g><g transform="translate(10,10) scale(1,1)"><path fill="none" stroke="#000000" d="M 711 128 L 724 128 L 724 156 L 711 156 L 711 128 Z Z" stroke-miterlimit="10"></path></g><g transform="translate(10,10) scale(1,1)"><path fill="none" stroke="#000000" d="M 711 152 L 424 152" stroke-miterlimit="10" stroke-dasharray="3"></path></g><g transform="translate(10,10) scale(1,1)"><path fill="none" stroke="#000000" d="M 434.16267485762415 147.790482243984 L 424 152 L 434.16267485762415 156.209517756016" stroke-miterlimit="10"></path></g><g transform="translate(10,10) scale(1,1)"><g><path fill="none" stroke="none"></path><text fill="#000000" stroke="none" font-family="Arial" font-size="13px" font-style="normal" font-weight="normal" text-decoration="none" x="481.5" y="168.5">3 : return Collection&lt;Survey&gt;</text></g></g><g transform="translate(10,10) scale(1,1)"><path fill="none" stroke="#000000" d="M 411 176 L 94 176" stroke-miterlimit="10" stroke-dasharray="3"></path></g><g transform="translate(10,10) scale(1,1)"><path fill="none" stroke="#000000" d="M 104.16267485762415 171.790482243984 L 94 176 L 104.16267485762415 180.209517756016" stroke-miterlimit="10"></path></g><g transform="translate(10,10) scale(1,1)"><g><path fill="none" stroke="none"></path><text fill="#000000" stroke="none" font-family="Arial" font-size="13px" font-style="normal" font-weight="normal" text-decoration="none" x="197.5" y="192.5">4 : activeSurveys()</text></g></g><g transform="translate(10,10) scale(1,1)"><path fill="none" stroke="#000000" d="M 94 280 L 411 280" stroke-miterlimit="10"></path></g><g transform="translate(10,10) scale(1,1)"><path fill="#000000" stroke="none" d="M 400.83732514237585 284.209517756016 L 411 280 L 400.83732514237585 275.790482243984"></path></g><g transform="translate(10,10) scale(1,1)"><path fill="none" stroke="#000000" d="M 400.83732514237585 284.209517756016 L 411 280 L 400.83732514237585 275.790482243984 L 400.83732514237585 284.209517756016" stroke-miterlimit="10"></path></g><g transform="translate(10,10) scale(1,1)"><g><path fill="none" stroke="none"></path><text fill="#000000" stroke="none" font-family="Arial" font-size="13px" font-style="normal" font-weight="normal" text-decoration="none" x="165" y="275.5">5 : GET /surveys?surveyId=id</text></g></g><g transform="translate(10,10) scale(1,1)"><rect fill="#ffffff" stroke="none" x="411" y="280" width="13" height="128"></rect></g><g transform="translate(10,10) scale(1,1)"><path fill="none" stroke="#000000" d="M 411 280 L 424 280 L 424 408 L 411 408 L 411 280 Z Z" stroke-miterlimit="10"></path></g><g transform="translate(10,10) scale(1,1)"><path fill="none" stroke="#000000" d="M 424 288 L 711 288" stroke-miterlimit="10"></path></g><g transform="translate(10,10) scale(1,1)"><path fill="#000000" stroke="none" d="M 700.8373251423759 292.209517756016 L 711 288 L 700.8373251423758 283.790482243984"></path></g><g transform="translate(10,10) scale(1,1)"><path fill="none" stroke="#000000" d="M 700.8373251423759 292.209517756016 L 711 288 L 700.8373251423758 283.790482243984 L 700.8373251423759 292.209517756016" stroke-miterlimit="10"></path></g><g transform="translate(10,10) scale(1,1)"><g><path fill="none" stroke="none"></path><text fill="#000000" stroke="none" font-family="Arial" font-size="13px" font-style="normal" font-weight="normal" text-decoration="none" x="488.5" y="284.5">6 : getSurveyById(surveyId)</text></g></g><g transform="translate(10,10) scale(1,1)"><rect fill="#ffffff" stroke="none" x="711" y="288" width="13" height="28"></rect></g><g transform="translate(10,10) scale(1,1)"><path fill="none" stroke="#000000" d="M 711 288 L 724 288 L 724 316 L 711 316 L 711 288 Z Z" stroke-miterlimit="10"></path></g><g transform="translate(10,10) scale(1,1)"><path fill="none" stroke="#000000" d="M 424 336 L 711 336" stroke-miterlimit="10"></path></g><g transform="translate(10,10) scale(1,1)"><path fill="none" stroke="#000000" d="M 700.8373251423759 340.209517756016 L 711 336 L 700.8373251423758 331.790482243984" stroke-miterlimit="10"></path></g><g transform="translate(10,10) scale(1,1)"><g><path fill="none" stroke="none"></path><text fill="#000000" stroke="none" font-family="Arial" font-size="13px" font-style="normal" font-weight="normal" text-decoration="none" x="444" y="332.5">7 : blockVoucherCode(surveyId, sessionId)</text></g></g><g transform="translate(10,10) scale(1,1)"><rect fill="#ffffff" stroke="none" x="711" y="336" width="13" height="64"></rect></g><g transform="translate(10,10) scale(1,1)"><path fill="none" stroke="#000000" d="M 711 336 L 724 336 L 724 400 L 711 400 L 711 336 Z Z" stroke-miterlimit="10"></path></g><g transform="translate(10,10) scale(1,1)"><path fill="none" stroke="#000000" d="M 711 368 L 424 368" stroke-miterlimit="10" stroke-dasharray="3"></path></g><g transform="translate(10,10) scale(1,1)"><path fill="none" stroke="#000000" d="M 434.16267485762415 363.790482243984 L 424 368 L 434.16267485762415 372.209517756016" stroke-miterlimit="10"></path></g><g transform="translate(10,10) scale(1,1)"><g><path fill="none" stroke="none"></path><text fill="#000000" stroke="none" font-family="Arial" font-size="13px" font-style="normal" font-weight="normal" text-decoration="none" x="518.5" y="384.5">8 : return Survey</text></g></g><g transform="translate(10,10) scale(1,1)"><path fill="none" stroke="#000000" d="M 411 392 L 94 392" stroke-miterlimit="10" stroke-dasharray="3"></path></g><g transform="translate(10,10) scale(1,1)"><path fill="none" stroke="#000000" d="M 104.16267485762415 387.790482243984 L 94 392 L 104.16267485762415 396.209517756016" stroke-miterlimit="10"></path></g><g transform="translate(10,10) scale(1,1)"><g><path fill="none" stroke="none"></path><text fill="#000000" stroke="none" font-family="Arial" font-size="13px" font-style="normal" font-weight="normal" text-decoration="none" x="176" y="408.5">9 : renderSurvey(surveyId)</text></g></g><g transform="translate(10,10) scale(1,1)"><path fill="none" stroke="#000000" d="M 94 461 L 411 461" stroke-miterlimit="10"></path></g><g transform="translate(10,10) scale(1,1)"><path fill="#000000" stroke="none" d="M 400.83732514237585 465.209517756016 L 411 461 L 400.83732514237585 456.790482243984"></path></g><g transform="translate(10,10) scale(1,1)"><path fill="none" stroke="#000000" d="M 400.83732514237585 465.209517756016 L 411 461 L 400.83732514237585 456.790482243984 L 400.83732514237585 465.209517756016" stroke-miterlimit="10"></path></g><g transform="translate(10,10) scale(1,1)"><g><path fill="none" stroke="none"></path><text fill="#000000" stroke="none" font-family="Arial" font-size="13px" font-style="normal" font-weight="normal" text-decoration="none" x="170.5" y="457.5">10 : POST  answeredSurvey</text></g></g><g transform="translate(10,10) scale(1,1)"><rect fill="#ffffff" stroke="none" x="411" y="461" width="13" height="283"></rect></g><g transform="translate(10,10) scale(1,1)"><path fill="none" stroke="#000000" d="M 411 461 L 424 461 L 424 744 L 411 744 L 411 461 Z Z" stroke-miterlimit="10"></path></g><g transform="translate(10,10) scale(1,1)"><path fill="none" stroke="#000000" d="M 424 488 L 711 488" stroke-miterlimit="10"></path></g><g transform="translate(10,10) scale(1,1)"><path fill="#000000" stroke="none" d="M 700.8373251423759 492.209517756016 L 711 488 L 700.8373251423758 483.790482243984"></path></g><g transform="translate(10,10) scale(1,1)"><path fill="none" stroke="#000000" d="M 700.8373251423759 492.209517756016 L 711 488 L 700.8373251423758 483.790482243984 L 700.8373251423759 492.209517756016" stroke-miterlimit="10"></path></g><g transform="translate(10,10) scale(1,1)"><g><path fill="none" stroke="none"></path><text fill="#000000" stroke="none" font-family="Arial" font-size="13px" font-style="normal" font-weight="normal" text-decoration="none" x="444.5" y="484.5">11 : addAnsweredSurvey(answeredSurvey)</text></g></g><g transform="translate(10,10) scale(1,1)"><rect fill="#ffffff" stroke="none" x="711" y="488" width="13" height="80"></rect></g><g transform="translate(10,10) scale(1,1)"><path fill="none" stroke="#000000" d="M 711 488 L 724 488 L 724 568 L 711 568 L 711 488 Z Z" stroke-miterlimit="10"></path></g><g transform="translate(10,10) scale(1,1)"><path fill="none" stroke="#000000" d="M 711 544 L 424 544" stroke-miterlimit="10" stroke-dasharray="3"></path></g><g transform="translate(10,10) scale(1,1)"><path fill="none" stroke="#000000" d="M 434.16267485762415 539.790482243984 L 424 544 L 434.16267485762415 548.209517756016" stroke-miterlimit="10"></path></g><g transform="translate(10,10) scale(1,1)"><g><path fill="none" stroke="none"></path><text fill="#000000" stroke="none" font-family="Arial" font-size="13px" font-style="normal" font-weight="normal" text-decoration="none" x="495.5" y="560.5">12 : return VoucherCode</text></g></g><g transform="translate(10,10) scale(1,1)"><path fill="none" stroke="#000000" d="M 411 568 L 94 568" stroke-miterlimit="10" stroke-dasharray="3"></path></g><g transform="translate(10,10) scale(1,1)"><path fill="none" stroke="#000000" d="M 104.16267485762415 563.790482243984 L 94 568 L 104.16267485762415 572.209517756016" stroke-miterlimit="10"></path></g><g transform="translate(10,10) scale(1,1)"><g><path fill="none" stroke="none"></path><text fill="#000000" stroke="none" font-family="Arial" font-size="13px" font-style="normal" font-weight="normal" text-decoration="none" x="189.5" y="584.5">13 : receiveVoucher()</text></g></g><g transform="translate(10,10) scale(1,1)"><path fill="none" stroke="#000000" d="M 424 632 L 991 632" stroke-miterlimit="10"></path></g><g transform="translate(10,10) scale(1,1)"><path fill="#000000" stroke="none" d="M 980.8373251423759 636.209517756016 L 991 632 L 980.8373251423758 627.790482243984"></path></g><g transform="translate(10,10) scale(1,1)"><path fill="none" stroke="#000000" d="M 980.8373251423759 636.209517756016 L 991 632 L 980.8373251423758 627.790482243984 L 980.8373251423759 636.209517756016" stroke-miterlimit="10"></path></g><g transform="translate(10,10) scale(1,1)"><g><path fill="none" stroke="none"></path><text fill="#000000" stroke="none" font-family="Arial" font-size="13px" font-style="normal" font-weight="normal" text-decoration="none" x="566.5" y="628.5">14 : sendVoucherCodeEmail(voucherCode, user)</text></g></g><g transform="translate(10,10) scale(1,1)"><rect fill="#ffffff" stroke="none" x="991" y="632" width="13" height="72"></rect></g><g transform="translate(10,10) scale(1,1)"><path fill="none" stroke="#000000" d="M 991 632 L 1004 632 L 1004 704 L 991 704 L 991 632 Z Z" stroke-miterlimit="10"></path></g><g transform="translate(10,10) scale(1,1)"><path fill="none" stroke="#000000" d="M 991 688 L 424 688" stroke-miterlimit="10" stroke-dasharray="3"></path></g><g transform="translate(10,10) scale(1,1)"><path fill="none" stroke="#000000" d="M 434.16267485762415 683.790482243984 L 424 688 L 434.16267485762415 692.209517756016" stroke-miterlimit="10"></path></g><g transform="translate(10,10) scale(1,1)"><g><path fill="none" stroke="none"></path><text fill="#000000" stroke="none" font-family="Arial" font-size="13px" font-style="normal" font-weight="normal" text-decoration="none" x="639.5" y="704.5">15 : return confirmation</text></g></g><g transform="translate(10,10) scale(1,1)"><path fill="none" stroke="#000000" d="M 411 720 L 94 720" stroke-miterlimit="10" stroke-dasharray="3"></path></g><g transform="translate(10,10) scale(1,1)"><path fill="none" stroke="#000000" d="M 104.16267485762415 715.790482243984 L 94 720 L 104.16267485762415 724.209517756016" stroke-miterlimit="10"></path></g><g transform="translate(10,10) scale(1,1)"><g><path fill="none" stroke="none"></path><text fill="#000000" stroke="none" font-family="Arial" font-size="13px" font-style="normal" font-weight="normal" text-decoration="none" x="161.5" y="736.5">16 : voucherSent(voucherCode)</text></g></g><g transform="translate(10,10) scale(1,1)"><path fill="none" stroke="#000000" d="M 424 888 L 711 888" stroke-miterlimit="10"></path></g><g transform="translate(10,10) scale(1,1)"><path fill="none" stroke="#000000" d="M 700.8373251423759 892.209517756016 L 711 888 L 700.8373251423758 883.790482243984" stroke-miterlimit="10"></path></g><g transform="translate(10,10) scale(1,1)"><g><path fill="none" stroke="none"></path><text fill="#000000" stroke="none" font-family="Arial" font-size="13px" font-style="normal" font-weight="normal" text-decoration="none" x="449.5" y="879.5">18 : unBlockVoucherCode(sessionId)</text></g></g><g transform="translate(10,10) scale(1,1)"><rect fill="#ffffff" stroke="none" x="711" y="888" width="13" height="28"></rect></g><g transform="translate(10,10) scale(1,1)"><path fill="none" stroke="#000000" d="M 711 888 L 724 888 L 724 916 L 711 916 L 711 888 Z Z" stroke-miterlimit="10"></path></g><g transform="translate(10,10) scale(1,1)"><path fill="none" stroke="#000000" d="M 94 864 L 411 864" stroke-miterlimit="10"></path></g><g transform="translate(10,10) scale(1,1)"><path fill="#000000" stroke="none" d="M 400.83732514237585 868.209517756016 L 411 864 L 400.83732514237585 859.790482243984"></path></g><g transform="translate(10,10) scale(1,1)"><path fill="none" stroke="#000000" d="M 400.83732514237585 868.209517756016 L 411 864 L 400.83732514237585 859.790482243984 L 400.83732514237585 868.209517756016" stroke-miterlimit="10"></path></g><g transform="translate(10,10) scale(1,1)"><g><path fill="none" stroke="none"></path><text fill="#000000" stroke="none" font-family="Arial" font-size="13px" font-style="normal" font-weight="normal" text-decoration="none" x="207.5" y="860.5">17 : onUnload()</text></g></g><g transform="translate(10,10) scale(1,1)"><rect fill="#ffffff" stroke="none" x="411" y="864" width="13" height="40"></rect></g><g transform="translate(10,10) scale(1,1)"><path fill="none" stroke="#000000" d="M 411 864 L 424 864 L 424 904 L 411 904 L 411 864 Z Z" stroke-miterlimit="10"></path></g></g></svg>