<svg version="1.1" xmlns="http://www.w3.org/2000/svg" xmlns:xlink="http://www.w3.org/1999/xlink" width="1395" height="1047"><defs/><g><g transform="translate(-6,-174) scale(1,1)"><rect fill="#C0C0C0" stroke="none" x="135" y="199" width="465.3076171875" height="256" opacity="0.2"/></g><g transform="translate(-6,-174) scale(1,1)"><rect fill="#ffffff" stroke="none" x="128" y="192" width="465.3076171875" height="256"/></g><g transform="translate(-6,-174) scale(1,1)"><path fill="none" stroke="#000000" d="M 128 192 L 593.3076171875 192 L 593.3076171875 448 L 128 448 L 128 192 Z Z" stroke-miterlimit="10"/></g><g transform="translate(-6,-174) scale(1,1)"><path fill="none" stroke="#000000" d="M 128 230 L 593.3076171875 230" stroke-miterlimit="10"/></g><g transform="translate(-6,-174) scale(1,1)"><g><path fill="none" stroke="none"/><text fill="#000000" stroke="none" font-family="Arial" font-size="13px" font-style="normal" font-weight="normal" text-decoration="none" x="328.493408203125" y="209.5">«interface»</text></g></g><g transform="translate(-6,-174) scale(1,1)"><g><path fill="none" stroke="none"/><text fill="#000000" stroke="none" font-family="Arial" font-size="13px" font-style="normal" font-weight="bold" text-decoration="none" x="290.93115234375" y="224.5">CompanySurveyService</text></g></g><g transform="translate(-6,-174) scale(1,1)"><g><path fill="none" stroke="none"/><text fill="#000000" stroke="none" font-family="Arial" font-size="13px" font-style="normal" font-weight="normal" text-decoration="none" x="133" y="247.5">+  Survey getSurveyById(surveyId: int)</text></g></g><g transform="translate(-6,-174) scale(1,1)"><g><path fill="none" stroke="none"/><text fill="#000000" stroke="none" font-family="Arial" font-size="13px" font-style="normal" font-weight="normal" text-decoration="none" x="133" y="262.5">+void addAnsweredSurvey(answeredSurvey: AnsweredSurvey)</text></g></g><g transform="translate(-6,-174) scale(1,1)"><g><path fill="none" stroke="none"/><text fill="#000000" stroke="none" font-family="Arial" font-size="13px" font-style="normal" font-weight="normal" text-decoration="none" x="133" y="277.5">+VoucherCode getVoucherCodeForSurvey(surveyId: int)</text></g></g><g transform="translate(-6,-174) scale(1,1)"><g><path fill="none" stroke="none"/><text fill="#000000" stroke="none" font-family="Arial" font-size="13px" font-style="normal" font-weight="normal" text-decoration="none" x="133" y="292.5">+void unBlockVoucherCode(voucherCodeId: int)</text></g></g><g transform="translate(-6,-174) scale(1,1)"><g><path fill="none" stroke="none"/><text fill="#000000" stroke="none" font-family="Arial" font-size="13px" font-style="normal" font-weight="normal" text-decoration="none" x="133" y="307.5">+void addSurvey(survey: Survey)</text></g></g><g transform="translate(-6,-174) scale(1,1)"><g><path fill="none" stroke="none"/><text fill="#000000" stroke="none" font-family="Arial" font-size="13px" font-style="normal" font-weight="normal" text-decoration="none" x="133" y="322.5">+void addVoucher(voucher: Voucher)</text></g></g><g transform="translate(-6,-174) scale(1,1)"><g><path fill="none" stroke="none"/><text fill="#000000" stroke="none" font-family="Arial" font-size="13px" font-style="normal" font-weight="normal" text-decoration="none" x="133" y="337.5">+addVoucherCode(voucherCode: VoucherCode, voucherId: int)</text></g></g><g transform="translate(-6,-174) scale(1,1)"><g><path fill="none" stroke="none"/><text fill="#000000" stroke="none" font-family="Arial" font-size="13px" font-style="normal" font-weight="normal" text-decoration="none" x="133" y="352.5">+void deleteSurvey(surveyId: int)</text></g></g><g transform="translate(-6,-174) scale(1,1)"><g><path fill="none" stroke="none"/><text fill="#000000" stroke="none" font-family="Arial" font-size="13px" font-style="normal" font-weight="normal" text-decoration="none" x="133" y="367.5">+void deleteVoucher(voucherId: int)</text></g></g><g transform="translate(-6,-174) scale(1,1)"><g><path fill="none" stroke="none"/><text fill="#000000" stroke="none" font-family="Arial" font-size="13px" font-style="normal" font-weight="normal" text-decoration="none" x="133" y="382.5">+deleteVoucherCode(voucherCodeId: int)</text></g></g><g transform="translate(-6,-174) scale(1,1)"><g><path fill="none" stroke="none"/><text fill="#000000" stroke="none" font-family="Arial" font-size="13px" font-style="normal" font-weight="normal" text-decoration="none" x="133" y="397.5">+Collection&lt;AnsweredSurvey&gt; getAllAnsweredSurveys(surveyId: int)</text></g></g><g transform="translate(-6,-174) scale(1,1)"><g><path fill="none" stroke="none"/><text fill="#000000" stroke="none" font-family="Arial" font-size="13px" font-style="normal" font-weight="normal" text-decoration="none" x="133" y="412.5">+Collection&lt;AnsweredSurvey&gt; getAllAnsweredSurveys(answeredSurveyId: int)</text></g></g><g transform="translate(-6,-174) scale(1,1)"><g><path fill="none" stroke="none"/><text fill="#000000" stroke="none" font-family="Arial" font-size="13px" font-style="normal" font-weight="normal" text-decoration="none" x="133" y="427.5">+ Collection&lt;Survey&gt; getAllActiveSurveys(companyId: int)</text></g></g><g transform="translate(-6,-174) scale(1,1)"><g><path fill="none" stroke="none"/><text fill="#000000" stroke="none" font-family="Arial" font-size="13px" font-style="normal" font-weight="normal" text-decoration="none" x="133" y="442.5">+void unBlockAllBlockedVouchersForLongerThan(hours: int, minutes: int)</text></g></g><g transform="translate(-6,-174) scale(1,1)"><rect fill="#C0C0C0" stroke="none" x="151" y="503" width="439" height="72" opacity="0.2"/></g><g transform="translate(-6,-174) scale(1,1)"><rect fill="#ffffff" stroke="none" x="144" y="496" width="439" height="72"/></g><g transform="translate(-6,-174) scale(1,1)"><path fill="none" stroke="#000000" d="M 144 496 L 583 496 L 583 568 L 144 568 L 144 496 Z Z" stroke-miterlimit="10"/></g><g transform="translate(-6,-174) scale(1,1)"><path fill="none" stroke="#000000" d="M 144 521 L 583 521" stroke-miterlimit="10"/></g><g transform="translate(-6,-174) scale(1,1)"><path fill="none" stroke="#000000" d="M 144 559 L 583 559" stroke-miterlimit="10"/></g><g transform="translate(-6,-174) scale(1,1)"><g><path fill="none" stroke="none"/><text fill="#000000" stroke="none" font-family="Arial" font-size="13px" font-style="normal" font-weight="bold" text-decoration="none" x="281.497802734375" y="515.5">CompanySurveyServiceImpl</text></g></g><g transform="translate(-6,-174) scale(1,1)"><g><path fill="none" stroke="none"/><text fill="#000000" stroke="none" font-family="Arial" font-size="13px" font-style="normal" font-weight="normal" text-decoration="none" x="149" y="538.5">-companySurveyDao: CompanySurveyDao</text></g></g><g transform="translate(-6,-174) scale(1,1)"><g><path fill="none" stroke="none"/><text fill="#000000" stroke="none" font-family="Arial" font-size="13px" font-style="normal" font-weight="normal" text-decoration="none" x="149" y="553.5">-voucherDao: VoucherDao</text></g></g><g transform="translate(-6,-174) scale(1,1)"><path fill="none" stroke="#000000" d="M 362 448 L 362 496" stroke-miterlimit="10" stroke-dasharray="3"/></g><g transform="translate(-6,-174) scale(1,1)"><path fill="none" stroke="#000000" d="M 357.790482243984 485.83732514237585 L 362 496 L 366.209517756016 485.83732514237585" stroke-miterlimit="10"/></g><g transform="translate(-6,-174) scale(1,1)"><g><path fill="none" stroke="none"/><text fill="#000000" stroke="none" font-family="Arial" font-size="13px" font-style="normal" font-weight="normal" text-decoration="none" x="374.5" y="477.5">«implements»</text></g></g><g transform="translate(-6,-174) scale(1,1)"><rect fill="#C0C0C0" stroke="none" x="743" y="191" width="602.607421875" height="90" opacity="0.2"/></g><g transform="translate(-6,-174) scale(1,1)"><rect fill="#ffffff" stroke="none" x="736" y="184" width="602.607421875" height="90"/></g><g transform="translate(-6,-174) scale(1,1)"><path fill="none" stroke="#000000" d="M 736 184 L 1338.607421875 184 L 1338.607421875 274 L 736 274 L 736 184 Z Z" stroke-miterlimit="10"/></g><g transform="translate(-6,-174) scale(1,1)"><path fill="none" stroke="#000000" d="M 736 222 L 1338.607421875 222" stroke-miterlimit="10"/></g><g transform="translate(-6,-174) scale(1,1)"><g><path fill="none" stroke="none"/><text fill="#000000" stroke="none" font-family="Arial" font-size="13px" font-style="normal" font-weight="normal" text-decoration="none" x="1005.143310546875" y="201.5">«interface»</text></g></g><g transform="translate(-6,-174) scale(1,1)"><g><path fill="none" stroke="none"/><text fill="#000000" stroke="none" font-family="Arial" font-size="13px" font-style="normal" font-weight="bold" text-decoration="none" x="1001.906005859375" y="216.5">MailService </text></g></g><g transform="translate(-6,-174) scale(1,1)"><g><path fill="none" stroke="none"/><text fill="#000000" stroke="none" font-family="Arial" font-size="13px" font-style="normal" font-weight="normal" text-decoration="none" x="741" y="239.5">+boolean sendVerificationTokenEmail(activationToken: String, expirationDate: Date, userName: String)</text></g></g><g transform="translate(-6,-174) scale(1,1)"><g><path fill="none" stroke="none"/><text fill="#000000" stroke="none" font-family="Arial" font-size="13px" font-style="normal" font-weight="normal" text-decoration="none" x="741" y="254.5">+boolean sendPasswordResetEmail(passwordResetToekn: String, userName: String)</text></g></g><g transform="translate(-6,-174) scale(1,1)"><g><path fill="none" stroke="none"/><text fill="#000000" stroke="none" font-family="Arial" font-size="13px" font-style="normal" font-weight="normal" text-decoration="none" x="741" y="269.5">+boolean sendVoucherCodeEmail(voucher: VoucherCode, user: User)</text></g></g><g transform="translate(-6,-174) scale(1,1)"><rect fill="#C0C0C0" stroke="none" x="743" y="335" width="607" height="160" opacity="0.2"/></g><g transform="translate(-6,-174) scale(1,1)"><rect fill="#ffffff" stroke="none" x="736" y="328" width="607" height="160"/></g><g transform="translate(-6,-174) scale(1,1)"><path fill="none" stroke="#000000" d="M 736 328 L 1343 328 L 1343 488 L 736 488 L 736 328 Z Z" stroke-miterlimit="10"/></g><g transform="translate(-6,-174) scale(1,1)"><path fill="none" stroke="#000000" d="M 736 353 L 1343 353" stroke-miterlimit="10"/></g><g transform="translate(-6,-174) scale(1,1)"><path fill="none" stroke="#000000" d="M 736 436 L 1343 436" stroke-miterlimit="10"/></g><g transform="translate(-6,-174) scale(1,1)"><g><path fill="none" stroke="none"/><text fill="#000000" stroke="none" font-family="Arial" font-size="13px" font-style="normal" font-weight="bold" text-decoration="none" x="993.628662109375" y="347.5">MailServiceImpl</text></g></g><g transform="translate(-6,-174) scale(1,1)"><g><path fill="none" stroke="none"/><text fill="#000000" stroke="none" font-family="Arial" font-size="13px" font-style="normal" font-weight="normal" text-decoration="none" x="741" y="370.5">-APP_URL: String</text><path fill="none" stroke="#000000" d="M 741 370.5 L 845.76171875 370.5" stroke-miterlimit="10"/></g></g><g transform="translate(-6,-174) scale(1,1)"><g><path fill="none" stroke="none"/><text fill="#000000" stroke="none" font-family="Arial" font-size="13px" font-style="normal" font-weight="normal" text-decoration="none" x="741" y="385.5">-mailSender: JavaMailSender</text></g></g><g transform="translate(-6,-174) scale(1,1)"><g><path fill="none" stroke="none"/><text fill="#000000" stroke="none" font-family="Arial" font-size="13px" font-style="normal" font-weight="normal" text-decoration="none" x="741" y="400.5">-htmlTemplateEngige: TemplateEngine </text></g></g><g transform="translate(-6,-174) scale(1,1)"><g><path fill="none" stroke="none"/><text fill="#000000" stroke="none" font-family="Arial" font-size="13px" font-style="normal" font-weight="normal" text-decoration="none" x="741" y="415.5">-textTemplateEngige: TemplateEngine </text></g></g><g transform="translate(-6,-174) scale(1,1)"><g><path fill="none" stroke="none"/><text fill="#000000" stroke="none" font-family="Arial" font-size="13px" font-style="normal" font-weight="normal" text-decoration="none" x="741" y="430.5">-messageSource: MessageSource</text></g></g><g transform="translate(-6,-174) scale(1,1)"><g><path fill="none" stroke="none"/><text fill="#000000" stroke="none" font-family="Arial" font-size="13px" font-style="normal" font-weight="normal" text-decoration="none" x="741" y="453.5">-String generateActivationLink(activationToken: String)</text></g></g><g transform="translate(-6,-174) scale(1,1)"><g><path fill="none" stroke="none"/><text fill="#000000" stroke="none" font-family="Arial" font-size="13px" font-style="normal" font-weight="normal" text-decoration="none" x="741" y="468.5">-String generatePasswordResetLink(passwordResetToken: String)</text></g></g><g transform="translate(-6,-174) scale(1,1)"><g><path fill="none" stroke="none"/><text fill="#000000" stroke="none" font-family="Arial" font-size="13px" font-style="normal" font-weight="normal" text-decoration="none" x="741" y="483.5">-boolean send(destinationEmail: String, subject: String, ctx: Context, eMailTemplate: String)</text></g></g><g transform="translate(-6,-174) scale(1,1)"><path fill="none" stroke="#000000" d="M 1038 274 L 1038 328" stroke-miterlimit="10" stroke-dasharray="3"/></g><g transform="translate(-6,-174) scale(1,1)"><path fill="none" stroke="#000000" d="M 1033.7904822439841 317.83732514237585 L 1038 328 L 1042.2095177560159 317.83732514237585" stroke-miterlimit="10"/></g><g transform="translate(-6,-174) scale(1,1)"><g><path fill="none" stroke="none"/><text fill="#000000" stroke="none" font-family="Arial" font-size="13px" font-style="normal" font-weight="normal" text-decoration="none" x="1046.5" y="306.5">«implements»</text></g></g><g transform="translate(-6,-174) scale(1,1)"><rect fill="#C0C0C0" stroke="none" x="719" y="663" width="671.89208984375" height="168" opacity="0.2"/></g><g transform="translate(-6,-174) scale(1,1)"><rect fill="#ffffff" stroke="none" x="712" y="656" width="671.89208984375" height="168"/></g><g transform="translate(-6,-174) scale(1,1)"><path fill="none" stroke="#000000" d="M 712 656 L 1383.89208984375 656 L 1383.89208984375 824 L 712 824 L 712 656 Z Z" stroke-miterlimit="10"/></g><g transform="translate(-6,-174) scale(1,1)"><path fill="none" stroke="#000000" d="M 712 694 L 1383.89208984375 694" stroke-miterlimit="10"/></g><g transform="translate(-6,-174) scale(1,1)"><g><path fill="none" stroke="none"/><text fill="#000000" stroke="none" font-family="Arial" font-size="13px" font-style="normal" font-weight="normal" text-decoration="none" x="1007.48291015625" y="673.5">«implements»</text></g></g><g transform="translate(-6,-174) scale(1,1)"><g><path fill="none" stroke="none"/><text fill="#000000" stroke="none" font-family="Arial" font-size="13px" font-style="normal" font-weight="bold" text-decoration="none" x="982.923828125" y="688.5">UserCompanyService </text></g></g><g transform="translate(-6,-174) scale(1,1)"><g><path fill="none" stroke="none"/><text fill="#000000" stroke="none" font-family="Arial" font-size="13px" font-style="normal" font-weight="normal" text-decoration="none" x="717" y="711.5">+boolean addUser(newUserCompanyForm : NewUserCompanyForm )</text></g></g><g transform="translate(-6,-174) scale(1,1)"><g><path fill="none" stroke="none"/><text fill="#000000" stroke="none" font-family="Arial" font-size="13px" font-style="normal" font-weight="normal" text-decoration="none" x="717" y="726.5">+UserCompany getUserCompanyById(userCompanyId: int)</text></g></g><g transform="translate(-6,-174) scale(1,1)"><g><path fill="none" stroke="none"/><text fill="#000000" stroke="none" font-family="Arial" font-size="13px" font-style="normal" font-weight="normal" text-decoration="none" x="717" y="741.5">+UserCompany getUserByUserName(userName: String)</text></g></g><g transform="translate(-6,-174) scale(1,1)"><g><path fill="none" stroke="none"/><text fill="#000000" stroke="none" font-family="Arial" font-size="13px" font-style="normal" font-weight="normal" text-decoration="none" x="717" y="756.5">+UserCompany getUserCompanyByCompanyId(companyId: int)</text></g></g><g transform="translate(-6,-174) scale(1,1)"><g><path fill="none" stroke="none"/><text fill="#000000" stroke="none" font-family="Arial" font-size="13px" font-style="normal" font-weight="normal" text-decoration="none" x="717" y="771.5">+void deleteUserCompany(userCompanyId: int)</text></g></g><g transform="translate(-6,-174) scale(1,1)"><g><path fill="none" stroke="none"/><text fill="#000000" stroke="none" font-family="Arial" font-size="13px" font-style="normal" font-weight="normal" text-decoration="none" x="717" y="786.5">+void changePassword(userName: String, newHashedPassword: String)</text></g></g><g transform="translate(-6,-174) scale(1,1)"><g><path fill="none" stroke="none"/><text fill="#000000" stroke="none" font-family="Arial" font-size="13px" font-style="normal" font-weight="normal" text-decoration="none" x="717" y="801.5">+void changePassword(userCompany: UserCompany, resetPasswordForm: ResetPasswordForm)</text></g></g><g transform="translate(-6,-174) scale(1,1)"><g><path fill="none" stroke="none"/><text fill="#000000" stroke="none" font-family="Arial" font-size="13px" font-style="normal" font-weight="normal" text-decoration="none" x="717" y="816.5">+ Event validateUserCompany(userCompanyForm: NewUserCompanyForm , messageContext : MessageContext )</text></g></g><g transform="translate(-6,-174) scale(1,1)"><rect fill="#C0C0C0" stroke="none" x="719" y="887" width="679" height="117" opacity="0.2"/></g><g transform="translate(-6,-174) scale(1,1)"><rect fill="#ffffff" stroke="none" x="712" y="880" width="679" height="117"/></g><g transform="translate(-6,-174) scale(1,1)"><path fill="none" stroke="#000000" d="M 712 880 L 1391 880 L 1391 997 L 712 997 L 712 880 Z Z" stroke-miterlimit="10"/></g><g transform="translate(-6,-174) scale(1,1)"><path fill="none" stroke="#000000" d="M 712 905 L 1391 905" stroke-miterlimit="10"/></g><g transform="translate(-6,-174) scale(1,1)"><path fill="none" stroke="#000000" d="M 712 988 L 1391 988" stroke-miterlimit="10"/></g><g transform="translate(-6,-174) scale(1,1)"><g><path fill="none" stroke="none"/><text fill="#000000" stroke="none" font-family="Arial" font-size="13px" font-style="normal" font-weight="bold" text-decoration="none" x="976.004150390625" y="899.5">UserCompanyServiceImpl</text></g></g><g transform="translate(-6,-174) scale(1,1)"><g><path fill="none" stroke="none"/><text fill="#000000" stroke="none" font-family="Arial" font-size="13px" font-style="normal" font-weight="normal" text-decoration="none" x="717" y="922.5">-userCompanyDao : UserCompanyDao </text></g></g><g transform="translate(-6,-174) scale(1,1)"><g><path fill="none" stroke="none"/><text fill="#000000" stroke="none" font-family="Arial" font-size="13px" font-style="normal" font-weight="normal" text-decoration="none" x="717" y="937.5">-messageSource: MessageSource</text></g></g><g transform="translate(-6,-174) scale(1,1)"><g><path fill="none" stroke="none"/><text fill="#000000" stroke="none" font-family="Arial" font-size="13px" font-style="normal" font-weight="normal" text-decoration="none" x="717" y="952.5">-shaPasswordEncoder : ShaPasswordEncoder </text></g></g><g transform="translate(-6,-174) scale(1,1)"><g><path fill="none" stroke="none"/><text fill="#000000" stroke="none" font-family="Arial" font-size="13px" font-style="normal" font-weight="normal" text-decoration="none" x="717" y="967.5">-tokenService : TokenService </text></g></g><g transform="translate(-6,-174) scale(1,1)"><g><path fill="none" stroke="none"/><text fill="#000000" stroke="none" font-family="Arial" font-size="13px" font-style="normal" font-weight="normal" text-decoration="none" x="717" y="982.5">-mailService : MailService </text></g></g><g transform="translate(-6,-174) scale(1,1)"><path fill="none" stroke="#000000" d="M 1051 824 L 1051 880" stroke-miterlimit="10" stroke-dasharray="3"/></g><g transform="translate(-6,-174) scale(1,1)"><path fill="none" stroke="#000000" d="M 1046.7904822439841 869.8373251423759 L 1051 880 L 1055.2095177560159 869.8373251423759" stroke-miterlimit="10"/></g><g transform="translate(-6,-174) scale(1,1)"><g><path fill="none" stroke="none"/><text fill="#000000" stroke="none" font-family="Arial" font-size="13px" font-style="normal" font-weight="normal" text-decoration="none" x="1063.5" y="856.5">«implements»</text></g></g><g transform="translate(-6,-174) scale(1,1)"><path fill="none" stroke="#000000" d="M 712 976 L 680 976 L 680 200 L 736 200" stroke-miterlimit="10"/></g><g transform="translate(-6,-174) scale(1,1)"><path fill="none" stroke="#000000" d="M 725.8373251423759 204.209517756016 L 736 200 L 725.8373251423758 195.790482243984" stroke-miterlimit="10"/></g><g transform="translate(-6,-174) scale(1,1)"><g><path fill="none" stroke="none"/><text fill="#000000" stroke="none" font-family="Arial" font-size="13px" font-style="normal" font-weight="normal" text-decoration="none" x="687.5" y="588.5">«uses»</text></g></g><g transform="translate(-6,-174) scale(1,1)"><rect fill="#C0C0C0" stroke="none" x="79" y="695" width="553.6669921875" height="150" opacity="0.2"/></g><g transform="translate(-6,-174) scale(1,1)"><rect fill="#ffffff" stroke="none" x="72" y="688" width="553.6669921875" height="150"/></g><g transform="translate(-6,-174) scale(1,1)"><path fill="none" stroke="#000000" d="M 72 688 L 625.6669921875 688 L 625.6669921875 838 L 72 838 L 72 688 Z Z" stroke-miterlimit="10"/></g><g transform="translate(-6,-174) scale(1,1)"><path fill="none" stroke="#000000" d="M 72 726 L 625.6669921875 726" stroke-miterlimit="10"/></g><g transform="translate(-6,-174) scale(1,1)"><g><path fill="none" stroke="none"/><text fill="#000000" stroke="none" font-family="Arial" font-size="13px" font-style="normal" font-weight="normal" text-decoration="none" x="316.673095703125" y="705.5">«interface»</text></g></g><g transform="translate(-6,-174) scale(1,1)"><g><path fill="none" stroke="none"/><text fill="#000000" stroke="none" font-family="Arial" font-size="13px" font-style="normal" font-weight="bold" text-decoration="none" x="309.093994140625" y="720.5">TokenService</text></g></g><g transform="translate(-6,-174) scale(1,1)"><g><path fill="none" stroke="none"/><text fill="#000000" stroke="none" font-family="Arial" font-size="13px" font-style="normal" font-weight="normal" text-decoration="none" x="77" y="743.5">+void activateAccount(activationToken: String)</text></g></g><g transform="translate(-6,-174) scale(1,1)"><g><path fill="none" stroke="none"/><text fill="#000000" stroke="none" font-family="Arial" font-size="13px" font-style="normal" font-weight="normal" text-decoration="none" x="77" y="758.5">+VerificationToken generateNewActivationToken(userCompany: UserCompany)</text></g></g><g transform="translate(-6,-174) scale(1,1)"><g><path fill="none" stroke="none"/><text fill="#000000" stroke="none" font-family="Arial" font-size="13px" font-style="normal" font-weight="normal" text-decoration="none" x="77" y="773.5">+PasswordResetToken generateNewPasswordResetToken(userCompany: UserCompany)</text></g></g><g transform="translate(-6,-174) scale(1,1)"><g><path fill="none" stroke="none"/><text fill="#000000" stroke="none" font-family="Arial" font-size="13px" font-style="normal" font-weight="normal" text-decoration="none" x="77" y="788.5">+PasswordResetToken validatePasswordResetToken(passwordResetToken: String)</text></g></g><g transform="translate(-6,-174) scale(1,1)"><g><path fill="none" stroke="none"/><text fill="#000000" stroke="none" font-family="Arial" font-size="13px" font-style="normal" font-weight="normal" text-decoration="none" x="77" y="803.5">+void confirmResetingPassword(passwordResetToken: String)</text></g></g><g transform="translate(-6,-174) scale(1,1)"><g><path fill="none" stroke="none"/><text fill="#000000" stroke="none" font-family="Arial" font-size="13px" font-style="normal" font-weight="normal" text-decoration="none" x="77" y="818.5">+UserCompany getUserCompanyByPasswordResetToken(passwordResetToken: String)</text></g></g><g transform="translate(-6,-174) scale(1,1)"><g><path fill="none" stroke="none"/><text fill="#000000" stroke="none" font-family="Arial" font-size="13px" font-style="normal" font-weight="normal" text-decoration="none" x="77" y="833.5">+UserCompany getUserCompanyByVerificationToken(verificationToken: String)</text></g></g><g transform="translate(-6,-174) scale(1,1)"><rect fill="#C0C0C0" stroke="none" x="71" y="887" width="567" height="72" opacity="0.2"/></g><g transform="translate(-6,-174) scale(1,1)"><rect fill="#ffffff" stroke="none" x="64" y="880" width="567" height="72"/></g><g transform="translate(-6,-174) scale(1,1)"><path fill="none" stroke="#000000" d="M 64 880 L 631 880 L 631 952 L 64 952 L 64 880 Z Z" stroke-miterlimit="10"/></g><g transform="translate(-6,-174) scale(1,1)"><path fill="none" stroke="#000000" d="M 64 905 L 631 905" stroke-miterlimit="10"/></g><g transform="translate(-6,-174) scale(1,1)"><path fill="none" stroke="#000000" d="M 64 943 L 631 943" stroke-miterlimit="10"/></g><g transform="translate(-6,-174) scale(1,1)"><g><path fill="none" stroke="none"/><text fill="#000000" stroke="none" font-family="Arial" font-size="13px" font-style="normal" font-weight="bold" text-decoration="none" x="295.48095703125" y="899.5">TokenServiceImpl</text></g></g><g transform="translate(-6,-174) scale(1,1)"><g><path fill="none" stroke="none"/><text fill="#000000" stroke="none" font-family="Arial" font-size="13px" font-style="normal" font-weight="normal" text-decoration="none" x="69" y="922.5">-tokenDao: TokenDao</text></g></g><g transform="translate(-6,-174) scale(1,1)"><g><path fill="none" stroke="none"/><text fill="#000000" stroke="none" font-family="Arial" font-size="13px" font-style="normal" font-weight="normal" text-decoration="none" x="69" y="937.5">-userCompanyDao : UserCompanyDao </text></g></g><g transform="translate(-6,-174) scale(1,1)"><path fill="none" stroke="#000000" d="M 348 838 L 348 880" stroke-miterlimit="10" stroke-dasharray="3"/></g><g transform="translate(-6,-174) scale(1,1)"><path fill="none" stroke="#000000" d="M 343.790482243984 869.8373251423759 L 348 880 L 352.209517756016 869.8373251423759" stroke-miterlimit="10"/></g><g transform="translate(-6,-174) scale(1,1)"><g><path fill="none" stroke="none"/><text fill="#000000" stroke="none" font-family="Arial" font-size="13px" font-style="normal" font-weight="normal" text-decoration="none" x="358.5" y="864.5">«implements»</text></g></g><g transform="translate(-6,-174) scale(1,1)"><path fill="none" stroke="#000000" d="M 712 960 L 656 960 L 656 712 L 626 712" stroke-miterlimit="10"/></g><g transform="translate(-6,-174) scale(1,1)"><path fill="none" stroke="#000000" d="M 636.1626748576241 707.790482243984 L 626 712 L 636.1626748576241 716.209517756016" stroke-miterlimit="10"/></g><g transform="translate(-6,-174) scale(1,1)"><g><path fill="none" stroke="none"/><text fill="#000000" stroke="none" font-family="Arial" font-size="13px" font-style="normal" font-weight="normal" text-decoration="none" x="607.5" y="860.5">«uses»</text></g></g><g transform="translate(-6,-174) scale(1,1)"><rect fill="#C0C0C0" stroke="none" x="647" y="1087" width="170.14990234375" height="40" opacity="0.2"/></g><g transform="translate(-6,-174) scale(1,1)"><rect fill="#ffffff" stroke="none" x="640" y="1080" width="170.14990234375" height="40"/></g><g transform="translate(-6,-174) scale(1,1)"><path fill="none" stroke="#000000" d="M 640 1080 L 810.14990234375 1080 L 810.14990234375 1120 L 640 1120 L 640 1080 Z Z" stroke-miterlimit="10"/></g><g transform="translate(-6,-174) scale(1,1)"><g><path fill="none" stroke="none"/><text fill="#000000" stroke="none" font-family="Arial" font-size="13px" font-style="normal" font-weight="normal" text-decoration="none" x="692.91455078125" y="1097.5">«interface»</text></g></g><g transform="translate(-6,-174) scale(1,1)"><g><path fill="none" stroke="none"/><text fill="#000000" stroke="none" font-family="Arial" font-size="13px" font-style="normal" font-weight="bold" text-decoration="none" x="665.102294921875" y="1112.5">CompanySurveyDao</text></g></g><g transform="translate(-6,-174) scale(1,1)"><rect fill="#C0C0C0" stroke="none" x="135" y="1087" width="183" height="37" opacity="0.2"/></g><g transform="translate(-6,-174) scale(1,1)"><rect fill="#ffffff" stroke="none" x="128" y="1080" width="183" height="37"/></g><g transform="translate(-6,-174) scale(1,1)"><path fill="none" stroke="#000000" d="M 128 1080 L 311 1080 L 311 1117 L 128 1117 L 128 1080 Z Z" stroke-miterlimit="10"/></g><g transform="translate(-6,-174) scale(1,1)"><g><path fill="none" stroke="none"/><text fill="#000000" stroke="none" font-family="Arial" font-size="13px" font-style="normal" font-weight="normal" text-decoration="none" x="187.339599609375" y="1097.5">«interface»</text></g></g><g transform="translate(-6,-174) scale(1,1)"><g><path fill="none" stroke="none"/><text fill="#000000" stroke="none" font-family="Arial" font-size="13px" font-style="normal" font-weight="bold" text-decoration="none" x="189.510498046875" y="1112.5">TokenDao</text></g></g><g transform="translate(-6,-174) scale(1,1)"><rect fill="#C0C0C0" stroke="none" x="855" y="1087" width="183" height="40" opacity="0.2"/></g><g transform="translate(-6,-174) scale(1,1)"><rect fill="#ffffff" stroke="none" x="848" y="1080" width="183" height="40"/></g><g transform="translate(-6,-174) scale(1,1)"><path fill="none" stroke="#000000" d="M 848 1080 L 1031 1080 L 1031 1120 L 848 1120 L 848 1080 Z Z" stroke-miterlimit="10"/></g><g transform="translate(-6,-174) scale(1,1)"><g><path fill="none" stroke="none"/><text fill="#000000" stroke="none" font-family="Arial" font-size="13px" font-style="normal" font-weight="normal" text-decoration="none" x="907.339599609375" y="1097.5">«interface»</text></g></g><g transform="translate(-6,-174) scale(1,1)"><g><path fill="none" stroke="none"/><text fill="#000000" stroke="none" font-family="Arial" font-size="13px" font-style="normal" font-weight="bold" text-decoration="none" x="886.03369140625" y="1112.5">UserCompanyDao</text></g></g><g transform="translate(-6,-174) scale(1,1)"><rect fill="#C0C0C0" stroke="none" x="375" y="1087" width="200" height="40" opacity="0.2"/></g><g transform="translate(-6,-174) scale(1,1)"><rect fill="#ffffff" stroke="none" x="368" y="1080" width="200" height="40"/></g><g transform="translate(-6,-174) scale(1,1)"><path fill="none" stroke="#000000" d="M 368 1080 L 568 1080 L 568 1120 L 368 1120 L 368 1080 Z Z" stroke-miterlimit="10"/></g><g transform="translate(-6,-174) scale(1,1)"><g><path fill="none" stroke="none"/><text fill="#000000" stroke="none" font-family="Arial" font-size="13px" font-style="normal" font-weight="normal" text-decoration="none" x="435.839599609375" y="1097.5">«interface»</text></g></g><g transform="translate(-6,-174) scale(1,1)"><g><path fill="none" stroke="none"/><text fill="#000000" stroke="none" font-family="Arial" font-size="13px" font-style="normal" font-weight="bold" text-decoration="none" x="431.865966796875" y="1112.5">VoucherDao</text></g></g><g transform="translate(-6,-174) scale(1,1)"><path fill="none" stroke="#000000" d="M 208 1117 L 208 1136 L 48 1136 L 48 888 L 64 888" stroke-miterlimit="10"/></g><g transform="translate(-6,-174) scale(1,1)"><path fill="none" stroke="#000000" d="M 53.837325142375846 892.209517756016 L 64 888 L 53.837325142375846 883.790482243984" stroke-miterlimit="10"/></g><g transform="translate(-6,-174) scale(1,1)"><g><path fill="none" stroke="none"/><text fill="#000000" stroke="none" font-family="Arial" font-size="13px" font-style="normal" font-weight="normal" text-decoration="none" x="87.5" y="1155.5">«uses»</text></g></g><g transform="translate(-6,-174) scale(1,1)"><path fill="none" stroke="#000000" d="M 464 1120 L 464 1168 L 32 1168 L 32 504 L 144 504" stroke-miterlimit="10"/></g><g transform="translate(-6,-174) scale(1,1)"><path fill="none" stroke="#000000" d="M 133.83732514237585 508.209517756016 L 144 504 L 133.83732514237585 499.790482243984" stroke-miterlimit="10"/></g><g transform="translate(-6,-174) scale(1,1)"><g><path fill="none" stroke="none"/><text fill="#000000" stroke="none" font-family="Arial" font-size="13px" font-style="normal" font-weight="normal" text-decoration="none" x="143.5" y="1187.5">«uses»</text></g></g><g transform="translate(-6,-174) scale(1,1)"><path fill="none" stroke="#000000" d="M 720 1120 L 720 1192 L 16 1192 L 16 528 L 144 528" stroke-miterlimit="10"/></g><g transform="translate(-6,-174) scale(1,1)"><path fill="none" stroke="#000000" d="M 133.83732514237585 532.209517756016 L 144 528 L 133.83732514237585 523.790482243984" stroke-miterlimit="10"/></g><g transform="translate(-6,-174) scale(1,1)"><g><path fill="none" stroke="none"/><text fill="#000000" stroke="none" font-family="Arial" font-size="13px" font-style="normal" font-weight="normal" text-decoration="none" x="239.5" y="1211.5">«uses»</text></g></g><g transform="translate(-6,-174) scale(1,1)"><path fill="none" stroke="#000000" d="M 912 1080 L 912 1024 L 272 1024 L 272 952" stroke-miterlimit="10"/></g><g transform="translate(-6,-174) scale(1,1)"><path fill="none" stroke="#000000" d="M 276.209517756016 962.1626748576241 L 272 952 L 267.790482243984 962.1626748576241" stroke-miterlimit="10"/></g><g transform="translate(-6,-174) scale(1,1)"><g><path fill="none" stroke="none"/><text fill="#000000" stroke="none" font-family="Arial" font-size="13px" font-style="normal" font-weight="normal" text-decoration="none" x="559.5" y="1011.5">«uses»</text></g></g><g transform="translate(-6,-174) scale(1,1)"><path fill="none" stroke="#000000" d="M 928 1080 L 928 997" stroke-miterlimit="10"/></g><g transform="translate(-6,-174) scale(1,1)"><path fill="none" stroke="#000000" d="M 932.209517756016 1007.1626748576241 L 928 997 L 923.790482243984 1007.1626748576241" stroke-miterlimit="10"/></g><g transform="translate(-6,-174) scale(1,1)"><g><path fill="none" stroke="none"/><text fill="#000000" stroke="none" font-family="Arial" font-size="13px" font-style="normal" font-weight="normal" text-decoration="none" x="935.5" y="1047.5">«uses»</text></g></g></g></svg>