<svg version="1.1" xmlns="http://www.w3.org/2000/svg" xmlns:xlink="http://www.w3.org/1999/xlink" width="658" height="689"><defs></defs><g><g transform="translate(-10,-26) scale(1,1)"><path fill="#ffffff" stroke="none" d="M 341.32072727272725 635.6800000000001 C 341.32072727272725 630.8861679360001 345.20656959767274 627 350 627 C 354.79343040232726 627 358.67927272727275 630.8861679360001 358.67927272727275 635.6800000000001 C 358.67927272727275 640.473832064 354.79343040232726 644.36 350 644.36 C 345.20656959767274 644.36 341.32072727272725 640.473832064 341.32072727272725 635.6800000000001 Z"></path></g><g transform="translate(-10,-26) scale(1,1)"><path fill="none" stroke="#000000" d="M 341.32072727272725 635.6800000000001 C 341.32072727272725 630.8861679360001 345.20656959767274 627 350 627 C 354.79343040232726 627 358.67927272727275 630.8861679360001 358.67927272727275 635.6800000000001 C 358.67927272727275 640.473832064 354.79343040232726 644.36 350 644.36 C 345.20656959767274 644.36 341.32072727272725 640.473832064 341.32072727272725 635.6800000000001 Z" stroke-miterlimit="10"></path></g><g transform="translate(-10,-26) scale(1,1)"><path fill="none" stroke="#000000" d="M 350 644.36 L 350 661.64" stroke-miterlimit="10"></path></g><g transform="translate(-10,-26) scale(1,1)"><path fill="none" stroke="#000000" d="M 340.81018181818183 650.84 L 359.18981818181817 650.84" stroke-miterlimit="10"></path></g><g transform="translate(-10,-26) scale(1,1)"><path fill="none" stroke="#000000" d="M 350 661.64 L 337.23636363636365 679" stroke-miterlimit="10"></path></g><g transform="translate(-10,-26) scale(1,1)"><path fill="none" stroke="#000000" d="M 350 661.64 L 362.76363636363635 679" stroke-miterlimit="10"></path></g><g transform="translate(-10,-26) scale(1,1)"><g><path fill="none" stroke="none"></path><text fill="#000000" stroke="none" font-family="Arial" font-size="13px" font-style="normal" font-weight="bold" text-decoration="none" x="336.5" y="699.5">User</text></g></g><g transform="translate(-10,-26) scale(1,1)"><path fill="#ffffff" stroke="none" d="M 465.82072727272725 283.18 C 465.82072727272725 278.386167936 469.70656959767274 274.5 474.5 274.5 C 479.29343040232726 274.5 483.17927272727275 278.386167936 483.17927272727275 283.18 C 483.17927272727275 287.973832064 479.29343040232726 291.86 474.5 291.86 C 469.70656959767274 291.86 465.82072727272725 287.973832064 465.82072727272725 283.18 Z"></path></g><g transform="translate(-10,-26) scale(1,1)"><path fill="none" stroke="#000000" d="M 465.82072727272725 283.18 C 465.82072727272725 278.386167936 469.70656959767274 274.5 474.5 274.5 C 479.29343040232726 274.5 483.17927272727275 278.386167936 483.17927272727275 283.18 C 483.17927272727275 287.973832064 479.29343040232726 291.86 474.5 291.86 C 469.70656959767274 291.86 465.82072727272725 287.973832064 465.82072727272725 283.18 Z" stroke-miterlimit="10"></path></g><g transform="translate(-10,-26) scale(1,1)"><path fill="none" stroke="#000000" d="M 474.5 291.86 L 474.5 309.14" stroke-miterlimit="10"></path></g><g transform="translate(-10,-26) scale(1,1)"><path fill="none" stroke="#000000" d="M 465.31018181818183 298.34 L 483.68981818181817 298.34" stroke-miterlimit="10"></path></g><g transform="translate(-10,-26) scale(1,1)"><path fill="none" stroke="#000000" d="M 474.5 309.14 L 461.73636363636365 326.5" stroke-miterlimit="10"></path></g><g transform="translate(-10,-26) scale(1,1)"><path fill="none" stroke="#000000" d="M 474.5 309.14 L 487.26363636363635 326.5" stroke-miterlimit="10"></path></g><g transform="translate(-10,-26) scale(1,1)"><g><path fill="none" stroke="none"></path><text fill="#000000" stroke="none" font-family="Arial" font-size="13px" font-style="normal" font-weight="bold" text-decoration="none" x="447" y="347">Company</text></g></g><g transform="translate(-10,-26) scale(1,1)"><path fill="#C0C0C0" stroke="none" d="M 485 672.5 C 485 663.1111584 525.294368 655.5 575 655.5 C 624.705632 655.5 665 663.1111584 665 672.5 C 665 681.8888416 624.705632 689.5 575 689.5 C 525.294368 689.5 485 681.8888416 485 672.5 Z" opacity="0.2"></path></g><g transform="translate(-10,-26) scale(1,1)"><path fill="#ffffff" stroke="none" d="M 478 665.5 C 478 656.1111584 518.294368 648.5 568 648.5 C 617.705632 648.5 658 656.1111584 658 665.5 C 658 674.8888416 617.705632 682.5 568 682.5 C 518.294368 682.5 478 674.8888416 478 665.5 Z"></path></g><g transform="translate(-10,-26) scale(1,1)"><path fill="none" stroke="#000000" d="M 478 665.5 C 478 656.1111584 518.294368 648.5 568 648.5 C 617.705632 648.5 658 656.1111584 658 665.5 C 658 674.8888416 617.705632 682.5 568 682.5 C 518.294368 682.5 478 674.8888416 478 665.5 Z" stroke-miterlimit="10"></path></g><g transform="translate(-10,-26) scale(1,1)"><g><path fill="none" stroke="none"></path><text fill="#000000" stroke="none" font-family="Arial" font-size="13px" font-style="normal" font-weight="bold" text-decoration="none" x="522.5" y="672.5">Answer surveys</text></g></g><g transform="translate(-10,-26) scale(1,1)"><path fill="#C0C0C0" stroke="none" d="M 27 672.5 C 27 663.1111584 72.2192352 655.5 128 655.5 C 183.7807648 655.5 229 663.1111584 229 672.5 C 229 681.8888416 183.7807648 689.5 128 689.5 C 72.2192352 689.5 27 681.8888416 27 672.5 Z" opacity="0.2"></path></g><g transform="translate(-10,-26) scale(1,1)"><path fill="#ffffff" stroke="none" d="M 20 665.5 C 20 656.1111584 65.2192352 648.5 121 648.5 C 176.7807648 648.5 222 656.1111584 222 665.5 C 222 674.8888416 176.7807648 682.5 121 682.5 C 65.2192352 682.5 20 674.8888416 20 665.5 Z"></path></g><g transform="translate(-10,-26) scale(1,1)"><path fill="none" stroke="#000000" d="M 20 665.5 C 20 656.1111584 65.2192352 648.5 121 648.5 C 176.7807648 648.5 222 656.1111584 222 665.5 C 222 674.8888416 176.7807648 682.5 121 682.5 C 65.2192352 682.5 20 674.8888416 20 665.5 Z" stroke-miterlimit="10"></path></g><g transform="translate(-10,-26) scale(1,1)"><g><path fill="none" stroke="none"></path><text fill="#000000" stroke="none" font-family="Arial" font-size="13px" font-style="normal" font-weight="bold" text-decoration="none" x="71" y="672.5">Receive vouchers</text></g></g><g transform="translate(-10,-26) scale(1,1)"><path fill="#C0C0C0" stroke="none" d="M 180.5 60 C 180.5 50.6111584 216.5410736 43 261 43 C 305.4589264 43 341.5 50.6111584 341.5 60 C 341.5 69.3888416 305.4589264 77 261 77 C 216.5410736 77 180.5 69.3888416 180.5 60 Z" opacity="0.2"></path></g><g transform="translate(-10,-26) scale(1,1)"><path fill="#ffffff" stroke="none" d="M 173.5 53 C 173.5 43.6111584 209.5410736 36 254 36 C 298.4589264 36 334.5 43.6111584 334.5 53 C 334.5 62.3888416 298.4589264 70 254 70 C 209.5410736 70 173.5 62.3888416 173.5 53 Z"></path></g><g transform="translate(-10,-26) scale(1,1)"><path fill="none" stroke="#000000" d="M 173.5 53 C 173.5 43.6111584 209.5410736 36 254 36 C 298.4589264 36 334.5 43.6111584 334.5 53 C 334.5 62.3888416 298.4589264 70 254 70 C 209.5410736 70 173.5 62.3888416 173.5 53 Z" stroke-miterlimit="10"></path></g><g transform="translate(-10,-26) scale(1,1)"><g><path fill="none" stroke="none"></path><text fill="#000000" stroke="none" font-family="Arial" font-size="13px" font-style="normal" font-weight="bold" text-decoration="none" x="211" y="60">Create surveys</text></g></g><g transform="translate(-10,-26) scale(1,1)"><path fill="#C0C0C0" stroke="none" d="M 181 125 C 181 115.6111584 216.817216 108 261 108 C 305.18278399999997 108 341 115.6111584 341 125 C 341 134.3888416 305.18278399999997 142 261 142 C 216.817216 142 181 134.3888416 181 125 Z" opacity="0.2"></path></g><g transform="translate(-10,-26) scale(1,1)"><path fill="#ffffff" stroke="none" d="M 174 118 C 174 108.6111584 209.817216 101 254 101 C 298.18278399999997 101 334 108.6111584 334 118 C 334 127.3888416 298.18278399999997 135 254 135 C 209.817216 135 174 127.3888416 174 118 Z"></path></g><g transform="translate(-10,-26) scale(1,1)"><path fill="none" stroke="#000000" d="M 174 118 C 174 108.6111584 209.817216 101 254 101 C 298.18278399999997 101 334 108.6111584 334 118 C 334 127.3888416 298.18278399999997 135 254 135 C 209.817216 135 174 127.3888416 174 118 Z" stroke-miterlimit="10"></path></g><g transform="translate(-10,-26) scale(1,1)"><g><path fill="none" stroke="none"></path><text fill="#000000" stroke="none" font-family="Arial" font-size="13px" font-style="normal" font-weight="bold" text-decoration="none" x="211.5" y="125">Delete surveys</text></g></g><g transform="translate(-10,-26) scale(1,1)"><path fill="#C0C0C0" stroke="none" d="M 179.5 320 C 179.5 310.6111584 215.9887888 303 261 303 C 306.0112112 303 342.5 310.6111584 342.5 320 C 342.5 329.3888416 306.0112112 337 261 337 C 215.9887888 337 179.5 329.3888416 179.5 320 Z" opacity="0.2"></path></g><g transform="translate(-10,-26) scale(1,1)"><path fill="#ffffff" stroke="none" d="M 172.5 313 C 172.5 303.6111584 208.9887888 296 254 296 C 299.0112112 296 335.5 303.6111584 335.5 313 C 335.5 322.3888416 299.0112112 330 254 330 C 208.9887888 330 172.5 322.3888416 172.5 313 Z"></path></g><g transform="translate(-10,-26) scale(1,1)"><path fill="none" stroke="#000000" d="M 172.5 313 C 172.5 303.6111584 208.9887888 296 254 296 C 299.0112112 296 335.5 303.6111584 335.5 313 C 335.5 322.3888416 299.0112112 330 254 330 C 208.9887888 330 172.5 322.3888416 172.5 313 Z" stroke-miterlimit="10"></path></g><g transform="translate(-10,-26) scale(1,1)"><g><path fill="none" stroke="none"></path><text fill="#000000" stroke="none" font-family="Arial" font-size="13px" font-style="normal" font-weight="bold" text-decoration="none" x="215" y="320">Add vouchers</text></g></g><g transform="translate(-10,-26) scale(1,1)"><path fill="#C0C0C0" stroke="none" d="M 164 255 C 164 245.6111584 207.4283744 238 261 238 C 314.5716256 238 358 245.6111584 358 255 C 358 264.3888416 314.5716256 272 261 272 C 207.4283744 272 164 264.3888416 164 255 Z" opacity="0.2"></path></g><g transform="translate(-10,-26) scale(1,1)"><path fill="#ffffff" stroke="none" d="M 157 248 C 157 238.6111584 200.4283744 231 254 231 C 307.5716256 231 351 238.6111584 351 248 C 351 257.3888416 307.5716256 265 254 265 C 200.4283744 265 157 257.3888416 157 248 Z"></path></g><g transform="translate(-10,-26) scale(1,1)"><path fill="none" stroke="#000000" d="M 157 248 C 157 238.6111584 200.4283744 231 254 231 C 307.5716256 231 351 238.6111584 351 248 C 351 257.3888416 307.5716256 265 254 265 C 200.4283744 265 157 257.3888416 157 248 Z" stroke-miterlimit="10"></path></g><g transform="translate(-10,-26) scale(1,1)"><g><path fill="none" stroke="none"></path><text fill="#000000" stroke="none" font-family="Arial" font-size="13px" font-style="normal" font-weight="bold" text-decoration="none" x="199" y="255">Generate statistics</text></g></g><g transform="translate(-10,-26) scale(1,1)"><path fill="#C0C0C0" stroke="none" d="M 176 190 C 176 180.6111584 214.055792 173 261 173 C 307.944208 173 346 180.6111584 346 190 C 346 199.3888416 307.944208 207 261 207 C 214.055792 207 176 199.3888416 176 190 Z" opacity="0.2"></path></g><g transform="translate(-10,-26) scale(1,1)"><path fill="#ffffff" stroke="none" d="M 169 183 C 169 173.6111584 207.055792 166 254 166 C 300.944208 166 339 173.6111584 339 183 C 339 192.3888416 300.944208 200 254 200 C 207.055792 200 169 192.3888416 169 183 Z"></path></g><g transform="translate(-10,-26) scale(1,1)"><path fill="none" stroke="#000000" d="M 169 183 C 169 173.6111584 207.055792 166 254 166 C 300.944208 166 339 173.6111584 339 183 C 339 192.3888416 300.944208 200 254 200 C 207.055792 200 169 192.3888416 169 183 Z" stroke-miterlimit="10"></path></g><g transform="translate(-10,-26) scale(1,1)"><g><path fill="none" stroke="none"></path><text fill="#000000" stroke="none" font-family="Arial" font-size="13px" font-style="normal" font-weight="bold" text-decoration="none" x="202.5" y="190">Distribute surveys</text></g></g><g transform="translate(-10,-26) scale(1,1)"><path fill="#C0C0C0" stroke="none" d="M 206 385 C 206 375.6111584 230.624336 368 261 368 C 291.37566400000003 368 316 375.6111584 316 385 C 316 394.3888416 291.37566400000003 402 261 402 C 230.624336 402 206 394.3888416 206 385 Z" opacity="0.2"></path></g><g transform="translate(-10,-26) scale(1,1)"><path fill="#ffffff" stroke="none" d="M 199 378 C 199 368.6111584 223.624336 361 254 361 C 284.37566400000003 361 309 368.6111584 309 378 C 309 387.3888416 284.37566400000003 395 254 395 C 223.624336 395 199 387.3888416 199 378 Z"></path></g><g transform="translate(-10,-26) scale(1,1)"><path fill="none" stroke="#000000" d="M 199 378 C 199 368.6111584 223.624336 361 254 361 C 284.37566400000003 361 309 368.6111584 309 378 C 309 387.3888416 284.37566400000003 395 254 395 C 223.624336 395 199 387.3888416 199 378 Z" stroke-miterlimit="10"></path></g><g transform="translate(-10,-26) scale(1,1)"><g><path fill="none" stroke="none"></path><text fill="#000000" stroke="none" font-family="Arial" font-size="13px" font-style="normal" font-weight="bold" text-decoration="none" x="232" y="385">Sign up</text></g></g><g transform="translate(-10,-26) scale(1,1)"><path fill="#C0C0C0" stroke="none" d="M 208.5 450 C 208.5 440.6111584 232.005048 433 261 433 C 289.994952 433 313.5 440.6111584 313.5 450 C 313.5 459.3888416 289.994952 467 261 467 C 232.005048 467 208.5 459.3888416 208.5 450 Z" opacity="0.2"></path></g><g transform="translate(-10,-26) scale(1,1)"><path fill="#ffffff" stroke="none" d="M 201.5 443 C 201.5 433.6111584 225.005048 426 254 426 C 282.994952 426 306.5 433.6111584 306.5 443 C 306.5 452.3888416 282.994952 460 254 460 C 225.005048 460 201.5 452.3888416 201.5 443 Z"></path></g><g transform="translate(-10,-26) scale(1,1)"><path fill="none" stroke="#000000" d="M 201.5 443 C 201.5 433.6111584 225.005048 426 254 426 C 282.994952 426 306.5 433.6111584 306.5 443 C 306.5 452.3888416 282.994952 460 254 460 C 225.005048 460 201.5 452.3888416 201.5 443 Z" stroke-miterlimit="10"></path></g><g transform="translate(-10,-26) scale(1,1)"><g><path fill="none" stroke="none"></path><text fill="#000000" stroke="none" font-family="Arial" font-size="13px" font-style="normal" font-weight="bold" text-decoration="none" x="234" y="450">Sign in</text></g></g><g transform="translate(-10,-26) scale(1,1)"><path fill="none" stroke="#000000" d="M 376 665 Q 463 666 477 666" stroke-miterlimit="10"></path></g><g transform="translate(-10,-26) scale(1,1)"><path fill="none" stroke="#000000" d="M 223 666 Q 238 666 325 665" stroke-miterlimit="10"></path></g><g transform="translate(-10,-26) scale(1,1)"><path fill="none" stroke="#000000" d="M 336 54 Q 367 54 457 273" stroke-miterlimit="10"></path></g><g transform="translate(-10,-26) scale(1,1)"><path fill="none" stroke="#000000" d="M 335 119 Q 367 119 452 273" stroke-miterlimit="10"></path></g><g transform="translate(-10,-26) scale(1,1)"><path fill="none" stroke="#000000" d="M 340 184 Q 367 184 440 273" stroke-miterlimit="10"></path></g><g transform="translate(-10,-26) scale(1,1)"><path fill="none" stroke="#000000" d="M 352 249 Q 367 249 439 292" stroke-miterlimit="10"></path></g><g transform="translate(-10,-26) scale(1,1)"><path fill="none" stroke="#000000" d="M 337 314 Q 367 314 439 313" stroke-miterlimit="10"></path></g><g transform="translate(-10,-26) scale(1,1)"><path fill="none" stroke="#000000" d="M 310 378 Q 367 379 439 335" stroke-miterlimit="10"></path></g><g transform="translate(-10,-26) scale(1,1)"><path fill="none" stroke="#000000" d="M 308 443 Q 367 444 441 354" stroke-miterlimit="10"></path></g><g transform="translate(-10,-26) scale(1,1)"><path fill="#C0C0C0" stroke="none" d="M 175.5 515 C 175.5 505.6111584 213.7796496 498 261 498 C 308.22035040000003 498 346.5 505.6111584 346.5 515 C 346.5 524.3888416 308.22035040000003 532 261 532 C 213.7796496 532 175.5 524.3888416 175.5 515 Z" opacity="0.2"></path></g><g transform="translate(-10,-26) scale(1,1)"><path fill="#ffffff" stroke="none" d="M 168.5 508 C 168.5 498.6111584 206.7796496 491 254 491 C 301.22035040000003 491 339.5 498.6111584 339.5 508 C 339.5 517.3888416 301.22035040000003 525 254 525 C 206.7796496 525 168.5 517.3888416 168.5 508 Z"></path></g><g transform="translate(-10,-26) scale(1,1)"><path fill="none" stroke="#000000" d="M 168.5 508 C 168.5 498.6111584 206.7796496 491 254 491 C 301.22035040000003 491 339.5 498.6111584 339.5 508 C 339.5 517.3888416 301.22035040000003 525 254 525 C 206.7796496 525 168.5 517.3888416 168.5 508 Z" stroke-miterlimit="10"></path></g><g transform="translate(-10,-26) scale(1,1)"><g><path fill="none" stroke="none"></path><text fill="#000000" stroke="none" font-family="Arial" font-size="13px" font-style="normal" font-weight="bold" text-decoration="none" x="203.5" y="515">Manage vouchers</text></g></g><g transform="translate(-10,-26) scale(1,1)"><path fill="none" stroke="#000000" d="M 341 509 Q 367 509 452 354" stroke-miterlimit="10"></path></g><g transform="translate(-10,-26) scale(1,1)"><path fill="#C0C0C0" stroke="none" d="M 165.5 590.5 C 165.5 575.312168 208.2568016 563 261 563 C 313.7431984 563 356.5 575.312168 356.5 590.5 C 356.5 605.687832 313.7431984 618 261 618 C 208.2568016 618 165.5 605.687832 165.5 590.5 Z" opacity="0.2"></path></g><g transform="translate(-10,-26) scale(1,1)"><path fill="#ffffff" stroke="none" d="M 158.5 583.5 C 158.5 568.312168 201.2568016 556 254 556 C 306.7431984 556 349.5 568.312168 349.5 583.5 C 349.5 598.687832 306.7431984 611 254 611 C 201.2568016 611 158.5 598.687832 158.5 583.5 Z"></path></g><g transform="translate(-10,-26) scale(1,1)"><path fill="none" stroke="#000000" d="M 158.5 583.5 C 158.5 568.312168 201.2568016 556 254 556 C 306.7431984 556 349.5 568.312168 349.5 583.5 C 349.5 598.687832 306.7431984 611 254 611 C 201.2568016 611 158.5 598.687832 158.5 583.5 Z" stroke-miterlimit="10"></path></g><g transform="translate(-10,-26) scale(1,1)"><g><path fill="none" stroke="none"></path><text fill="#000000" stroke="none" font-family="Arial" font-size="13px" font-style="normal" font-weight="bold" text-decoration="none" x="201.5" y="590.5">Recover password</text></g></g><g transform="translate(-10,-26) scale(1,1)"><path fill="none" stroke="#000000" d="M 351 584 Q 367 584 458 354" stroke-miterlimit="10"></path></g></g></svg>